<?xml version="1.0" encoding="utf-8"?>
<!-- Generator: Adobe Illustrator 22.1.0, SVG Export Plug-In . SVG Version: 6.00 Build 0)  -->
<svg version="1.1" id="Layer_1" xmlns="http://www.w3.org/2000/svg" xmlns:xlink="http://www.w3.org/1999/xlink" x="0px" y="0px"
	 viewBox="0 0 80 60" style="enable-background:new 0 0 80 60;" xml:space="preserve">
<style type="text/css">
	.st0{fill:#004E42;}
	.st1{fill:#C5D200;}
	.st2{fill:#007674;}
</style>
<g>
	<path class="st0" d="M31.1,42.1c0,0-5.6,9.4-8.6,13.8c-0.7,1-1.1,1.6-2.3,1.6c-5.5,0-6.1,0.1-12.2,0c-0.8,0-1-0.6-0.6-1.3
		c6.8-10.2,16.6-25.4,16.6-25.4S12.1,12,7,4.2c-0.2-0.3-0.5-1,0.4-1h14c0.8,0,1.4,0.1,2.2,1.4c2.6,4,8.9,13.6,8.9,13.6l7.3,11.3
		L31.1,42.1z"/>
	<path d="M67,57.5L67,57.5C67,57.5,67,57.5,67,57.5C67,57.5,67,57.5,67,57.5z"/>
	<path class="st0" d="M72.4,56.2C72.3,56.2,72.3,56.2,72.4,56.2c0-0.1-0.1-0.1-0.1-0.1c-0.3-0.5-0.6-0.9-0.9-1.4c0,0,0,0,0,0
		c-0.1-0.1-0.1-0.2-0.2-0.3c-0.1-0.1-2.6,0.1-2.7,0.6c-0.1,0.5-1.4,2.6-1.4,2.6c0,0,0,0,0,0c1.2,0,2.6,0,4.7,0c0.1,0,0.2,0,0.3,0
		c0,0,0,0,0,0c0.3-0.1,0.4-0.2,0.5-0.4c0,0,0,0,0,0c0,0,0,0,0-0.1C72.6,56.8,72.5,56.5,72.4,56.2z"/>
	<path class="st1" d="M70.6,53.6c-0.1,0.1-0.1,0.1-0.2,0.1c-0.3,0.1-0.6,0-0.8-0.3c-0.1-0.3,0-0.6,0.3-0.8c0,0,0,0,0,0
		c-0.2-0.4-0.5-0.7-0.7-1.1c-0.2,0-0.5-0.1-0.6-0.4c-0.1-0.1-0.1-0.3,0-0.4c-0.1,0-0.3,0-0.6-0.1c-0.1,0.1-0.1,0.2-0.2,0.2
		c-0.3,0.1-0.6,0-0.8-0.3c0,0,0-0.1,0-0.1c-0.3-0.1-0.6-0.1-0.9-0.2c0,0,0,0,0,0c-0.3,0.1-0.6,0-0.8-0.3c-0.2-0.1-0.5-0.2-0.7-0.4
		c0,0-0.1,0.1-0.1,0.1c-0.3,0.1-0.6,0-0.8-0.3c-0.1-0.1-0.1-0.3,0-0.4c-0.2-0.2-0.3-0.4-0.5-0.6c-0.5-0.7-0.8-1.3-1.1-2
		c0,0.2-0.2,0.3-0.3,0.4c-0.3,0.1-0.6,0-0.8-0.3c-0.1-0.3,0-0.6,0.3-0.8c0.2-0.1,0.4,0,0.6,0.1c-0.4-1-0.6-1.9-0.7-2.8
		c-0.1-0.1-0.2-0.2-0.3-0.3c-0.1-0.2,0-0.5,0.1-0.7c-0.1-0.4-0.1-0.9-0.2-1.3c0,0,0,0-0.1,0.1c-0.3,0.1-0.6,0-0.8-0.3
		c-0.1-0.3,0-0.6,0.3-0.8c0.1,0,0.2,0,0.3,0c-0.2-0.6-0.5-1-0.8-1c-0.4,0-1.8-0.2-3.7-0.4c0.1,0.3,0,0.6-0.3,0.8
		c-0.3,0.1-0.6,0-0.8-0.3c-0.1-0.2,0-0.4,0.1-0.6c-0.2,0-0.4-0.1-0.6-0.1c0,0.2-0.1,0.4-0.3,0.4c-0.3,0.1-0.6,0-0.8-0.3
		c-0.1-0.1,0-0.2,0-0.4c-0.2,0-0.5-0.1-0.7-0.2c-0.1,0.1-0.1,0.2-0.2,0.2c-0.3,0.1-0.6,0-0.8-0.3c0-0.1,0-0.1,0-0.2
		c-0.2-0.1-0.5-0.1-0.7-0.2c0,0-0.1,0.1-0.1,0.1c-0.3,0.1-0.6,0-0.8-0.3c0,0,0,0,0,0c-0.3-0.1-0.6-0.2-0.9-0.3c0,0,0,0-0.1,0
		c-0.3,0.1-0.6,0-0.8-0.3c0,0,0-0.1,0-0.1c-0.2-0.1-0.4-0.2-0.7-0.3c0,0-0.1,0.1-0.2,0.1c-0.3,0.1-0.6,0-0.8-0.3c0-0.1,0-0.2,0-0.3
		c0,0,0,0-0.1,0l0.2,1.2c0.1,0.1,0.2,0.1,0.2,0.3c0.1,0.2,0,0.5-0.1,0.6l0.2,1.4c0,0,0.1-0.1,0.1-0.1c0.3-0.1,0.6,0,0.8,0.3
		c0.1,0.3,0,0.6-0.3,0.8c-0.2,0.1-0.3,0.1-0.5,0l0,0.4l0.7,1c0.1-0.1,0.1-0.1,0.2-0.2c0.3-0.1,0.6,0,0.8,0.3c0.1,0.3,0,0.6-0.3,0.8
		c0,0,0,0-0.1,0l0.1,0.1c0,0,0.2,0.4,0.6,1c0.3,0,0.5,0.1,0.6,0.3c0.1,0.2,0,0.4-0.1,0.6c0.3,0.4,0.6,0.9,0.9,1.4
		c0.1,0.1,0.1,0.2,0.2,0.3c0.5,0.8,1.1,1.7,1.7,2.7c0.1-0.1,0.1-0.2,0.2-0.2c0.3-0.1,0.6,0,0.8,0.3c0.1,0.3,0,0.6-0.3,0.8
		c0,0-0.1,0-0.1,0c0.2,0.4,0.5,0.7,0.7,1.1c0.3-0.1,0.6,0,0.7,0.3c0.1,0.2,0,0.5-0.1,0.6c0.3,0.5,0.6,0.9,0.9,1.4
		c0.1,0.1,0.1,0.2,0.2,0.3c0.2,0.2,0.3,0.5,0.5,0.7c0-0.2,0.1-0.4,0.4-0.5c0.3-0.1,0.6,0,0.8,0.3c0.1,0.3,0,0.6-0.3,0.8
		c-0.1,0.1-0.3,0.1-0.4,0c0.3,0.4,0.6,0.8,0.8,1.2c0,0,0.1-0.1,0.1-0.1c0.3-0.1,0.6,0,0.8,0.3c0.1,0.3,0,0.5-0.2,0.7
		c0.5,0.6,0.9,1,1.9,1c0.2,0,0.4,0,0.6,0c0,0,0,0,0,0c-0.1-0.3,0-0.6,0.3-0.8c0.3-0.1,0.6,0,0.8,0.3c0.1,0.2,0.1,0.3,0,0.5
		c0.3,0,0.5,0,0.7,0c0.1-0.1,0.1-0.1,0.2-0.2c0.2-0.1,0.5,0,0.7,0.2c1.1,0,2,0,3,0c0-0.3,0.1-0.5,0.3-0.6c0.3-0.1,0.6,0,0.8,0.3
		c0,0.1,0,0.2,0,0.3c0,0,0,0,0,0c0,0,1.2-2.1,1.4-2.6c0-0.2,0.3-0.3,0.7-0.4c0.1-0.1,0.1-0.2,0.3-0.2c0.2-0.1,0.4,0,0.5,0.1
		c0.6-0.1,1.2-0.1,1.2-0.1C70.9,54,70.8,53.8,70.6,53.6z M66.6,51.4c0.3-0.1,0.6,0,0.8,0.3c0.1,0.3,0,0.6-0.3,0.8
		c-0.3,0.1-0.6,0-0.8-0.3C66.2,51.9,66.3,51.5,66.6,51.4z M65,50.8c0.3-0.1,0.6,0,0.8,0.3c0.1,0.3,0,0.6-0.3,0.8
		c-0.3,0.1-0.6,0-0.8-0.3C64.6,51.3,64.7,51,65,50.8z M65,52.7c0.1,0.3,0,0.6-0.3,0.8c-0.3,0.1-0.6,0-0.8-0.3
		c-0.1-0.3,0-0.6,0.3-0.8C64.6,52.3,64.9,52.4,65,52.7z M63.3,50.2c0.3-0.1,0.6,0,0.8,0.3c0.1,0.3,0,0.6-0.3,0.8
		c-0.3,0.1-0.6,0-0.8-0.3C62.9,50.7,63,50.3,63.3,50.2z M63.1,52.9c-0.3,0.1-0.6,0-0.8-0.3c-0.1-0.3,0-0.6,0.3-0.8
		c0.3-0.1,0.6,0,0.8,0.3C63.6,52.4,63.4,52.8,63.1,52.9z M62.4,48c0.3-0.1,0.6,0,0.8,0.3c0.1,0.3,0,0.6-0.3,0.8
		c-0.3,0.1-0.6,0-0.8-0.3C61.9,48.4,62.1,48.1,62.4,48z M61.7,49.6c0.3-0.1,0.6,0,0.8,0.3c0.1,0.3,0,0.6-0.3,0.8
		c-0.3,0.1-0.6,0-0.8-0.3C61.3,50.1,61.4,49.7,61.7,49.6z M54.1,45c0.3-0.1,0.6,0,0.8,0.3c0.1,0.3,0,0.6-0.3,0.8
		c-0.3,0.1-0.6,0-0.8-0.3C53.7,45.4,53.8,45.1,54.1,45z M53.6,43.8c-0.3,0.1-0.6,0-0.8-0.3c-0.1-0.3,0-0.6,0.3-0.8
		c0.3-0.1,0.6,0,0.8,0.3C54,43.3,53.9,43.7,53.6,43.8z M54.8,43.3c0.3-0.1,0.6,0,0.8,0.3c0.1,0.3,0,0.6-0.3,0.8
		c-0.3,0.1-0.6,0-0.8-0.3C54.3,43.8,54.5,43.4,54.8,43.3z M55,47.2c0.3-0.1,0.6,0,0.8,0.3c0.1,0.3,0,0.6-0.3,0.8
		c-0.3,0.1-0.6,0-0.8-0.3C54.6,47.7,54.7,47.3,55,47.2z M55.4,46.3c-0.1-0.3,0-0.6,0.3-0.8c0.3-0.1,0.6,0,0.8,0.3
		c0.1,0.3,0,0.6-0.3,0.8C55.9,46.8,55.5,46.6,55.4,46.3z M58.4,48.4c0.3-0.1,0.6,0,0.8,0.3c0.1,0.3,0,0.6-0.3,0.8
		c-0.3,0.1-0.6,0-0.8-0.3C57.9,48.9,58.1,48.5,58.4,48.4z M57.9,47.3c-0.3,0.1-0.6,0-0.8-0.3c-0.1-0.3,0-0.6,0.3-0.8
		c0.3-0.1,0.6,0,0.8,0.3C58.3,46.8,58.2,47.1,57.9,47.3z M58.7,47.5c-0.1-0.3,0-0.6,0.3-0.8c0.3-0.1,0.6,0,0.8,0.3
		c0.1,0.3,0,0.6-0.3,0.8C59.2,48,58.8,47.8,58.7,47.5z M59.5,45.9c-0.1-0.3,0-0.6,0.3-0.8c0.3-0.1,0.6,0,0.8,0.3
		c0.1,0.3,0,0.6-0.3,0.8C60,46.4,59.6,46.2,59.5,45.9z M59.3,44c-0.3,0.1-0.6,0-0.8-0.3c-0.1-0.3,0-0.6,0.3-0.8
		c0.3-0.1,0.6,0,0.8,0.3C59.8,43.5,59.6,43.9,59.3,44z M58.9,44.8c0.1,0.3,0,0.6-0.3,0.8c-0.3,0.1-0.6,0-0.8-0.3
		c-0.1-0.3,0-0.6,0.3-0.8C58.4,44.4,58.7,44.5,58.9,44.8z M57.6,43.4c-0.3,0.1-0.6,0-0.8-0.3c-0.1-0.3,0-0.6,0.3-0.8
		c0.3-0.1,0.6,0,0.8,0.3C58,42.9,57.9,43.3,57.6,43.4z M57.2,44.3c0.1,0.3,0,0.6-0.3,0.8c-0.3,0.1-0.6,0-0.8-0.3
		c-0.1-0.3,0-0.6,0.3-0.8C56.8,43.8,57.1,44,57.2,44.3z M56.7,47.8c0.3-0.1,0.6,0,0.8,0.3c0.1,0.3,0,0.6-0.3,0.8
		c-0.3,0.1-0.6,0-0.8-0.3C56.2,48.2,56.4,47.9,56.7,47.8z M57.6,50c0.3-0.1,0.6,0,0.8,0.3c0.1,0.3,0,0.6-0.3,0.8
		c-0.3,0.1-0.6,0-0.8-0.3C57.2,50.5,57.3,50.1,57.6,50z M58.5,52.2c0.3-0.1,0.6,0,0.8,0.3c0.1,0.3,0,0.6-0.3,0.8
		c-0.3,0.1-0.6,0-0.8-0.3C58.1,52.7,58.2,52.4,58.5,52.2z M59,51.4c-0.1-0.3,0-0.6,0.3-0.8c0.3-0.1,0.6,0,0.8,0.3
		c0.1,0.3,0,0.6-0.3,0.8C59.5,51.8,59.1,51.7,59,51.4z M59.7,49.8c-0.1-0.3,0-0.6,0.3-0.8c0.3-0.1,0.6,0,0.8,0.3
		c0.1,0.3,0,0.6-0.3,0.8C60.1,50.2,59.8,50.1,59.7,49.8z M60.9,51.2c0.3-0.1,0.6,0,0.8,0.3c0.1,0.3,0,0.6-0.3,0.8
		c-0.3,0.1-0.6,0-0.8-0.3C60.5,51.7,60.6,51.3,60.9,51.2z M61.5,47.7c0.1,0.3,0,0.6-0.3,0.8c-0.3,0.1-0.6,0-0.8-0.3
		c-0.1-0.3,0-0.6,0.3-0.8C61.1,47.3,61.4,47.4,61.5,47.7z M61.2,43.8c0.1,0.3,0,0.6-0.3,0.8c-0.3,0.1-0.6,0-0.8-0.3
		c-0.1-0.3,0-0.6,0.3-0.8C60.8,43.4,61.1,43.5,61.2,43.8z M60.3,41.6c0.1,0.3,0,0.6-0.3,0.8c-0.3,0.1-0.6,0-0.8-0.3
		c-0.1-0.3,0-0.6,0.3-0.8C59.8,41.2,60.2,41.3,60.3,41.6z M58.6,39.1c0.3-0.1,0.6,0,0.8,0.3c0.1,0.3,0,0.6-0.3,0.8
		c-0.3,0.1-0.6,0-0.8-0.3C58.1,39.5,58.3,39.2,58.6,39.1z M58.7,41c0.1,0.3,0,0.6-0.3,0.8c-0.3,0.1-0.6,0-0.8-0.3
		c-0.1-0.3,0-0.6,0.3-0.8C58.2,40.6,58.6,40.7,58.7,41z M57,38.5c0.3-0.1,0.6,0,0.8,0.3c0.1,0.3,0,0.6-0.3,0.8
		c-0.3,0.1-0.6,0-0.8-0.3C56.5,38.9,56.7,38.6,57,38.5z M56.2,40.1c0.3-0.1,0.6,0,0.8,0.3c0.1,0.3,0,0.6-0.3,0.8
		c-0.3,0.1-0.6,0-0.8-0.3S55.9,40.2,56.2,40.1z M55.5,41.7c0.3-0.1,0.6,0,0.8,0.3c0.1,0.3,0,0.6-0.3,0.8c-0.3,0.1-0.6,0-0.8-0.3
		C55.1,42.2,55.2,41.8,55.5,41.7z M54.6,39.5c0.3-0.1,0.6,0,0.8,0.3c0.1,0.3,0,0.6-0.3,0.8c-0.3,0.1-0.6,0-0.8-0.3
		C54.1,40,54.3,39.6,54.6,39.5z M54.6,41.4c0.1,0.3,0,0.6-0.3,0.8c-0.3,0.1-0.6,0-0.8-0.3c-0.1-0.3,0-0.6,0.3-0.8
		C54.1,41,54.4,41.1,54.6,41.4z M52.9,38.9c0.3-0.1,0.6,0,0.8,0.3c0.1,0.3,0,0.6-0.3,0.8c-0.3,0.1-0.6,0-0.8-0.3
		C52.4,39.3,52.6,39,52.9,38.9z M52.2,40.5c0.3-0.1,0.6,0,0.8,0.3c0.1,0.3,0,0.6-0.3,0.8c-0.3,0.1-0.6,0-0.8-0.3
		C51.8,41,51.9,40.6,52.2,40.5z M51.9,43.2c-0.3,0.1-0.6,0-0.8-0.3c-0.1-0.3,0-0.6,0.3-0.8c0.3-0.1,0.6,0,0.8,0.3
		C52.3,42.7,52.2,43.1,51.9,43.2z M51.2,38.3c0.3-0.1,0.6,0,0.8,0.3c0.1,0.3,0,0.6-0.3,0.8c-0.3,0.1-0.6,0-0.8-0.3
		C50.8,38.7,51,38.4,51.2,38.3z M51.2,40.2c0.1,0.3,0,0.6-0.3,0.8c-0.3,0.1-0.6,0-0.8-0.3c-0.1-0.3,0-0.6,0.3-0.8
		C50.8,39.8,51.1,39.9,51.2,40.2z M49.5,37.7c0.3-0.1,0.6,0,0.8,0.3c0.1,0.3,0,0.6-0.3,0.8c-0.3,0.1-0.6,0-0.8-0.3
		C49.1,38.1,49.2,37.8,49.5,37.7z M47.6,37.8c-0.1-0.3,0-0.6,0.3-0.8c0.3-0.1,0.6,0,0.8,0.3c0.1,0.3,0,0.6-0.3,0.8
		C48.1,38.3,47.7,38.1,47.6,37.8z M48.6,40.1c-0.1-0.3,0-0.6,0.3-0.8c0.3-0.1,0.6,0,0.8,0.3c0.1,0.3,0,0.6-0.3,0.8
		C49,40.5,48.7,40.4,48.6,40.1z M49.5,42.3c-0.1-0.3,0-0.6,0.3-0.8c0.3-0.1,0.6,0,0.8,0.3c0.1,0.3,0,0.6-0.3,0.8
		C50,42.7,49.6,42.6,49.5,42.3z M50.5,44.5c-0.1-0.3,0-0.6,0.3-0.8c0.3-0.1,0.6,0,0.8,0.3c0.1,0.3,0,0.6-0.3,0.8
		C50.9,45,50.6,44.8,50.5,44.5z M52.2,47.1c-0.3,0.1-0.6,0-0.8-0.3c-0.1-0.3,0-0.6,0.3-0.8c0.3-0.1,0.6,0,0.8,0.3
		C52.6,46.6,52.5,46.9,52.2,47.1z M52.8,45.4c-0.3,0.1-0.6,0-0.8-0.3c-0.1-0.3,0-0.6,0.3-0.8c0.3-0.1,0.6,0,0.8,0.3
		C53.3,44.9,53.1,45.3,52.8,45.4z M53.8,47.6c-0.3,0.1-0.6,0-0.8-0.3c-0.1-0.3,0-0.6,0.3-0.8c0.3-0.1,0.6,0,0.8,0.3
		C54.2,47.2,54.1,47.5,53.8,47.6z M54,49.6c-0.1-0.3,0-0.6,0.3-0.8c0.3-0.1,0.6,0,0.8,0.3c0.1,0.3,0,0.6-0.3,0.8
		C54.4,50,54.1,49.9,54,49.6z M55.7,52.1c-0.3,0.1-0.6,0-0.8-0.3c-0.1-0.3,0-0.6,0.3-0.8c0.3-0.1,0.6,0,0.8,0.3
		C56.1,51.6,56,52,55.7,52.1z M55.7,50.2c-0.1-0.3,0-0.6,0.3-0.8c0.3-0.1,0.6,0,0.8,0.3c0.1,0.3,0,0.6-0.3,0.8
		C56.2,50.6,55.8,50.5,55.7,50.2z M56.6,52.4c-0.1-0.3,0-0.6,0.3-0.8c0.3-0.1,0.6,0,0.8,0.3c0.1,0.3,0,0.6-0.3,0.8
		C57.1,52.8,56.8,52.7,56.6,52.4z M57.6,54.6c-0.1-0.3,0-0.6,0.3-0.8c0.3-0.1,0.6,0,0.8,0.3c0.1,0.3,0,0.6-0.3,0.8
		C58.1,55.1,57.7,54.9,57.6,54.6z M59.3,57.2c-0.3,0.1-0.6,0-0.8-0.3c-0.1-0.3,0-0.6,0.3-0.8c0.3-0.1,0.6,0,0.8,0.3
		C59.7,56.7,59.6,57,59.3,57.2z M60,55.5c-0.3,0.1-0.6,0-0.8-0.3c-0.1-0.3,0-0.6,0.3-0.8c0.3-0.1,0.6,0,0.8,0.3
		C60.4,55.1,60.3,55.4,60,55.5z M60,53.6c-0.1-0.3,0-0.6,0.3-0.8c0.3-0.1,0.6,0,0.8,0.3c0.1,0.3,0,0.6-0.3,0.8
		C60.4,54.1,60.1,53.9,60,53.6z M61.7,56.2c-0.3,0.1-0.6,0-0.8-0.3c-0.1-0.3,0-0.6,0.3-0.8c0.3-0.1,0.6,0,0.8,0.3
		C62.1,55.7,62,56,61.7,56.2z M62.3,54.5c-0.3,0.1-0.6,0-0.8-0.3c-0.1-0.3,0-0.6,0.3-0.8c0.3-0.1,0.6,0,0.8,0.3
		C62.8,54.1,62.6,54.4,62.3,54.5z M63.3,56.8c-0.3,0.1-0.6,0-0.8-0.3c-0.1-0.3,0-0.6,0.3-0.8c0.3-0.1,0.6,0,0.8,0.3
		C63.7,56.3,63.6,56.6,63.3,56.8z M63.3,54.8c-0.1-0.3,0-0.6,0.3-0.8c0.3-0.1,0.6,0,0.8,0.3c0.1,0.3,0,0.6-0.3,0.8
		C63.8,55.3,63.4,55.1,63.3,54.8z M65,57.4c-0.3,0.1-0.6,0-0.8-0.3c-0.1-0.3,0-0.6,0.3-0.8c0.3-0.1,0.6,0,0.8,0.3
		C65.4,56.9,65.3,57.2,65,57.4z M65.7,55.7c-0.3,0.1-0.6,0-0.8-0.3c-0.1-0.3,0-0.6,0.3-0.8c0.3-0.1,0.6,0,0.8,0.3
		C66.1,55.3,66,55.6,65.7,55.7z M65.7,53.8c-0.1-0.3,0-0.6,0.3-0.8c0.3-0.1,0.6,0,0.8,0.3c0.1,0.3,0,0.6-0.3,0.8
		C66.1,54.3,65.8,54.1,65.7,53.8z M67.4,56.4c-0.3,0.1-0.6,0-0.8-0.3c-0.1-0.3,0-0.6,0.3-0.8c0.3-0.1,0.6,0,0.8,0.3
		C67.8,55.9,67.7,56.2,67.4,56.4z M68,54.7c-0.3,0.1-0.6,0-0.8-0.3c-0.1-0.3,0-0.6,0.3-0.8c0.3-0.1,0.6,0,0.8,0.3
		C68.5,54.3,68.3,54.6,68,54.7z M68.8,53.1c-0.3,0.1-0.6,0-0.8-0.3c-0.1-0.3,0-0.6,0.3-0.8c0.3-0.1,0.6,0,0.8,0.3
		C69.3,52.6,69.1,53,68.8,53.1z"/>
	<g>
		<path class="st2" d="M47.4,35.9c0.1,0,0.1-0.1,0.2-0.1c-0.3-0.2-0.7-0.3-1-0.5c0,0.1,0,0.2,0,0.3C46.8,35.9,47.1,36,47.4,35.9z"/>
		<path class="st2" d="M46.7,36.5l0.1,0.9c0.2-0.2,0.2-0.4,0.1-0.6C46.9,36.6,46.8,36.5,46.7,36.5z"/>
		<path class="st2" d="M49,36.5C49.1,36.5,49.1,36.5,49,36.5c-0.2-0.2-0.5-0.3-0.8-0.4c0,0,0,0.1,0,0.1C48.4,36.5,48.7,36.6,49,36.5
			z"/>
		<path class="st2" d="M47.6,37.8c0.1,0.3,0.5,0.4,0.8,0.3c0.3-0.1,0.4-0.5,0.3-0.8c-0.1-0.3-0.5-0.4-0.8-0.3
			C47.6,37.2,47.5,37.5,47.6,37.8z"/>
		<path class="st2" d="M50.8,37.1c0,0,0.1,0,0.1-0.1c-0.3-0.1-0.6-0.2-0.9-0.3c0,0,0,0,0,0C50.1,37.1,50.5,37.3,50.8,37.1z"/>
		<path class="st2" d="M47.9,39c-0.1-0.3-0.5-0.4-0.8-0.3c0,0-0.1,0.1-0.1,0.1l0.1,1c0.1,0.1,0.3,0.1,0.5,0
			C47.9,39.6,48,39.3,47.9,39z"/>
		<path class="st2" d="M50,38.7c0.3-0.1,0.4-0.5,0.3-0.8c-0.1-0.3-0.5-0.4-0.8-0.3c-0.3,0.1-0.4,0.5-0.3,0.8
			C49.3,38.7,49.7,38.9,50,38.7z"/>
		<path class="st2" d="M52.4,37.7c0.1,0,0.2-0.1,0.2-0.2c-0.3-0.1-0.7-0.2-1-0.3c0,0.1,0,0.1,0,0.2C51.7,37.7,52.1,37.8,52.4,37.7z"
			/>
		<path class="st2" d="M49.6,39.6c-0.1-0.3-0.5-0.4-0.8-0.3c-0.3,0.1-0.4,0.5-0.3,0.8c0.1,0.3,0.5,0.4,0.8,0.3
			C49.6,40.2,49.8,39.9,49.6,39.6z"/>
		<path class="st2" d="M51.7,39.4c0.3-0.1,0.4-0.5,0.3-0.8c-0.1-0.3-0.5-0.4-0.8-0.3c-0.3,0.1-0.4,0.5-0.3,0.8
			C51.1,39.3,51.4,39.5,51.7,39.4z"/>
		<path class="st2" d="M54.1,38.3c0.2-0.1,0.3-0.2,0.3-0.4c-0.4-0.1-0.7-0.1-1.1-0.2c0,0.1,0,0.2,0,0.4
			C53.4,38.3,53.8,38.5,54.1,38.3z"/>
		<path class="st2" d="M48.1,40.9c-0.1,0-0.2,0.1-0.2,0.2l0.6,0.9c0,0,0,0,0.1,0c0.3-0.1,0.4-0.5,0.3-0.8
			C48.7,40.9,48.4,40.8,48.1,40.9z"/>
		<path class="st2" d="M51.2,40.2c-0.1-0.3-0.5-0.4-0.8-0.3c-0.3,0.1-0.4,0.5-0.3,0.8c0.1,0.3,0.5,0.4,0.8,0.3
			C51.2,40.8,51.4,40.5,51.2,40.2z"/>
		<path class="st2" d="M52.5,39.6c0.1,0.3,0.5,0.4,0.8,0.3c0.3-0.1,0.4-0.5,0.3-0.8c-0.1-0.3-0.5-0.4-0.8-0.3
			C52.6,39,52.4,39.3,52.5,39.6z"/>
		<path class="st2" d="M55.7,38.9c0.3-0.1,0.4-0.5,0.3-0.8c-0.3,0-0.6-0.1-1-0.2c-0.1,0.2-0.2,0.4-0.1,0.6
			C55.1,38.9,55.4,39.1,55.7,38.9z"/>
		<path class="st2" d="M50.6,41.8c-0.1-0.3-0.5-0.4-0.8-0.3c-0.3,0.1-0.4,0.5-0.3,0.8c0.1,0.3,0.5,0.4,0.8,0.3
			C50.6,42.5,50.7,42.1,50.6,41.8z"/>
		<path class="st2" d="M52.7,41.6c0.3-0.1,0.4-0.5,0.3-0.8c-0.1-0.3-0.5-0.4-0.8-0.3c-0.3,0.1-0.4,0.5-0.3,0.8
			C52,41.6,52.4,41.7,52.7,41.6z"/>
		<path class="st2" d="M54.3,40.3c0.1,0.3,0.5,0.4,0.8,0.3c0.3-0.1,0.4-0.5,0.3-0.8c-0.1-0.3-0.5-0.4-0.8-0.3
			C54.3,39.6,54.1,40,54.3,40.3z"/>
		<path class="st2" d="M57.4,39.6c0.3-0.1,0.4-0.5,0.3-0.8c-0.1-0.3-0.5-0.4-0.8-0.3c-0.3,0.1-0.4,0.5-0.3,0.8
			C56.8,39.5,57.1,39.7,57.4,39.6z"/>
		<path class="st2" d="M49.2,43.1c0.2,0.3,0.3,0.6,0.6,0.9c0.1-0.2,0.2-0.4,0.1-0.6C49.7,43.2,49.4,43.1,49.2,43.1z"/>
		<path class="st2" d="M51.9,43.2c0.3-0.1,0.4-0.5,0.3-0.8c-0.1-0.3-0.5-0.4-0.8-0.3c-0.3,0.1-0.4,0.5-0.3,0.8
			C51.2,43.2,51.6,43.3,51.9,43.2z"/>
		<path class="st2" d="M53.8,41.1c-0.3,0.1-0.4,0.5-0.3,0.8c0.1,0.3,0.5,0.4,0.8,0.3c0.3-0.1,0.4-0.5,0.3-0.8
			C54.4,41.1,54.1,41,53.8,41.1z"/>
		<path class="st2" d="M55.9,40.9c0.1,0.3,0.5,0.4,0.8,0.3c0.3-0.1,0.4-0.5,0.3-0.8c-0.1-0.3-0.5-0.4-0.8-0.3
			C55.9,40.2,55.7,40.6,55.9,40.9z"/>
		<path class="st2" d="M59,40.1c0.3-0.1,0.4-0.5,0.3-0.8c-0.1-0.3-0.5-0.4-0.8-0.3c-0.3,0.1-0.4,0.5-0.3,0.8
			C58.4,40.1,58.7,40.3,59,40.1z"/>
		<path class="st2" d="M51.5,44.1c-0.1-0.3-0.5-0.4-0.8-0.3c-0.3,0.1-0.4,0.5-0.3,0.8c0.1,0.3,0.5,0.4,0.8,0.3
			C51.5,44.7,51.7,44.4,51.5,44.1z"/>
		<path class="st2" d="M53.6,43.8c0.3-0.1,0.4-0.5,0.3-0.8c-0.1-0.3-0.5-0.4-0.8-0.3c-0.3,0.1-0.4,0.5-0.3,0.8
			C53,43.8,53.3,43.9,53.6,43.8z"/>
		<path class="st2" d="M55.5,41.7c-0.3,0.1-0.4,0.5-0.3,0.8c0.1,0.3,0.5,0.4,0.8,0.3c0.3-0.1,0.4-0.5,0.3-0.8
			C56.2,41.7,55.8,41.6,55.5,41.7z"/>
		<path class="st2" d="M57.6,41.5c0.1,0.3,0.5,0.4,0.8,0.3c0.3-0.1,0.4-0.5,0.3-0.8c-0.1-0.3-0.5-0.4-0.8-0.3
			C57.6,40.8,57.5,41.2,57.6,41.5z"/>
		<path class="st2" d="M60.8,40.8C60.8,40.8,60.8,40.7,60.8,40.8c0-0.4-0.1-0.8-0.2-1.1c-0.1,0-0.2,0-0.3,0
			c-0.3,0.1-0.4,0.5-0.3,0.8C60.1,40.8,60.5,40.9,60.8,40.8z"/>
		<path class="st2" d="M52.8,45.4c0.3-0.1,0.4-0.5,0.3-0.8c-0.1-0.3-0.5-0.4-0.8-0.3c-0.3,0.1-0.4,0.5-0.3,0.8
			C52.2,45.4,52.5,45.5,52.8,45.4z"/>
		<path class="st2" d="M54.8,43.3c-0.3,0.1-0.4,0.5-0.3,0.8c0.1,0.3,0.5,0.4,0.8,0.3c0.3-0.1,0.4-0.5,0.3-0.8
			C55.4,43.3,55.1,43.2,54.8,43.3z"/>
		<path class="st2" d="M57.1,42.3c-0.3,0.1-0.4,0.5-0.3,0.8c0.1,0.3,0.5,0.4,0.8,0.3c0.3-0.1,0.4-0.5,0.3-0.8
			C57.8,42.3,57.4,42.2,57.1,42.3z"/>
		<path class="st2" d="M59.2,42.1c0.1,0.3,0.5,0.4,0.8,0.3c0.3-0.1,0.4-0.5,0.3-0.8c-0.1-0.3-0.5-0.4-0.8-0.3
			C59.2,41.4,59.1,41.8,59.2,42.1z"/>
		<path class="st2" d="M52.5,46.3C52.4,46,52,45.8,51.7,46c-0.3,0.1-0.4,0.5-0.3,0.8c0.1,0.3,0.5,0.4,0.8,0.3
			C52.5,46.9,52.6,46.6,52.5,46.3z"/>
		<path class="st2" d="M54.6,46c0.3-0.1,0.4-0.5,0.3-0.8c-0.1-0.3-0.5-0.4-0.8-0.3c-0.3,0.1-0.4,0.5-0.3,0.8
			C53.9,46,54.3,46.2,54.6,46z"/>
		<path class="st2" d="M56.5,43.9c-0.3,0.1-0.4,0.5-0.3,0.8c0.1,0.3,0.5,0.4,0.8,0.3c0.3-0.1,0.4-0.5,0.3-0.8
			C57.1,44,56.8,43.8,56.5,43.9z"/>
		<path class="st2" d="M58.9,42.9c-0.3,0.1-0.4,0.5-0.3,0.8c0.1,0.3,0.5,0.4,0.8,0.3c0.3-0.1,0.4-0.5,0.3-0.8
			C59.5,42.9,59.2,42.8,58.9,42.9z"/>
		<path class="st2" d="M61.2,43c0-0.1,0-0.3-0.1-0.4c0-0.2-0.1-0.4-0.1-0.5c-0.2,0.2-0.2,0.4-0.1,0.7C61,42.8,61.1,42.9,61.2,43z"/>
		<path class="st2" d="M54.1,46.9c-0.1-0.3-0.5-0.4-0.8-0.3C53,46.7,52.9,47,53,47.3c0.1,0.3,0.5,0.4,0.8,0.3
			C54.1,47.5,54.2,47.2,54.1,46.9z"/>
		<path class="st2" d="M56.5,45.9c-0.1-0.3-0.5-0.4-0.8-0.3c-0.3,0.1-0.4,0.5-0.3,0.8c0.1,0.3,0.5,0.4,0.8,0.3
			C56.5,46.5,56.6,46.2,56.5,45.9z"/>
		<path class="st2" d="M58.1,44.5c-0.3,0.1-0.4,0.5-0.3,0.8c0.1,0.3,0.5,0.4,0.8,0.3c0.3-0.1,0.4-0.5,0.3-0.8
			C58.7,44.5,58.4,44.4,58.1,44.5z"/>
		<path class="st2" d="M60.5,43.5c-0.3,0.1-0.4,0.5-0.3,0.8c0.1,0.3,0.5,0.4,0.8,0.3c0.3-0.1,0.4-0.5,0.3-0.8
			C61.1,43.5,60.8,43.4,60.5,43.5z"/>
		<path class="st2" d="M52.7,48.2c-0.1,0-0.2,0.1-0.2,0.2c0.2,0.3,0.4,0.6,0.6,0.9c0,0,0.1,0,0.1,0c0.3-0.1,0.4-0.5,0.3-0.8
			C53.3,48.2,53,48.1,52.7,48.2z"/>
		<path class="st2" d="M55.5,48.3c0.3-0.1,0.4-0.5,0.3-0.8c-0.1-0.3-0.5-0.4-0.8-0.3c-0.3,0.1-0.4,0.5-0.3,0.8
			C54.9,48.3,55.2,48.4,55.5,48.3z"/>
		<path class="st2" d="M57.9,47.3c0.3-0.1,0.4-0.5,0.3-0.8c-0.1-0.3-0.5-0.4-0.8-0.3c-0.3,0.1-0.4,0.5-0.3,0.8
			C57.2,47.2,57.6,47.4,57.9,47.3z"/>
		<path class="st2" d="M59.8,45.2c-0.3,0.1-0.4,0.5-0.3,0.8c0.1,0.3,0.5,0.4,0.8,0.3c0.3-0.1,0.4-0.5,0.3-0.8
			C60.5,45.2,60.1,45,59.8,45.2z"/>
		<path class="st2" d="M55,49.1c-0.1-0.3-0.5-0.4-0.8-0.3c-0.3,0.1-0.4,0.5-0.3,0.8c0.1,0.3,0.5,0.4,0.8,0.3
			C55,49.7,55.2,49.4,55,49.1z"/>
		<path class="st2" d="M57.1,48.9c0.3-0.1,0.4-0.5,0.3-0.8c-0.1-0.3-0.5-0.4-0.8-0.3c-0.3,0.1-0.4,0.5-0.3,0.8
			C56.5,48.8,56.8,49,57.1,48.9z"/>
		<path class="st2" d="M59.5,47.8c0.3-0.1,0.4-0.5,0.3-0.8c-0.1-0.3-0.5-0.4-0.8-0.3c-0.3,0.1-0.4,0.5-0.3,0.8
			C58.8,47.8,59.2,48,59.5,47.8z"/>
		<path class="st2" d="M61.1,46.5c0.1,0.3,0.5,0.4,0.8,0.3c0.2-0.1,0.3-0.2,0.3-0.4C62.1,46.2,62,46,62,45.8
			c-0.2-0.1-0.4-0.1-0.6-0.1C61.1,45.9,61,46.2,61.1,46.5z"/>
		<path class="st2" d="M53.7,50.4c0.2,0.3,0.4,0.6,0.6,0.9c0.1-0.2,0.2-0.4,0.1-0.6C54.3,50.5,54,50.3,53.7,50.4z"/>
		<path class="st2" d="M56.5,50.5c0.3-0.1,0.4-0.5,0.3-0.8c-0.1-0.3-0.5-0.4-0.8-0.3c-0.3,0.1-0.4,0.5-0.3,0.8
			C55.8,50.5,56.2,50.6,56.5,50.5z"/>
		<path class="st2" d="M58.8,49.5c0.3-0.1,0.4-0.5,0.3-0.8c-0.1-0.3-0.5-0.4-0.8-0.3c-0.3,0.1-0.4,0.5-0.3,0.8
			C58.2,49.5,58.5,49.6,58.8,49.5z"/>
		<path class="st2" d="M60.8,47.4c-0.3,0.1-0.4,0.5-0.3,0.8c0.1,0.3,0.5,0.4,0.8,0.3c0.3-0.1,0.4-0.5,0.3-0.8
			C61.4,47.4,61.1,47.3,60.8,47.4z"/>
		<path class="st2" d="M56,51.3c-0.1-0.3-0.5-0.4-0.8-0.3c-0.3,0.1-0.4,0.5-0.3,0.8c0.1,0.3,0.5,0.4,0.8,0.3
			C56,52,56.1,51.6,56,51.3z"/>
		<path class="st2" d="M58.1,51.1c0.3-0.1,0.4-0.5,0.3-0.8c-0.1-0.3-0.5-0.4-0.8-0.3c-0.3,0.1-0.4,0.5-0.3,0.8
			C57.4,51.1,57.8,51.2,58.1,51.1z"/>
		<path class="st2" d="M60.4,50.1c0.3-0.1,0.4-0.5,0.3-0.8C60.6,49,60.3,48.9,60,49c-0.3,0.1-0.4,0.5-0.3,0.8
			C59.8,50.1,60.1,50.2,60.4,50.1z"/>
		<path class="st2" d="M62.1,48.7c0.1,0.3,0.5,0.4,0.8,0.3c0.3-0.1,0.4-0.5,0.3-0.8C63,48,62.7,47.8,62.4,48
			C62.1,48.1,61.9,48.4,62.1,48.7z"/>
		<path class="st2" d="M57.4,52.7c0.3-0.1,0.4-0.5,0.3-0.8c-0.1-0.3-0.5-0.4-0.8-0.3c-0.3,0.1-0.4,0.5-0.3,0.8
			C56.8,52.7,57.1,52.8,57.4,52.7z"/>
		<path class="st2" d="M59.8,51.7c0.3-0.1,0.4-0.5,0.3-0.8c-0.1-0.3-0.5-0.4-0.8-0.3c-0.3,0.1-0.4,0.5-0.3,0.8
			C59.1,51.7,59.5,51.8,59.8,51.7z"/>
		<path class="st2" d="M61.4,50.4c0.1,0.3,0.5,0.4,0.8,0.3c0.3-0.1,0.4-0.5,0.3-0.8c-0.1-0.3-0.5-0.4-0.8-0.3
			C61.4,49.7,61.3,50.1,61.4,50.4z"/>
		<path class="st2" d="M64.5,49.7c0,0,0.1,0,0.1-0.1c-0.3-0.2-0.6-0.4-0.9-0.7c0,0.1,0,0.3,0,0.4C63.9,49.7,64.2,49.8,64.5,49.7z"/>
		<path class="st2" d="M56.2,53.2c-0.2,0.1-0.3,0.3-0.4,0.5c0.1,0.2,0.3,0.4,0.4,0.6c0.1,0,0.3,0.1,0.4,0c0.3-0.1,0.4-0.5,0.3-0.8
			C56.8,53.3,56.5,53.1,56.2,53.2z"/>
		<path class="st2" d="M59,53.3c0.3-0.1,0.4-0.5,0.3-0.8c-0.1-0.3-0.5-0.4-0.8-0.3c-0.3,0.1-0.4,0.5-0.3,0.8
			C58.4,53.3,58.7,53.4,59,53.3z"/>
		<path class="st2" d="M61.4,52.3c0.3-0.1,0.4-0.5,0.3-0.8c-0.1-0.3-0.5-0.4-0.8-0.3c-0.3,0.1-0.4,0.5-0.3,0.8
			C60.7,52.3,61.1,52.4,61.4,52.3z"/>
		<path class="st2" d="M63,51c0.1,0.3,0.5,0.4,0.8,0.3c0.3-0.1,0.4-0.5,0.3-0.8c-0.1-0.3-0.5-0.4-0.8-0.3C63,50.3,62.9,50.7,63,51z"
			/>
		<path class="st2" d="M66.2,50.3C66.2,50.3,66.2,50.3,66.2,50.3c-0.2-0.1-0.5-0.2-0.8-0.3C65.5,50.3,65.9,50.4,66.2,50.3z"/>
		<path class="st2" d="M58.7,54.2c-0.1-0.3-0.5-0.4-0.8-0.3c-0.3,0.1-0.4,0.5-0.3,0.8c0.1,0.3,0.5,0.4,0.8,0.3
			C58.6,54.8,58.8,54.5,58.7,54.2z"/>
		<path class="st2" d="M60.7,53.9c0.3-0.1,0.4-0.5,0.3-0.8c-0.1-0.3-0.5-0.4-0.8-0.3C60,53,59.8,53.3,60,53.6
			C60.1,53.9,60.4,54.1,60.7,53.9z"/>
		<path class="st2" d="M63.1,52.9c0.3-0.1,0.4-0.5,0.3-0.8c-0.1-0.3-0.5-0.4-0.8-0.3c-0.3,0.1-0.4,0.5-0.3,0.8
			C62.5,52.9,62.8,53,63.1,52.9z"/>
		<path class="st2" d="M65.5,51.9c0.3-0.1,0.4-0.5,0.3-0.8c-0.1-0.3-0.5-0.4-0.8-0.3c-0.3,0.1-0.4,0.5-0.3,0.8
			C64.9,51.9,65.2,52,65.5,51.9z"/>
		<path class="st2" d="M67.9,50.9c0.1,0,0.2-0.1,0.2-0.2c-0.3,0-0.6-0.1-1-0.2c0,0,0,0.1,0,0.1C67.2,50.9,67.6,51,67.9,50.9z"/>
		<path class="st2" d="M57.1,55.5c0,0-0.1,0-0.1,0.1c0.1,0.1,0.1,0.2,0.2,0.3c0.2,0.2,0.3,0.4,0.5,0.6c0.2-0.2,0.3-0.4,0.2-0.7
			C57.8,55.5,57.4,55.3,57.1,55.5z"/>
		<path class="st2" d="M60.3,54.8c-0.1-0.3-0.5-0.4-0.8-0.3c-0.3,0.1-0.4,0.5-0.3,0.8c0.1,0.3,0.5,0.4,0.8,0.3
			C60.3,55.4,60.4,55.1,60.3,54.8z"/>
		<path class="st2" d="M62.3,54.5c0.3-0.1,0.4-0.5,0.3-0.8c-0.1-0.3-0.5-0.4-0.8-0.3c-0.3,0.1-0.4,0.5-0.3,0.8
			C61.7,54.5,62,54.7,62.3,54.5z"/>
		<path class="st2" d="M64.3,52.4c-0.3,0.1-0.4,0.5-0.3,0.8c0.1,0.3,0.5,0.4,0.8,0.3c0.3-0.1,0.4-0.5,0.3-0.8
			C64.9,52.4,64.6,52.3,64.3,52.4z"/>
		<path class="st2" d="M67.1,52.5c0.3-0.1,0.4-0.5,0.3-0.8c-0.1-0.3-0.5-0.4-0.8-0.3c-0.3,0.1-0.4,0.5-0.3,0.8
			C66.5,52.5,66.8,52.6,67.1,52.5z"/>
		<path class="st2" d="M69.3,51.5c-0.2-0.3-0.3-0.5-0.5-0.8c0,0,0,0-0.1,0c-0.1,0.1-0.1,0.3,0,0.4C68.8,51.4,69,51.5,69.3,51.5z"/>
		<path class="st2" d="M58.8,56.1c-0.3,0.1-0.4,0.5-0.3,0.8c0.1,0.3,0.5,0.4,0.8,0.3c0.3-0.1,0.4-0.5,0.3-0.8
			C59.5,56.1,59.1,56,58.8,56.1z"/>
		<path class="st2" d="M62,55.4c-0.1-0.3-0.5-0.4-0.8-0.3c-0.3,0.1-0.4,0.5-0.3,0.8c0.1,0.3,0.5,0.4,0.8,0.3
			C62,56,62.1,55.7,62,55.4z"/>
		<path class="st2" d="M64.4,54.4c-0.1-0.3-0.5-0.4-0.8-0.3c-0.3,0.1-0.4,0.5-0.3,0.8c0.1,0.3,0.5,0.4,0.8,0.3
			C64.4,55,64.5,54.7,64.4,54.4z"/>
		<path class="st2" d="M65.7,53.8c0.1,0.3,0.5,0.4,0.8,0.3c0.3-0.1,0.4-0.5,0.3-0.8c-0.1-0.3-0.5-0.4-0.8-0.3
			C65.7,53.2,65.5,53.5,65.7,53.8z"/>
		<path class="st2" d="M69.1,52.3c-0.1-0.3-0.5-0.4-0.8-0.3c-0.3,0.1-0.4,0.5-0.3,0.8c0.1,0.3,0.5,0.4,0.8,0.3
			C69.1,53,69.3,52.6,69.1,52.3z"/>
		<path class="st2" d="M60.4,56.7c-0.3,0.1-0.4,0.5-0.3,0.8c0,0,0,0,0,0c0.4,0,0.7,0,1.1,0c0.1-0.1,0.1-0.3,0-0.5
			C61.1,56.7,60.7,56.6,60.4,56.7z"/>
		<path class="st2" d="M62.8,55.7c-0.3,0.1-0.4,0.5-0.3,0.8c0.1,0.3,0.5,0.4,0.8,0.3c0.3-0.1,0.4-0.5,0.3-0.8
			C63.5,55.7,63.1,55.5,62.8,55.7z"/>
		<path class="st2" d="M66,55c-0.1-0.3-0.5-0.4-0.8-0.3c-0.3,0.1-0.4,0.5-0.3,0.8c0.1,0.3,0.5,0.4,0.8,0.3C66,55.6,66.1,55.3,66,55z
			"/>
		<path class="st2" d="M67.6,53.6c-0.3,0.1-0.4,0.5-0.3,0.8c0.1,0.3,0.5,0.4,0.8,0.3c0.3-0.1,0.4-0.5,0.3-0.8
			C68.2,53.7,67.9,53.5,67.6,53.6z"/>
		<path class="st2" d="M70,52.6C70,52.6,70,52.6,70,52.6c-0.3,0.1-0.5,0.5-0.3,0.8c0.1,0.3,0.5,0.4,0.8,0.3c0.1,0,0.1-0.1,0.2-0.1
			C70.4,53.3,70.2,52.9,70,52.6z"/>
		<path class="st2" d="M62.2,57.3c-0.1,0-0.2,0.1-0.2,0.2c0.3,0,0.6,0,0.9,0C62.7,57.3,62.4,57.2,62.2,57.3z"/>
		<path class="st2" d="M64.5,56.3c-0.3,0.1-0.4,0.5-0.3,0.8c0.1,0.3,0.5,0.4,0.8,0.3c0.3-0.1,0.4-0.5,0.3-0.8
			C65.2,56.3,64.8,56.2,64.5,56.3z"/>
		<path class="st2" d="M66.9,55.3c-0.3,0.1-0.4,0.5-0.3,0.8c0.1,0.3,0.5,0.4,0.8,0.3c0.3-0.1,0.4-0.5,0.3-0.8
			C67.6,55.3,67.2,55.2,66.9,55.3z"/>
		<path class="st2" d="M69.3,54.3c-0.1,0-0.2,0.1-0.3,0.2c0.2-0.1,0.5-0.1,0.8-0.2C69.7,54.2,69.5,54.2,69.3,54.3z"/>
		<path class="st2" d="M66.2,56.9c-0.2,0.1-0.4,0.4-0.3,0.6c0.4,0,0.7,0,1.1,0c0-0.1,0-0.2,0-0.3C66.8,56.9,66.5,56.8,66.2,56.9z"/>
	</g>
	<g>
		<path class="st2" d="M48.4,26.6l0.7,1.5c0.2-0.2,0.4-0.4,0.7-0.5l-0.8-1.8C48.7,26,48.6,26.3,48.4,26.6z"/>
		<path class="st2" d="M56.1,4.5c0,0,0,0.1-0.1,0.1c-0.1,0.2-0.3,0.4-0.4,0.6l6.8,15c0.2-0.3,0.3-0.5,0.5-0.8L56.3,4.8
			C56.2,4.7,56.2,4.6,56.1,4.5z"/>
		<path class="st2" d="M49.3,15l4.4,9.7c0.2-0.1,0.5-0.3,0.7-0.4l-4.6-10C49.6,14.5,49.5,14.7,49.3,15z"/>
		<path class="st2" d="M53.8,8.1l6.5,14.4c0.2,0,0.4,0.1,0.6,0.1c0.1-0.1,0.1-0.2,0.2-0.3l-6.8-15C54.2,7.5,54,7.8,53.8,8.1z"/>
		<path class="st2" d="M49.6,24.2c-0.1,0.3-0.3,0.6-0.4,0.8l1,2.1c0.2-0.2,0.4-0.3,0.7-0.5L49.7,24C49.7,24.1,49.7,24.1,49.6,24.2z"
			/>
		<path class="st2" d="M66.2,9.6l-0.9-2c-0.4-0.2-0.8-0.5-1.2-0.7l1.1,2.4C65.4,9.4,65.8,9.5,66.2,9.6z"/>
		<path class="st2" d="M50,23.3l1.4,3c0.2-0.2,0.4-0.3,0.7-0.5l-1.7-3.8C50.2,22.4,50.1,22.8,50,23.3z"/>
		<path class="st2" d="M50.4,20.7l2.1,4.7c0.2-0.2,0.5-0.3,0.7-0.5l-3.4-7.6C50.1,18.3,50.4,19.4,50.4,20.7z"/>
		<path class="st2" d="M67.1,8.6c-0.3-0.1-0.6-0.3-0.9-0.5l0.8,1.7c0.3,0.1,0.7,0.2,1.1,0.4l-0.7-1.5C67.2,8.6,67.1,8.6,67.1,8.6z"
			/>
		<path class="st2" d="M54.7,6.7l6.8,15c0.2-0.3,0.3-0.5,0.5-0.8l-6.8-15C55.1,6.1,54.9,6.4,54.7,6.7z"/>
		<path class="st2" d="M42.3,33.1L43,34c0,0,0.1-0.1,0.3-0.4l-0.5-1.1C42.5,32.8,42.3,33,42.3,33.1z"/>
		<path class="st2" d="M48.9,15.6C48.9,15.6,48.9,15.6,48.9,15.6c0,0.1,0.1,0.2,0.2,0.5L48.9,15.6z"/>
		<path class="st2" d="M50.2,13.6l4.7,10.3c0.2-0.1,0.5-0.3,0.7-0.4l-4.9-10.8C50.5,13.1,50.4,13.3,50.2,13.6z"/>
		<path class="st2" d="M65,12.4l1,2.2c0.2-0.3,0.3-0.5,0.5-0.8L66,12.7C65.7,12.6,65.4,12.5,65,12.4z"/>
		<path class="st2" d="M51.1,12.2l5,11.1c0.3-0.1,0.5-0.2,0.8-0.3l-5.3-11.6C51.5,11.7,51.3,12,51.1,12.2z"/>
		<path class="st2" d="M52,10.8l5.4,12c0.3-0.1,0.5-0.2,0.8-0.2L52.5,10C52.4,10.3,52.2,10.6,52,10.8z"/>
		<path class="st2" d="M68,8.8l0.7,1.6c0.2-0.3,0.4-0.6,0.5-0.8l-0.3-0.8C68.6,8.9,68.3,8.9,68,8.8z"/>
		<path class="st2" d="M64.3,8.9l-1-2.3c-0.3-0.1-0.7-0.2-1-0.3l0.7,1.5C63.5,8.2,64,8.6,64.3,8.9z"/>
		<path class="st2" d="M52.9,9.4l5.9,13c0.3,0,0.6-0.1,0.9-0.1L53.4,8.6C53.3,8.9,53.1,9.2,52.9,9.4z"/>
		<path class="st2" d="M60.6,7.4l-0.4-1c-0.3,0-0.6,0-0.9-0.1l0.5,1C59.9,7.3,60.2,7.3,60.6,7.4z"/>
		<path class="st2" d="M45.6,30.5l0.2,0.5c0.2-0.2,0.4-0.4,0.6-0.6l-0.3-0.6C46,30.1,45.8,30.3,45.6,30.5z"/>
		<path class="st2" d="M46.6,29.3l0.3,0.7c0.2-0.2,0.4-0.4,0.6-0.6l-0.4-0.8C46.9,28.8,46.8,29.1,46.6,29.3z"/>
		<path class="st2" d="M61.4,7.4c0.3,0,0.5,0,0.8,0.1l-0.5-1.1c-0.2,0-0.4,0-0.7,0c-0.1,0-0.1,0-0.2,0l0.5,1
			C61.2,7.4,61.3,7.4,61.4,7.4z"/>
		<path class="st2" d="M63.7,11.7c-0.5-0.5-0.7-0.8-1.1-1l2.4,5.4c0.2-0.3,0.3-0.5,0.5-0.8L64.2,12C64,11.9,63.9,11.8,63.7,11.7z"/>
		<path class="st2" d="M47.5,28l0.5,1c0.2-0.2,0.4-0.4,0.6-0.6L48,27.2C47.9,27.5,47.7,27.8,47.5,28z"/>
		<path class="st2" d="M43.9,32c-0.2,0.1-0.4,0.2-0.6,0.3l0.4,0.9c0.2-0.2,0.4-0.4,0.6-0.6L44,31.9C44,31.9,43.9,31.9,43.9,32z"/>
		<path class="st2" d="M60.8,10l3.4,7.5c0.2-0.3,0.3-0.5,0.5-0.8L62,10.5C61.7,10.4,61.3,10.2,60.8,10z"/>
		<path class="st2" d="M44.5,31.5l0.2,0.5c0.2-0.2,0.4-0.4,0.6-0.6L45.1,31C44.9,31.2,44.7,31.4,44.5,31.5z"/>
		<path class="st2" d="M58.3,7.6c0-0.3,0.3-0.3,0.6-0.4l-0.5-1.2C58,6,57.6,5.8,57.3,5.6l6,13.3c0.2-0.3,0.3-0.5,0.5-0.8l-3.9-8.7
			C59.1,8.7,58.3,8,58.3,7.6z"/>
		<path class="st2" d="M70.1,8.1c-0.1,0.2-0.4,0.3-0.7,0.5L69.6,9C69.8,8.7,70,8.4,70.1,8.1c0.1-0.1,0.2-0.2,0.2-0.3
			C70.3,7.9,70.3,8,70.1,8.1z"/>
	</g>
	<g>
		<path class="st0" d="M72.3,3.2h-0.4H58.3c-0.1,0-0.2,0-0.2,0c-0.4,0-0.7,0.1-1,0.3c0,0,0,0,0,0c0,0,0,0,0,0c-0.4,0.2-0.8,1-0.8,1
			c0.1,0.1,0.1,0.2,0.2,0.3L63,19.4c0.1-0.2,0.2-0.4,0.4-0.6l-6-13.3C57.6,5.8,58,6,58.4,6.1L59,7.3c-0.4,0-0.6,0.1-0.6,0.4
			c0,0.4,0.7,1.1,1.6,1.7l3.9,8.7c0.1-0.2,0.2-0.4,0.4-0.6L60.8,10c0.5,0.3,0.9,0.5,1.1,0.5l2.8,6.1c0.1-0.2,0.2-0.4,0.4-0.6
			l-2.4-5.4c0.3,0.2,0.6,0.5,1.1,1c0.1,0.1,0.3,0.2,0.5,0.3l1.4,3.2c0.1-0.2,0.2-0.4,0.4-0.6l-1-2.2c0.4,0.1,0.7,0.2,1,0.3l0.5,1.1
			c0.1-0.2,0.2-0.4,0.4-0.6c0.2-0.3,0.4-0.5,0.5-0.8c0.1-0.2,0.2-0.4,0.4-0.6c0.2-0.3,0.4-0.6,0.5-0.8c0.1-0.2,0.2-0.4,0.4-0.6
			L68,8.8c0.3,0,0.6,0,0.9,0l0.3,0.8c0.1-0.2,0.2-0.4,0.4-0.6l-0.2-0.4c0.3-0.2,0.5-0.3,0.7-0.5c0.1-0.1,0.2-0.3,0.2-0.3h0l1.9-2.9
			c0,0,0.1-0.1,0.1-0.1l0,0c0.1-0.2,0.2-0.4,0.3-0.5C72.9,3.9,73.1,3.2,72.3,3.2z M59.6,7.3l-0.5-1c0.3,0.1,0.6,0.1,0.9,0.1l0.4,1
			C60.2,7.3,59.9,7.3,59.6,7.3z M61.4,7.4c-0.1,0-0.1,0-0.2,0l-0.5-1c0.1,0,0.1,0,0.2,0c0.2,0,0.4,0,0.7,0l0.5,1.1
			C61.9,7.4,61.6,7.3,61.4,7.4z M62.9,7.8l-0.7-1.5c0.4,0,0.7,0.1,1,0.3l1,2.3C64,8.6,63.5,8.2,62.9,7.8z M65.2,9.3l-1.1-2.4
			c0.4,0.2,0.8,0.4,1.2,0.7l0.9,2C65.8,9.5,65.4,9.4,65.2,9.3z M66.9,9.8l-0.8-1.7c0.3,0.2,0.6,0.3,0.9,0.5c0.1,0,0.2,0.1,0.2,0.1
			l0.7,1.5C67.6,10,67.2,9.9,66.9,9.8z"/>
		<path class="st0" d="M55.3,5.8l6.8,15c0.1-0.2,0.2-0.4,0.4-0.6l-6.8-15C55.5,5.5,55.4,5.6,55.3,5.8z"/>
		<path class="st0" d="M54.4,7.2l6.8,15c0.1-0.2,0.2-0.4,0.4-0.6l-6.8-15C54.6,6.9,54.5,7,54.4,7.2z"/>
		<path class="st0" d="M53.4,8.6l6.3,13.8c0.2,0,0.4,0,0.7,0L53.8,8.1C53.7,8.2,53.6,8.4,53.4,8.6z"/>
		<path class="st0" d="M52.5,10l5.7,12.6c0.2,0,0.4-0.1,0.6-0.1l-5.9-13C52.8,9.6,52.7,9.8,52.5,10z"/>
		<path class="st0" d="M51.6,11.4L56.9,23c0.2-0.1,0.4-0.1,0.6-0.2l-5.4-12C51.9,11,51.8,11.2,51.6,11.4z"/>
		<path class="st0" d="M50.7,12.8l4.9,10.8c0.2-0.1,0.4-0.2,0.5-0.2l-5-11.1C51,12.4,50.9,12.6,50.7,12.8z"/>
		<path class="st0" d="M49.8,14.2l4.6,10c0.2-0.1,0.3-0.2,0.5-0.3l-4.7-10.3C50.1,13.8,49.9,14,49.8,14.2z"/>
		<path class="st0" d="M48.9,15.6l0.2,0.5c0.2,0.3,0.4,0.7,0.6,1.3l3.4,7.6c0.2-0.1,0.3-0.2,0.5-0.3L49.3,15
			C49.2,15.2,49,15.4,48.9,15.6z"/>
		<path class="st0" d="M50.3,21.9l1.7,3.8c0.2-0.1,0.3-0.2,0.5-0.3l-2.1-4.7C50.4,21.1,50.3,21.5,50.3,21.9z"/>
		<path class="st0" d="M49.7,24l1.2,2.6c0.2-0.1,0.3-0.2,0.5-0.4l-1.4-3C49.9,23.5,49.8,23.8,49.7,24z"/>
		<path class="st0" d="M48.9,25.7l0.8,1.8c0.2-0.1,0.3-0.3,0.5-0.4l-1-2.1C49.1,25.3,49,25.5,48.9,25.7z"/>
		<path class="st0" d="M48,27.2l0.6,1.3c0.2-0.1,0.3-0.3,0.5-0.4l-0.7-1.5C48.3,26.8,48.2,27,48,27.2z"/>
		<path class="st0" d="M47.1,28.6l0.4,0.8c0.1-0.1,0.3-0.3,0.5-0.4l-0.5-1C47.4,28.2,47.3,28.4,47.1,28.6z"/>
		<path class="st0" d="M46.2,29.8l0.3,0.6c0.1-0.1,0.3-0.3,0.4-0.4l-0.3-0.7C46.4,29.5,46.3,29.7,46.2,29.8z"/>
		<path class="st0" d="M45.1,31l0.2,0.5c0.1-0.1,0.3-0.3,0.4-0.4l-0.2-0.5C45.4,30.7,45.3,30.8,45.1,31z"/>
		<path class="st0" d="M44,31.9l0.3,0.6c0.1-0.1,0.3-0.3,0.4-0.4l-0.2-0.5C44.3,31.7,44.2,31.8,44,31.9z"/>
		<path class="st0" d="M42.8,32.5l0.5,1.1c0.1-0.1,0.3-0.3,0.4-0.5l-0.4-0.9C43.1,32.3,42.9,32.4,42.8,32.5z"/>
	</g>
	<path class="st1" d="M41.8,32.3l0.6,0.8c-0.1-0.1,0.1-0.3,0.4-0.6c0.1-0.1,0.3-0.2,0.5-0.3c0.2-0.1,0.4-0.2,0.6-0.3
		c0,0,0.1,0,0.2-0.1c0.1-0.1,0.3-0.2,0.5-0.3c0.2-0.2,0.4-0.3,0.6-0.6c0.1-0.1,0.3-0.3,0.4-0.4c0.2-0.2,0.4-0.4,0.6-0.7
		c0.1-0.2,0.3-0.3,0.4-0.5c0.2-0.2,0.4-0.5,0.6-0.8c0.1-0.2,0.3-0.4,0.4-0.6c0.2-0.3,0.4-0.5,0.5-0.8c0.1-0.2,0.2-0.4,0.4-0.6
		c0.2-0.3,0.3-0.6,0.5-0.9c0.1-0.2,0.2-0.4,0.3-0.7c0.1-0.3,0.3-0.6,0.4-0.8c0,0,0-0.1,0.1-0.1c0.1-0.3,0.2-0.5,0.3-0.8
		c0.1-0.5,0.2-0.9,0.3-1.3c0.1-0.4,0.1-0.8,0.1-1.2c0-1.3-0.3-2.5-0.6-3.4c-0.2-0.6-0.4-1-0.6-1.3c-0.2-0.3-0.3-0.5-0.3-0.5
		c0,0,0,0,0,0.1l-0.5,0.7L48,17l-0.5,0.8l-0.4,0.6l-0.5,0.8l-0.4,0.6l-0.5,0.8l-0.4,0.6L44.8,22l-0.4,0.6l-0.5,0.8l-0.4,0.6L43,24.7
		l-0.4,0.6l-0.5,0.8l-0.4,0.6l-0.5,0.8l-0.4,0.6l-0.5,0.8l-0.4,0.6l0,0l0.1,0.1L41.8,32.3z"/>
	<path class="st1" d="M55.8,30.7l5.2-8.2c-0.2-0.1-0.4-0.1-0.6-0.1c-0.2,0-0.4,0-0.7,0c-0.3,0-0.6,0-0.9,0.1c-0.2,0-0.4,0.1-0.6,0.1
		c-0.3,0.1-0.5,0.1-0.8,0.2c-0.2,0.1-0.4,0.1-0.6,0.2c-0.3,0.1-0.5,0.2-0.8,0.3c-0.2,0.1-0.4,0.2-0.5,0.2c-0.2,0.1-0.5,0.2-0.7,0.4
		c-0.2,0.1-0.3,0.2-0.5,0.3c-0.2,0.1-0.5,0.3-0.7,0.4c-0.2,0.1-0.3,0.2-0.5,0.3c-0.2,0.2-0.5,0.3-0.7,0.5c-0.2,0.1-0.3,0.2-0.5,0.3
		c-0.2,0.2-0.5,0.3-0.7,0.5c-0.2,0.1-0.3,0.2-0.5,0.4c-0.2,0.2-0.4,0.3-0.7,0.5c-0.2,0.1-0.3,0.3-0.5,0.4c-0.2,0.2-0.4,0.4-0.7,0.5
		c-0.2,0.1-0.3,0.3-0.5,0.4c-0.2,0.2-0.4,0.4-0.6,0.6c-0.2,0.1-0.3,0.3-0.5,0.4c-0.2,0.2-0.4,0.4-0.6,0.6c-0.2,0.1-0.3,0.3-0.4,0.4
		c-0.2,0.2-0.4,0.4-0.6,0.6c-0.2,0.1-0.3,0.3-0.4,0.4c-0.2,0.2-0.4,0.4-0.6,0.6c-0.2,0.2-0.3,0.3-0.4,0.4c-0.2,0.2-0.4,0.5-0.6,0.6
		c-0.2,0.2-0.3,0.3-0.4,0.5C43.1,33.9,43,34,43,34l4.2,6.1l0-0.4l-0.1-1l-0.2-1.4l-0.1-0.9l-0.2-1.2c0,0,0,0,0.1,0
		c0.3,0.2,0.6,0.4,1,0.5c0.2,0.1,0.4,0.2,0.7,0.3c0.3,0.1,0.6,0.2,0.9,0.3c0.3,0.1,0.6,0.2,0.9,0.3c0.3,0.1,0.6,0.2,0.9,0.3
		c0.2,0.1,0.5,0.1,0.7,0.2c0.3,0.1,0.7,0.2,1,0.3c0.2,0.1,0.5,0.1,0.7,0.2c0.4,0.1,0.8,0.2,1.1,0.2c0.2,0,0.4,0.1,0.6,0.1
		c0.3,0.1,0.7,0.1,1,0.2c1.9,0.3,3.3,0.4,3.7,0.4c0.4,0,0.6,0.5,0.8,1c0.1,0.3,0.2,0.7,0.3,1.1c0.1,0.4,0.2,0.9,0.2,1.3
		c0,0.2,0.1,0.4,0.1,0.5c0,0.1,0,0.3,0.1,0.4c0.2,0.9,0.4,1.8,0.7,2.8c0.1,0.2,0.2,0.4,0.2,0.6c0.3,0.6,0.6,1.3,1.1,2
		c0.1,0.2,0.3,0.4,0.5,0.6c0.3,0.3,0.6,0.5,0.9,0.7c0.2,0.1,0.5,0.3,0.7,0.4c0.3,0.1,0.5,0.2,0.8,0.3c0.3,0.1,0.6,0.2,0.9,0.2
		c0.4,0.1,0.8,0.1,1,0.2c0.3,0,0.5,0.1,0.6,0.1c0,0,0.1,0,0.1,0C62.6,41.3,55.8,30.7,55.8,30.7z"/>
</g>
</svg>
