<?xml version="1.0" encoding="utf-8"?>
<!-- Generator: Adobe Illustrator 22.1.0, SVG Export Plug-In . SVG Version: 6.00 Build 0)  -->
<svg version="1.1" id="Layer_1" xmlns="http://www.w3.org/2000/svg" xmlns:xlink="http://www.w3.org/1999/xlink" x="0px" y="0px"
	 viewBox="0 0 73 73" style="enable-background:new 0 0 73 73;" xml:space="preserve">
<style type="text/css">
	.st0{fill:#FFFFFF;}
	.st1{fill:#7FB056;}
	.st2{fill:#C0CD06;}
	.st3{fill:#54B292;}
	.st4{fill:none;stroke:#004E42;stroke-width:2.9087;stroke-miterlimit:10;}
	.st5{font-family:'GothamBook';}
	.st6{font-size:17.2715px;}
</style>
<g>
	<circle class="st0" cx="36.5" cy="36.4" r="35.4"/>
	<g>
		<g>
			<path class="st1" d="M36.4,7.1C20.3,7.1,7.2,20.2,7.2,36.3c0,16.1,13.1,29.2,29.2,29.2c16.1,0,29.2-13.1,29.2-29.2
				C65.6,20.2,52.5,7.1,36.4,7.1z M36.4,61.8c-14.1,0-25.5-11.5-25.5-25.5c0-14.1,11.5-25.5,25.5-25.5s25.5,11.5,25.5,25.5
				C61.9,50.4,50.4,61.8,36.4,61.8z"/>
		</g>
		<g>
			<path class="st2" d="M36.3,23.6c0,0,4.7,3.9,12,3c0,0,2.8,20.1-12,25.7"/>
			<path class="st3" d="M36.3,23.6c0,0-4.7,3.9-12,3c0,0-2.8,20.1,12,25.7"/>
			<path class="st4" d="M36.2,18.8c0,0-6.3,5.1-16.1,3.9c0,0-3.6,26.8,16.1,34.2C56,49.5,52.4,22.7,52.4,22.7
				C42.5,23.9,36.2,18.8,36.2,18.8z"/>
			<text transform="matrix(1 0 0 1 31.3848 42.8929)" class="st0 st5 st6">7</text>
		</g>
	</g>
</g>
</svg>
