<?xml version="1.0" encoding="utf-8"?>
<!-- Generator: Adobe Illustrator 22.1.0, SVG Export Plug-In . SVG Version: 6.00 Build 0)  -->
<svg version="1.1" id="Layer_1" xmlns="http://www.w3.org/2000/svg" xmlns:xlink="http://www.w3.org/1999/xlink" x="0px" y="0px"
	 viewBox="0 0 73 73" style="enable-background:new 0 0 73 73;" xml:space="preserve">
<style type="text/css">
	.st0{fill:#FFFFFF;}
	.st1{fill:#7FB056;}
	.st2{fill:#007775;}
	.st3{fill:#54B292;}
	.st4{fill:#004E42;}
	.st5{fill:#C0CD06;}
</style>
<g>
	<circle class="st0" cx="36.6" cy="35.9" r="35.4"/>
	<g>
		<path class="st1" d="M36.3,7.2C20.2,7.2,7.1,20.2,7.1,36.4c0,16.1,13.1,29.2,29.2,29.2c16.1,0,29.2-13.1,29.2-29.2
			C65.5,20.2,52.4,7.2,36.3,7.2z M36.1,62.4L36.1,62.4L36.1,62.4c-14.3,0-25.9-11.6-26-25.9c0-14.3,11.6-25.9,25.9-25.9
			c14.3,0,26,11.6,26,25.9C62,50.7,50.4,62.4,36.1,62.4z"/>
		<path class="st2" d="M31.5,36.8c0,0.5-0.1,0.9-0.2,1.4l8.8,5.4c0.9-0.8,2.2-1.4,3.5-1.4c3,0,5.4,2.5,5.4,5.4c0,3-2.4,5.4-5.4,5.4
			c-3,0-5.4-2.5-5.4-5.4c0-0.5,0.1-0.9,0.2-1.4l-8.8-5.4c-0.9,0.8-2.2,1.3-3.5,1.3c-3,0-5.4-2.4-5.4-5.4c0-3,2.5-5.4,5.4-5.4
			c1.4,0,2.6,0.5,3.5,1.3l8.8-5.4c-0.1-0.4-0.2-0.9-0.2-1.4c0-3,2.5-5.4,5.4-5.4c3,0,5.4,2.5,5.4,5.4c0,3-2.4,5.4-5.4,5.4
			c-1.4,0-2.6-0.5-3.5-1.4l-8.8,5.4C31.5,35.8,31.5,36.3,31.5,36.8z"/>
		<circle class="st3" cx="43.6" cy="47.9" r="5.8"/>
		<circle class="st4" cx="25.6" cy="36.9" r="5.8"/>
		<circle class="st5" cx="43.6" cy="25.9" r="5.8"/>
	</g>
</g>
</svg>
