<?xml version="1.0" encoding="utf-8"?>
<!-- Generator: Adobe Illustrator 22.1.0, SVG Export Plug-In . SVG Version: 6.00 Build 0)  -->
<svg version="1.1" xmlns="http://www.w3.org/2000/svg" xmlns:xlink="http://www.w3.org/1999/xlink" x="0px" y="0px"
	 viewBox="0 0 26 26" style="enable-background:new 0 0 26 26;" xml:space="preserve">
<style type="text/css">
	.st0{display:none;}
	.st1{display:inline;}
	.st2{fill:#FFFFFF;}
	.st3{display:inline;fill:#231F20;}
	.st4{fill:#FFFFFF;stroke:#FFFFFF;stroke-width:0.5;stroke-miterlimit:10;}
	.st5{fill:none;stroke:#FFFFFF;stroke-width:2;stroke-linecap:round;stroke-miterlimit:10;}
</style>
<g id="Layer_2" class="st0">
	<g class="st1">
		<g>
			<path class="st2" d="M-109.1,145c-2.2-5.9-8.8-9-14.7-6.8l-43.2,16c-5.9,2.2-9,8.8-6.8,14.7c1.7,4.6,6.1,7.5,10.7,7.5
				c1.3,0,2.7-0.2,4-0.7l43.2-16C-109.9,157.5-106.9,150.9-109.1,145z"/>
		</g>
	</g>
	<g class="st1">
		<g>
			<path class="st2" d="M-167.5,38.6c-2.2-5.9-8.8-9-14.7-6.8l-26.6,9.9c-5.9,2.2-9,8.8-6.8,14.7c1.7,4.6,6.1,7.5,10.7,7.5
				c1.3,0,2.7-0.2,4-0.7l26.6-9.9C-168.3,51.2-165.3,44.6-167.5,38.6z"/>
		</g>
	</g>
	<g class="st1">
		<g>
			<path class="st2" d="M-200.5,125.4c-2.2-5.9-8.8-9-14.7-6.8L-235,126c-5.9,2.2-9,8.8-6.8,14.7c1.7,4.6,6.1,7.5,10.7,7.5
				c1.3,0,2.7-0.2,4-0.7l19.8-7.3C-201.3,137.9-198.3,131.3-200.5,125.4z"/>
		</g>
	</g>
</g>
<g id="Layer_3" class="st0">
	<rect x="-3.6" y="-0.1" class="st3" width="63.9" height="25.9"/>
</g>
<g id="Layer_1">
	<g>
		<g>
			<path class="st4" d="M25.3,10.6l-5.6-6.2C19.5,4.2,19.2,4,18.9,4c-0.3,0-0.6,0.1-0.8,0.3L6.8,14.4c-0.2,0.2-0.4,0.5-0.4,0.8
				c0,0.3,0.1,0.6,0.3,0.8l5.6,6.2c0.2,0.2,0.5,0.4,0.8,0.4c0.2,0,0.3,0,0.5-0.1c0.1,0,0.2-0.1,0.3-0.2l11.3-10.1l0,0
				C25.6,11.8,25.7,11.1,25.3,10.6z M17.9,6l-1.8,7.5l-7.6,0.9L17.9,6z M12.8,21l-4.8-5.4l6-0.7L12.8,21z M14,20.7l1.1-6l1.6-0.2
				c0,0,0.1,0,0.1,0c0.2-0.1,0.3-0.2,0.3-0.4l0.4-1.5l6.1-0.4L14,20.7z M17.8,11.4l1.4-5.9l4.8,5.4L17.8,11.4z"/>
		</g>
	</g>
	<line class="st5" x1="5.5" y1="8.4" x2="9" y2="8.4"/>
	<line class="st5" x1="1.1" y1="13" x2="4.9" y2="13"/>
	<line class="st5" x1="1.8" y1="18.3" x2="5.2" y2="18.3"/>
</g>
<g id="Layer_4" class="st0">
	<g class="st1">
		<g>
			<path class="st2" d="M28.7,13.5L25,3.7c-0.1-0.4-0.4-0.6-0.7-0.8c-0.3-0.2-0.7-0.2-1.1,0L5.5,9.4c-0.4,0.1-0.6,0.4-0.8,0.7
				c-0.2,0.3-0.2,0.7,0,1.1L8.3,21c0.1,0.4,0.4,0.6,0.7,0.8C9.2,21.9,9.4,22,9.6,22c0.2,0,0.3,0,0.5-0.1l17.7-6.6h0
				C28.6,15.1,28.9,14.2,28.7,13.5z M22.2,4.7l-5.5,7.9l-9.3-2.4L22.2,4.7z M9.4,19.8l-3.1-8.5l7.3,1.9L9.4,19.8z M10.9,20.1l4-6.5
				l1.9,0.5c0.1,0,0.1,0,0.2,0c0.2,0,0.4-0.1,0.6-0.3l1.1-1.6l7.3,2.3L10.9,20.1z M19.6,11l4.3-6.2l3.2,8.5L19.6,11z"/>
		</g>
	</g>
	<g class="st1">
		<g>
			<path class="st2" d="M5.2,21.2c-0.1-0.4-0.5-0.6-0.9-0.4l-2.7,1c-0.4,0.1-0.6,0.5-0.4,0.9c0.1,0.3,0.4,0.5,0.7,0.5
				c0.1,0,0.2,0,0.2,0l2.7-1C5.2,22,5.4,21.6,5.2,21.2z"/>
		</g>
	</g>
	<g class="st1">
		<g>
			<path class="st2" d="M1.6,14.6c-0.1-0.4-0.5-0.6-0.9-0.4L-1,14.8c-0.4,0.1-0.6,0.5-0.4,0.9c0.1,0.3,0.4,0.5,0.7,0.5
				c0.1,0,0.2,0,0.2,0l1.7-0.6C1.5,15.4,1.7,15,1.6,14.6z"/>
		</g>
	</g>
	<g class="st1">
		<g>
			<path class="st2" d="M-0.5,20c-0.1-0.4-0.5-0.6-0.9-0.4L-2.6,20C-3,20.2-3.2,20.6-3,21c0.1,0.3,0.4,0.5,0.7,0.5
				c0.1,0,0.2,0,0.2,0l1.2-0.5C-0.5,20.8-0.3,20.4-0.5,20z"/>
		</g>
	</g>
</g>
</svg>
