<?xml version="1.0" encoding="utf-8"?>
<!-- Generator: Adobe Illustrator 22.1.0, SVG Export Plug-In . SVG Version: 6.00 Build 0)  -->
<svg version="1.1" id="Layer_2" xmlns="http://www.w3.org/2000/svg" xmlns:xlink="http://www.w3.org/1999/xlink" x="0px" y="0px"
	 viewBox="0 0 73 73" style="enable-background:new 0 0 73 73;" xml:space="preserve">
<style type="text/css">
	.st0{fill:#FFFFFF;}
	.st1{clip-path:url(#SVGID_2_);fill:#FFFFFF;}
</style>
<g>
	<g>
		<path class="st0" d="M36.1,7.2C19.9,7.2,6.9,20.2,6.9,36.4c0,16.1,13.1,29.2,29.2,29.2c16.1,0,29.2-13.1,29.2-29.2
			C65.3,20.2,52.2,7.2,36.1,7.2 M35.9,62.4L35.9,62.4L35.9,62.4c-14.3,0-25.9-11.6-26-25.9c0-14.3,11.6-25.9,25.9-25.9
			c14.3,0,26,11.6,26,25.9C61.8,50.7,50.2,62.4,35.9,62.4"/>
		<g>
			<defs>
				<path id="SVGID_1_" d="M13.7,36.4c0,12.4,10,22.4,22.4,22.4s22.4-10,22.4-22.4c0-12.4-10-22.4-22.4-22.4S13.7,24.1,13.7,36.4"/>
			</defs>
			<clipPath id="SVGID_2_">
				<use xlink:href="#SVGID_1_"  style="overflow:visible;"/>
			</clipPath>
			<path class="st1" d="M35.8,38.1c0.2,0.1,0.3,0.2,0.5,0.2c0.2,0,0.4-0.1,0.5-0.2c0.3-0.2,7.6-5.1,10.3-10.1c0.7-1,1-2.2,1-3.5
				c0-3.5-2.9-6.4-6.4-6.4c-2.6,0-4.5,2.1-5.5,3.3c-1-1.1-2.9-3.3-5.5-3.3c-3.5,0-6.4,2.9-6.4,6.4c0,1.2,0.4,2.4,1,3.5
				C28.2,33,35.5,37.9,35.8,38.1"/>
			<path class="st1" d="M52.7,37.5c-2.3-1.3-4.2,0.6-4.9,1.4c-1.5,1.6-3.4,3.1-4.3,3.9c-0.4-0.2-0.8-0.3-1.3-0.3
				c-2.8-0.2-7.3-0.7-8.4-1.3c-1.2-0.7-2.2-1.4-3-2c-2.4-1.8-4.4-3.2-9.1-3.2c-1.4,0-2.6,0.4-3.8,0.8c-1.2,0.4-2.3,0.7-3.7,0.7
				c-1.5,0-2.8,1.2-2.8,2.8v7c0,1.5,1.2,2.8,2.8,2.8c2.6,0,6.7,0.1,7.6,0.4c1.6,0.5,5.4,2.8,6.8,3.6c0,0,0,0,0.1,0
				c0.5,0.3,1,0.4,1.6,0.4h12.7c1.3,0,2.8-1.2,3.4-2.1c1.7-2.8,7.7-10.3,7.7-10.4c0.1-0.1,0.1-0.1,0.1-0.2
				C54.9,40.3,54.3,38.5,52.7,37.5 M42.9,52.1H30.2c-0.1,0-0.2,0-0.3-0.1c-0.5-0.3-5.1-3.1-7.3-3.9c-1.6-0.5-7.3-0.6-8.4-0.6
				c-0.1,0-0.3-0.1-0.3-0.3v-7c0-0.1,0.1-0.3,0.3-0.3c1.8,0,3.2-0.5,4.5-0.9c1.1-0.3,2-0.6,3-0.6c4,0,5.4,1,7.7,2.7
				c0.9,0.6,1.9,1.4,3.2,2.1c0.7,0.4,1.7,0.7,2.9,0.9c2.6,0.5,5.8,0.7,6.6,0.7c0,0,0,0,0.1,0c0.4,0,0.8,0.3,0.8,0.8
				c0,0.4-0.3,0.7-0.8,0.7c0,0,0,0-0.1,0l-9.5,0.5c-0.8,0-2.5-1.3-3.7-2.1c-0.3-0.2-0.6-0.4-0.9-0.6c-0.6-0.4-1.3-0.8-1.8-1.1
				c-0.6-0.3-1.4-0.1-1.7,0.6c-0.3,0.6-0.1,1.4,0.6,1.7c0.6,0.3,1.5,0.9,2.4,1.6c1.9,1.3,3.7,2.6,5.2,2.6c0,0,0,0,0.1,0l9.5-0.5
				c1.8,0,3.2-1.5,3.2-3.3c0-0.4-0.1-0.8-0.2-1.1c1-0.8,2.8-2.4,4.4-4c1.1-1.1,1.5-1.2,1.9-1c0.3,0.2,0.6,0.6,0.4,1
				c-0.8,1-6.1,7.8-7.8,10.5C43.9,51.5,43.2,52,42.9,52.1"/>
		</g>
	</g>
</g>
</svg>
