<?xml version="1.0" encoding="utf-8"?>
<!-- Generator: Adobe Illustrator 22.1.0, SVG Export Plug-In . SVG Version: 6.00 Build 0)  -->
<svg version="1.1" xmlns="http://www.w3.org/2000/svg" xmlns:xlink="http://www.w3.org/1999/xlink" x="0px" y="0px"
	 viewBox="0 0 73 73" style="enable-background:new 0 0 73 73;" xml:space="preserve">
<style type="text/css">
	.st0{display:none;}
	.st1{display:inline;}
	.st2{fill:#FFFFFF;}
	.st3{fill:none;stroke:#FFFFFF;stroke-width:2;stroke-miterlimit:10;}
</style>
<g id="Layer_2" class="st0">
	<rect x="-1" y="-1" class="st1" width="76" height="75"/>
</g>
<g id="Layer_3">
	<g>
		<path class="st2" d="M38.4,24.1c1.8,0,3.2,1.5,3.2,3.3c0,1.8-1.5,3.3-3.2,3.3c-1.8,0-3.2-1.5-3.2-3.3
			C35.1,25.6,36.6,24.1,38.4,24.1"/>
		<path class="st2" d="M42.8,46.6c-1.1,1.2-2.5,2-4.2,2.1c-0.9,0.1-1.9,0.1-2.8-0.1c-1.7-0.5-2.8-2-2.6-3.7c0.2-1.7,0.5-3.4,0.8-5.1
			c0.2-1.5,0.5-2.9,0.8-4.4c0-0.2,0-0.5,0-0.7c-0.1-0.4-0.3-0.7-0.7-0.8c-0.2,0-0.5,0-0.7-0.1c-0.3-0.1-0.7-0.2-1-0.4
			c-0.4-0.3-0.4-1,0.1-1.2c0.3-0.1,0.5-0.2,0.8-0.2c1.1,0,2.1,0,3.2,0v0c1.1,0,2.2,0,3.2,0c0.7,0,1,0.3,1.2,1c0.1,0.6,0,1.2-0.1,1.7
			c-0.5,2.4-0.9,4.9-1.3,7.3c-0.1,0.7-0.3,1.5-0.4,2.3c0,0.1,0,0.3,0,0.4c0,1.5,1,1.7,2,1.2c0.3-0.1,0.6-0.3,0.9-0.5
			c0.5-0.3,0.8-0.3,1,0C43.1,45.8,43.1,46.2,42.8,46.6"/>
	</g>
	<path class="st3" d="M53.7,59.2H21.4c-3.9,0-7.1-3.2-7.1-7.1V20.8c0-3.9,3.2-7.1,7.1-7.1h32.3c3.9,0,7.1,3.2,7.1,7.1V52
		C60.8,56,57.6,59.2,53.7,59.2z"/>
</g>
<g id="Layer_1" class="st0">
	
		<image style="display:inline;overflow:visible;" width="49" height="49" xlink:href="icon-about-exo.png"  transform="matrix(1 0 0 1 12 12)">
	</image>
</g>
</svg>
