<?xml version="1.0" encoding="utf-8"?>
<!-- Generator: Adobe Illustrator 22.1.0, SVG Export Plug-In . SVG Version: 6.00 Build 0)  -->
<svg version="1.1" id="Layer_1" xmlns="http://www.w3.org/2000/svg" xmlns:xlink="http://www.w3.org/1999/xlink" x="0px" y="0px"
	 viewBox="0 0 71 71" style="enable-background:new 0 0 71 71;" xml:space="preserve">
<style type="text/css">
	.st0{fill:#FFFFFF;}
	.st1{fill:#004E42;}
	.st2{fill:#C0CD06;}
	.st3{fill:#54B292;}
	.st4{fill:#7FB056;}
	.st5{fill:#007775;}
</style>
<g>
	<circle class="st0" cx="35.2" cy="35.2" r="34.2"/>
	<g>
		<path class="st1" d="M49.4,34h8.4c-0.2-3.3-1.1-6.6-2.6-9.6H48C48.8,27.4,49.3,30.7,49.4,34z"/>
		<path class="st2" d="M22.8,34h11.1v-9.6h-9.7C23.4,27.4,22.9,30.7,22.8,34z"/>
		<path class="st2" d="M26.5,18.7c-0.6,1.1-1.1,2.2-1.6,3.5h8.9v-9.9C31.2,12.9,28.6,15.1,26.5,18.7z"/>
		<path class="st2" d="M26.5,51.5c2,3.6,4.6,5.9,7.3,6.3v-9.7H25C25.5,49.3,26,50.5,26.5,51.5z"/>
		<path class="st2" d="M24.3,45.9h9.6v-9.7H22.8C22.9,39.6,23.4,42.9,24.3,45.9z"/>
		<path class="st3" d="M24.6,17.7c0.9-1.6,1.9-3,3.1-4.2c-3.3,1.1-6.3,3-8.8,5.5c-1,1-1.9,2.1-2.7,3.3h6.5
			C23.2,20.6,23.9,19.1,24.6,17.7z"/>
		<path class="st3" d="M21.9,24.4h-7.1c-1.6,2.9-2.5,6.2-2.6,9.6h8.4C20.7,30.7,21.1,27.4,21.9,24.4z"/>
		<path class="st3" d="M20.6,36.2h-8.4c0.2,3.4,1.1,6.7,2.7,9.7H22C21.2,42.9,20.7,39.6,20.6,36.2z"/>
		<path class="st3" d="M22.7,48.1h-6.4c0.8,1.1,1.6,2.2,2.6,3.1c2.5,2.5,5.5,4.4,8.8,5.5c-1.1-1.1-2.2-2.6-3.1-4.2
			C23.9,51.2,23.2,49.7,22.7,48.1z"/>
		<path class="st1" d="M48,45.9h7.1c1.6-3,2.5-6.3,2.7-9.7h-8.4C49.3,39.7,48.8,42.9,48,45.9z"/>
		<path class="st1" d="M45.3,52.5c-0.9,1.6-1.9,3-3.1,4.2c3.3-1.1,6.3-3,8.9-5.5c0.9-0.9,1.8-2,2.6-3.1h-6.4
			C46.7,49.7,46.1,51.2,45.3,52.5z"/>
		<path class="st4" d="M35.2,6.9C19.6,6.9,7,19.5,7,35c0,15.5,12.6,28.1,28.1,28.1c15.5,0,28.1-12.6,28.1-28.1
			C63.3,19.5,50.7,6.9,35.2,6.9z M35,60.1L35,60.1L35,60.1c-13.8,0-25-11.2-25-25c0-13.8,11.2-25,25-25c13.8,0,25,11.2,25,25
			C60,48.9,48.8,60.1,35,60.1z"/>
		<path class="st1" d="M47.3,22.3h6.5C53,21.1,52.1,20,51.1,19c-2.5-2.5-5.5-4.4-8.9-5.5c1.1,1.1,2.2,2.6,3.1,4.2
			C46.1,19.1,46.8,20.6,47.3,22.3z"/>
		<path class="st5" d="M45,48.1h-8.9v9.7c2.7-0.5,5.3-2.7,7.3-6.3C44,50.5,44.5,49.3,45,48.1z"/>
		<path class="st5" d="M47.2,36.2H36.1v9.7h9.6C46.6,42.9,47.1,39.6,47.2,36.2z"/>
		<path class="st5" d="M45.7,24.4h-9.7V34h11.1C47.1,30.7,46.6,27.4,45.7,24.4z"/>
		<path class="st5" d="M43.4,18.7c-2-3.6-4.6-5.9-7.3-6.3v9.9H45C44.6,21,44,19.8,43.4,18.7z"/>
	</g>
</g>
</svg>
