<?xml version="1.0" encoding="utf-8"?>
<!-- Generator: Adobe Illustrator 22.1.0, SVG Export Plug-In . SVG Version: 6.00 Build 0)  -->
<svg version="1.1" id="Layer_1" xmlns="http://www.w3.org/2000/svg" xmlns:xlink="http://www.w3.org/1999/xlink" x="0px" y="0px"
	 viewBox="0 0 33 26" style="enable-background:new 0 0 33 26;" xml:space="preserve">
<style type="text/css">
	.st0{fill:#FFFFFF;}
</style>
<path class="st0" d="M27.3,0.6H6.5c-1.5,0-2.8,1.2-2.8,2.8v14.3c0,1.5,1.2,2.7,2.8,2.7h11.1l4.6,4.5c0.4,0.4,0.8,0.5,1,0.5
	c0.6,0,1.3-0.5,1.3-1.4l0-3.6h2.8c1.5,0,2.8-1.2,2.8-2.7V3.3C30.1,1.8,28.8,0.6,27.3,0.6 M28,17.7c0,0.4-0.3,0.7-0.7,0.7h-4.9l0,3.9
	l-3.9-3.9h-12c-0.4,0-0.7-0.3-0.7-0.7V3.3c0-0.4,0.3-0.7,0.7-0.7h20.8C27.7,2.6,28,3,28,3.3V17.7z M24.1,6.6H9.7c-0.6,0-1,0.5-1,1
	c0,0.6,0.5,1.1,1,1.1h14.4c0.6,0,1-0.5,1-1.1C25.1,7.1,24.7,6.6,24.1,6.6 M24.1,12.4H9.7c-0.6,0-1,0.5-1,1.1c0,0.6,0.5,1,1,1h14.4
	c0.6,0,1-0.5,1-1C25.1,12.9,24.7,12.4,24.1,12.4"/>
</svg>
