<?xml version="1.0" encoding="utf-8"?>
<!-- Generator: Adobe Illustrator 22.1.0, SVG Export Plug-In . SVG Version: 6.00 Build 0)  -->
<svg version="1.1" id="Layer_1" xmlns="http://www.w3.org/2000/svg" xmlns:xlink="http://www.w3.org/1999/xlink" x="0px" y="0px"
	 viewBox="0 0 73 73" style="enable-background:new 0 0 73 73;" xml:space="preserve">
<style type="text/css">
	.st0{fill:#FFFFFF;}
	.st1{fill:#7FB056;}
	.st2{fill:#C0CD06;}
	.st3{fill:#004E42;}
</style>
<g>
	<circle class="st0" cx="36.8" cy="36.9" r="35.4"/>
	<g>
		<path class="st1" d="M36.8,8.2C20.7,8.2,7.6,21.2,7.6,37.4c0,16.1,13.1,29.2,29.2,29.2C52.9,66.6,66,53.5,66,37.4
			C66,21.2,52.9,8.2,36.8,8.2z M36.6,63.4L36.6,63.4L36.6,63.4c-14.3,0-25.9-11.6-26-25.9c0-14.3,11.6-25.9,25.9-25.9
			c14.3,0,26,11.6,26,25.9C62.6,51.7,50.9,63.4,36.6,63.4z"/>
		<path class="st2" d="M51.1,33c0-7.6-6.4-13.7-14.3-13.7S22.5,25.4,22.5,33c0,2.6,0.7,5,2.1,7.1l12.3,18.2l12.2-18.2
			C50.4,38,51.1,35.6,51.1,33z"/>
		<g>
			<path class="st3" d="M42,27.3c-3.2-0.8-4.8,1.3-5.1,1.9c-0.3-0.5-1.9-2.6-5.1-1.9c-3.7,0.9-3.6,5.9-1.6,9c1.9,3,5.2,5.4,7.2,6.8
				v0.1c0,0,0,0,0,0c0,0,0,0,0,0V43c2-1.4,4.8-3.7,6.7-6.8C46,33.2,45.6,28.2,42,27.3z"/>
		</g>
	</g>
</g>
</svg>
