<?xml version="1.0" encoding="utf-8"?>
<!-- Generator: Adobe Illustrator 22.1.0, SVG Export Plug-In . SVG Version: 6.00 Build 0)  -->
<svg version="1.1" id="Layer_1" xmlns="http://www.w3.org/2000/svg" xmlns:xlink="http://www.w3.org/1999/xlink" x="0px" y="0px"
	 viewBox="0 0 126 100" style="enable-background:new 0 0 126 100;" xml:space="preserve">
<style type="text/css">
	.st0{fill:#FFFFFF;}
</style>
<g>
	<path class="st0" d="M26.8,72.5H1c-0.6,0-0.6-0.1-0.6-0.8v-38c0-0.5-0.1-0.6,0.5-0.6h25.6c0.6,0,0.6,0.1,0.6,0.8v7.1
		c0,0.5-0.2,0.8-0.6,0.8l-16.2-0.2v6.6h15.8c0.5,0,0.6,0.1,0.6,0.8v7.1c0,0.7-0.1,0.8-0.6,0.8H10.3v6.7l16.6-0.2
		c0.6,0,0.6,0,0.6,0.8v7.5C27.5,72.4,27.4,72.5,26.8,72.5"/>
	<path class="st0" d="M51.2,61.3c0,0-4,6.8-6.1,10c-0.5,0.7-0.8,1.2-1.6,1.2c-3.9,0-4.3,0.1-8.6,0c-0.6,0-0.7-0.5-0.5-0.9
		c4.8-7.4,11.7-18.5,11.7-18.5s-8.4-13.6-11.9-19.2c-0.2-0.2-0.3-0.8,0.3-0.8h9.9c0.6,0,1,0.1,1.6,1c1.8,2.9,6.3,9.9,6.3,9.9
		l5.2,8.2L51.2,61.3z"/>
	<path class="st0" d="M63.5,61.3c0,0,4,6.8,6.1,10c0.5,0.7,0.8,1.2,1.6,1.2c3.9,0,4.3,0.1,8.6,0c0.6,0,0.7-0.5,0.5-0.9
		c-4.8-7.4-11.7-18.5-11.7-18.5S77,39.5,80.6,33.8c0.2-0.2,0.3-0.8-0.3-0.8h-9.9c-0.6,0-1,0.1-1.6,1C67,37,62.5,44,62.5,44l-5.2,8.2
		L63.5,61.3z"/>
</g>
<path class="st0" d="M104.8,31.8c-11.6,0-20.9,9.4-20.9,20.9s9.4,20.9,20.9,20.9s20.9-9.4,20.9-20.9S116.4,31.8,104.8,31.8z
	 M104.8,64c-5.6,0-10.1-5-10.1-11.1s4.5-11.1,10.1-11.1c5.6,0,10.1,5,10.1,11.1S110.4,64,104.8,64z"/>
</svg>
