<?xml version="1.0" encoding="utf-8"?>
<!-- Generator: Adobe Illustrator 22.1.0, SVG Export Plug-In . SVG Version: 6.00 Build 0)  -->
<svg version="1.1" id="Layer_1" xmlns="http://www.w3.org/2000/svg" xmlns:xlink="http://www.w3.org/1999/xlink" x="0px" y="0px"
	 viewBox="0 0 105 35" style="enable-background:new 0 0 105 35;" xml:space="preserve">
<style type="text/css">
	.st0{fill:#004E42;}
	.st1{fill:#C5D200;}
	.st2{fill:#007674;}
	.st3{fill:#54B797;}
</style>
<g>
	<path class="st0" d="M22.4,33.5H1c-0.5,0-0.5-0.1-0.5-0.7V2.3c0-0.4,0-0.5,0.4-0.5h21.2c0.5,0,0.5,0,0.5,0.6v5.7
		c0,0.4-0.1,0.7-0.5,0.7L8.7,8.6v5.3h13.1c0.4,0,0.5,0.1,0.5,0.7v5.7c0,0.6,0,0.7-0.5,0.7H8.7v5.4l13.7-0.1c0.5,0,0.5,0,0.5,0.6v6
		C22.9,33.4,22.9,33.5,22.4,33.5"/>
	<path class="st0" d="M42.6,24.5c0,0-3.3,5.5-5.1,8.1c-0.4,0.6-0.7,0.9-1.4,0.9c-3.2,0-3.6,0-7.1,0c-0.5,0-0.6-0.4-0.4-0.7
		c4-6,9.7-14.9,9.7-14.9s-6.9-11-9.9-15.5c-0.1-0.2-0.3-0.6,0.2-0.6h8.2c0.5,0,0.8,0,1.3,0.8c1.5,2.3,5.2,8,5.2,8l4.3,6.6L42.6,24.5
		z"/>
	<path d="M63.5,33.6L63.5,33.6C63.5,33.6,63.6,33.6,63.5,33.6C63.6,33.6,63.6,33.6,63.5,33.6z"/>
	<path class="st0" d="M66.7,32.8C66.7,32.8,66.7,32.8,66.7,32.8C66.7,32.8,66.7,32.7,66.7,32.8c-0.2-0.4-0.4-0.6-0.6-0.9
		c0,0,0,0,0,0c0-0.1-0.1-0.1-0.1-0.2c-0.1-0.1-1.5,0.1-1.6,0.4c-0.1,0.3-0.8,1.5-0.8,1.5c0,0,0,0,0,0c0.7,0,1.5,0,2.8,0
		c0.1,0,0.1,0,0.2,0c0,0,0,0,0,0c0.2,0,0.3-0.1,0.3-0.2c0,0,0,0,0,0c0,0,0,0,0,0C66.8,33.1,66.8,33,66.7,32.8z"/>
	<path class="st1" d="M65.7,31.3c0,0-0.1,0.1-0.1,0.1c-0.2,0.1-0.4,0-0.5-0.2c-0.1-0.2,0-0.4,0.2-0.5c0,0,0,0,0,0
		c-0.1-0.2-0.3-0.4-0.4-0.6c-0.1,0-0.3-0.1-0.3-0.2c0-0.1,0-0.2,0-0.3c-0.1,0-0.2,0-0.3,0c0,0.1-0.1,0.1-0.1,0.1
		c-0.2,0.1-0.4,0-0.5-0.2c0,0,0,0,0-0.1c-0.2,0-0.3-0.1-0.5-0.1c0,0,0,0,0,0c-0.2,0.1-0.4,0-0.5-0.2c-0.1-0.1-0.3-0.1-0.4-0.2
		c0,0,0,0-0.1,0c-0.2,0.1-0.4,0-0.5-0.2c0-0.1,0-0.2,0-0.2c-0.1-0.1-0.2-0.2-0.3-0.3c-0.3-0.4-0.5-0.8-0.6-1.2
		c0,0.1-0.1,0.2-0.2,0.2c-0.2,0.1-0.4,0-0.5-0.2c-0.1-0.2,0-0.4,0.2-0.5c0.1,0,0.2,0,0.3,0c-0.2-0.6-0.3-1.1-0.4-1.7
		C60.1,25,60,25,60,24.9c-0.1-0.1,0-0.3,0.1-0.4c0-0.3-0.1-0.5-0.1-0.8c0,0,0,0,0,0c-0.2,0.1-0.4,0-0.5-0.2c-0.1-0.2,0-0.4,0.2-0.5
		c0,0,0.1,0,0.1,0c-0.1-0.3-0.3-0.6-0.5-0.6c-0.2,0-1.1-0.1-2.2-0.3c0.1,0.2,0,0.4-0.2,0.4c-0.2,0.1-0.4,0-0.5-0.2
		c-0.1-0.1,0-0.3,0.1-0.4c-0.1,0-0.2,0-0.4-0.1c0,0.1-0.1,0.2-0.2,0.3c-0.2,0.1-0.4,0-0.5-0.2c0-0.1,0-0.1,0-0.2
		c-0.1,0-0.3-0.1-0.4-0.1c0,0-0.1,0.1-0.1,0.1c-0.2,0.1-0.4,0-0.5-0.2c0,0,0-0.1,0-0.1c-0.1,0-0.3-0.1-0.4-0.1c0,0,0,0-0.1,0
		c-0.2,0.1-0.4,0-0.5-0.2c0,0,0,0,0,0c-0.2-0.1-0.3-0.1-0.5-0.2c0,0,0,0,0,0c-0.2,0.1-0.4,0-0.5-0.2c0,0,0,0,0,0
		c-0.1-0.1-0.3-0.1-0.4-0.2c0,0-0.1,0-0.1,0.1c-0.2,0.1-0.4,0-0.5-0.2c0-0.1,0-0.1,0-0.2c0,0,0,0,0,0l0.1,0.7c0.1,0,0.1,0.1,0.1,0.2
		c0.1,0.1,0,0.3-0.1,0.4l0.1,0.8c0,0,0,0,0.1-0.1c0.2-0.1,0.4,0,0.5,0.2c0.1,0.2,0,0.4-0.2,0.5c-0.1,0-0.2,0-0.3,0l0,0.2l0.4,0.6
		c0,0,0.1-0.1,0.1-0.1c0.2-0.1,0.4,0,0.5,0.2c0.1,0.2,0,0.4-0.2,0.5c0,0,0,0,0,0l0,0.1c0,0,0.1,0.2,0.3,0.6c0.2,0,0.3,0.1,0.4,0.2
		c0,0.1,0,0.2,0,0.3c0.2,0.3,0.3,0.5,0.5,0.8c0,0.1,0.1,0.1,0.1,0.2c0.3,0.5,0.6,1,1,1.6c0,0,0.1-0.1,0.1-0.1c0.2-0.1,0.4,0,0.5,0.2
		c0.1,0.2,0,0.4-0.2,0.5c0,0-0.1,0-0.1,0c0.1,0.2,0.3,0.4,0.4,0.6c0.2,0,0.3,0,0.4,0.2c0.1,0.1,0,0.3-0.1,0.4
		c0.2,0.3,0.3,0.5,0.5,0.8c0,0.1,0.1,0.1,0.1,0.2c0.1,0.1,0.2,0.3,0.3,0.4c0-0.1,0.1-0.2,0.2-0.3c0.2-0.1,0.4,0,0.5,0.2
		c0.1,0.2,0,0.4-0.2,0.5c-0.1,0-0.2,0-0.3,0c0.2,0.3,0.3,0.5,0.5,0.7c0,0,0,0,0.1,0c0.2-0.1,0.4,0,0.5,0.2c0.1,0.1,0,0.3-0.1,0.4
		c0.3,0.4,0.5,0.6,1.1,0.6c0.1,0,0.2,0,0.3,0c0,0,0,0,0,0c-0.1-0.2,0-0.4,0.2-0.5c0.2-0.1,0.4,0,0.5,0.2c0,0.1,0,0.2,0,0.3
		c0.2,0,0.3,0,0.4,0c0,0,0.1-0.1,0.1-0.1c0.1-0.1,0.3,0,0.4,0.1c0.7,0,1.2,0,1.7,0c0-0.1,0.1-0.3,0.2-0.4c0.2-0.1,0.4,0,0.5,0.2
		c0,0.1,0,0.1,0,0.2c0,0,0,0,0,0c0,0,0.7-1.3,0.8-1.5c0-0.1,0.2-0.2,0.4-0.2c0-0.1,0.1-0.1,0.1-0.1c0.1,0,0.2,0,0.3,0
		c0.4-0.1,0.7-0.1,0.7,0C65.9,31.5,65.8,31.4,65.7,31.3z M63.4,30c0.2-0.1,0.4,0,0.5,0.2c0.1,0.2,0,0.4-0.2,0.5
		c-0.2,0.1-0.4,0-0.5-0.2C63.1,30.3,63.2,30.1,63.4,30z M62.4,29.6c0.2-0.1,0.4,0,0.5,0.2c0.1,0.2,0,0.4-0.2,0.5
		c-0.2,0.1-0.4,0-0.5-0.2C62.2,29.9,62.2,29.7,62.4,29.6z M62.4,30.8c0.1,0.2,0,0.4-0.2,0.5c-0.2,0.1-0.4,0-0.5-0.2
		c-0.1-0.2,0-0.4,0.2-0.5C62.1,30.5,62.3,30.6,62.4,30.8z M61.4,29.3c0.2-0.1,0.4,0,0.5,0.2c0.1,0.2,0,0.4-0.2,0.5
		c-0.2,0.1-0.4,0-0.5-0.2C61.2,29.6,61.2,29.4,61.4,29.3z M61.3,30.9c-0.2,0.1-0.4,0-0.5-0.2c-0.1-0.2,0-0.4,0.2-0.5
		c0.2-0.1,0.4,0,0.5,0.2C61.5,30.6,61.5,30.8,61.3,30.9z M60.9,28c0.2-0.1,0.4,0,0.5,0.2c0.1,0.2,0,0.4-0.2,0.5
		c-0.2,0.1-0.4,0-0.5-0.2C60.6,28.3,60.7,28.1,60.9,28z M60.5,28.9c0.2-0.1,0.4,0,0.5,0.2c0.1,0.2,0,0.4-0.2,0.5
		c-0.2,0.1-0.4,0-0.5-0.2C60.2,29.2,60.3,29,60.5,28.9z M56,26.2c0.2-0.1,0.4,0,0.5,0.2c0.1,0.2,0,0.4-0.2,0.5
		c-0.2,0.1-0.4,0-0.5-0.2C55.8,26.5,55.8,26.3,56,26.2z M55.7,25.5c-0.2,0.1-0.4,0-0.5-0.2c-0.1-0.2,0-0.4,0.2-0.5
		c0.2-0.1,0.4,0,0.5,0.2C56,25.3,55.9,25.5,55.7,25.5z M56.4,25.3c0.2-0.1,0.4,0,0.5,0.2c0.1,0.2,0,0.4-0.2,0.5
		c-0.2,0.1-0.4,0-0.5-0.2C56.1,25.5,56.2,25.3,56.4,25.3z M56.6,27.5c0.2-0.1,0.4,0,0.5,0.2c0.1,0.2,0,0.4-0.2,0.5
		c-0.2,0.1-0.4,0-0.5-0.2C56.3,27.8,56.4,27.6,56.6,27.5z M56.8,27c-0.1-0.2,0-0.4,0.2-0.5c0.2-0.1,0.4,0,0.5,0.2
		c0.1,0.2,0,0.4-0.2,0.5C57,27.3,56.8,27.2,56.8,27z M58.5,28.2c0.2-0.1,0.4,0,0.5,0.2c0.1,0.2,0,0.4-0.2,0.5
		c-0.2,0.1-0.4,0-0.5-0.2C58.3,28.5,58.3,28.3,58.5,28.2z M58.2,27.6c-0.2,0.1-0.4,0-0.5-0.2c-0.1-0.2,0-0.4,0.2-0.5
		c0.2-0.1,0.4,0,0.5,0.2C58.5,27.3,58.4,27.5,58.2,27.6z M58.7,27.7c-0.1-0.2,0-0.4,0.2-0.5c0.2-0.1,0.4,0,0.5,0.2
		c0.1,0.2,0,0.4-0.2,0.5C59,28,58.8,27.9,58.7,27.7z M59.2,26.8c-0.1-0.2,0-0.4,0.2-0.5c0.2-0.1,0.4,0,0.5,0.2
		c0.1,0.2,0,0.4-0.2,0.5C59.5,27,59.2,27,59.2,26.8z M59.1,25.7c-0.2,0.1-0.4,0-0.5-0.2c-0.1-0.2,0-0.4,0.2-0.5
		c0.2-0.1,0.4,0,0.5,0.2C59.3,25.4,59.2,25.6,59.1,25.7z M58.8,26.1c0.1,0.2,0,0.4-0.2,0.5c-0.2,0.1-0.4,0-0.5-0.2
		c-0.1-0.2,0-0.4,0.2-0.5C58.5,25.9,58.7,26,58.8,26.1z M58.1,25.3c-0.2,0.1-0.4,0-0.5-0.2c-0.1-0.2,0-0.4,0.2-0.5
		c0.2-0.1,0.4,0,0.5,0.2C58.3,25,58.2,25.2,58.1,25.3z M57.9,25.8c0.1,0.2,0,0.4-0.2,0.5c-0.2,0.1-0.4,0-0.5-0.2
		c-0.1-0.2,0-0.4,0.2-0.5C57.6,25.5,57.8,25.6,57.9,25.8z M57.5,27.9c0.2-0.1,0.4,0,0.5,0.2c0.1,0.2,0,0.4-0.2,0.5
		c-0.2,0.1-0.4,0-0.5-0.2C57.3,28.1,57.3,27.9,57.5,27.9z M58.1,29.2c0.2-0.1,0.4,0,0.5,0.2c0.1,0.2,0,0.4-0.2,0.5
		c-0.2,0.1-0.4,0-0.5-0.2C57.8,29.4,57.9,29.2,58.1,29.2z M58.6,30.5c0.2-0.1,0.4,0,0.5,0.2c0.1,0.2,0,0.4-0.2,0.5
		c-0.2,0.1-0.4,0-0.5-0.2C58.4,30.7,58.4,30.5,58.6,30.5z M58.9,30c-0.1-0.2,0-0.4,0.2-0.5c0.2-0.1,0.4,0,0.5,0.2
		c0.1,0.2,0,0.4-0.2,0.5C59.2,30.2,59,30.2,58.9,30z M59.3,29c-0.1-0.2,0-0.4,0.2-0.5c0.2-0.1,0.4,0,0.5,0.2c0.1,0.2,0,0.4-0.2,0.5
		C59.6,29.3,59.4,29.2,59.3,29z M60,29.9c0.2-0.1,0.4,0,0.5,0.2c0.1,0.2,0,0.4-0.2,0.5c-0.2,0.1-0.4,0-0.5-0.2
		C59.8,30.2,59.8,30,60,29.9z M60.4,27.8c0.1,0.2,0,0.4-0.2,0.5c-0.2,0.1-0.4,0-0.5-0.2c-0.1-0.2,0-0.4,0.2-0.5
		C60.1,27.6,60.3,27.6,60.4,27.8z M60.2,25.6c0.1,0.2,0,0.4-0.2,0.5c-0.2,0.1-0.4,0-0.5-0.2c-0.1-0.2,0-0.4,0.2-0.5
		C59.9,25.3,60.1,25.4,60.2,25.6z M59.6,24.3c0.1,0.2,0,0.4-0.2,0.5c-0.2,0.1-0.4,0-0.5-0.2c-0.1-0.2,0-0.4,0.2-0.5
		C59.4,24,59.6,24.1,59.6,24.3z M58.6,22.8c0.2-0.1,0.4,0,0.5,0.2c0.1,0.2,0,0.4-0.2,0.5c-0.2,0.1-0.4,0-0.5-0.2
		C58.4,23,58.5,22.8,58.6,22.8z M58.7,23.9c0.1,0.2,0,0.4-0.2,0.5c-0.2,0.1-0.4,0-0.5-0.2c-0.1-0.2,0-0.4,0.2-0.5
		C58.4,23.6,58.6,23.7,58.7,23.9z M57.7,22.4c0.2-0.1,0.4,0,0.5,0.2c0.1,0.2,0,0.4-0.2,0.5c-0.2,0.1-0.4,0-0.5-0.2
		C57.4,22.7,57.5,22.5,57.7,22.4z M57.2,23.4c0.2-0.1,0.4,0,0.5,0.2c0.1,0.2,0,0.4-0.2,0.5c-0.2,0.1-0.4,0-0.5-0.2
		S57.1,23.4,57.2,23.4z M56.9,24.3c0.2-0.1,0.4,0,0.5,0.2c0.1,0.2,0,0.4-0.2,0.5c-0.2,0.1-0.4,0-0.5-0.2
		C56.6,24.6,56.7,24.4,56.9,24.3z M56.3,23c0.2-0.1,0.4,0,0.5,0.2c0.1,0.2,0,0.4-0.2,0.5c-0.2,0.1-0.4,0-0.5-0.2
		C56,23.3,56.1,23.1,56.3,23z M56.3,24.1c0.1,0.2,0,0.4-0.2,0.5c-0.2,0.1-0.4,0-0.5-0.2c-0.1-0.2,0-0.4,0.2-0.5
		C56,23.9,56.2,24,56.3,24.1z M55.3,22.6c0.2-0.1,0.4,0,0.5,0.2c0.1,0.2,0,0.4-0.2,0.5c-0.2,0.1-0.4,0-0.5-0.2
		C55,22.9,55.1,22.7,55.3,22.6z M54.9,23.6c0.2-0.1,0.4,0,0.5,0.2c0.1,0.2,0,0.4-0.2,0.5c-0.2,0.1-0.4,0-0.5-0.2
		C54.6,23.9,54.7,23.7,54.9,23.6z M54.7,25.2c-0.2,0.1-0.4,0-0.5-0.2c-0.1-0.2,0-0.4,0.2-0.5c0.2-0.1,0.4,0,0.5,0.2
		C55,24.9,54.9,25.1,54.7,25.2z M54.3,22.3c0.2-0.1,0.4,0,0.5,0.2c0.1,0.2,0,0.4-0.2,0.5c-0.2,0.1-0.4,0-0.5-0.2
		C54.1,22.6,54.2,22.4,54.3,22.3z M54.3,23.4c0.1,0.2,0,0.4-0.2,0.5c-0.2,0.1-0.4,0-0.5-0.2c-0.1-0.2,0-0.4,0.2-0.5
		C54.1,23.2,54.3,23.2,54.3,23.4z M53.3,21.9c0.2-0.1,0.4,0,0.5,0.2c0.1,0.2,0,0.4-0.2,0.5c-0.2,0.1-0.4,0-0.5-0.2
		C53.1,22.2,53.2,22,53.3,21.9z M52.2,22c-0.1-0.2,0-0.4,0.2-0.5c0.2-0.1,0.4,0,0.5,0.2c0.1,0.2,0,0.4-0.2,0.5
		C52.5,22.3,52.3,22.2,52.2,22z M52.8,23.3c-0.1-0.2,0-0.4,0.2-0.5c0.2-0.1,0.4,0,0.5,0.2c0.1,0.2,0,0.4-0.2,0.5
		C53.1,23.6,52.8,23.5,52.8,23.3z M53.3,24.7c-0.1-0.2,0-0.4,0.2-0.5c0.2-0.1,0.4,0,0.5,0.2c0.1,0.2,0,0.4-0.2,0.5
		C53.6,24.9,53.4,24.8,53.3,24.7z M53.9,26c-0.1-0.2,0-0.4,0.2-0.5c0.2-0.1,0.4,0,0.5,0.2c0.1,0.2,0,0.4-0.2,0.5
		C54.2,26.2,54,26.1,53.9,26z M54.9,27.4c-0.2,0.1-0.4,0-0.5-0.2c-0.1-0.2,0-0.4,0.2-0.5c0.2-0.1,0.4,0,0.5,0.2
		C55.1,27.2,55.1,27.4,54.9,27.4z M55.3,26.5c-0.2,0.1-0.4,0-0.5-0.2c-0.1-0.2,0-0.4,0.2-0.5c0.2-0.1,0.4,0,0.5,0.2
		C55.5,26.2,55.5,26.4,55.3,26.5z M55.8,27.8c-0.2,0.1-0.4,0-0.5-0.2c-0.1-0.2,0-0.4,0.2-0.5c0.2-0.1,0.4,0,0.5,0.2
		C56.1,27.5,56,27.7,55.8,27.8z M55.9,28.9c-0.1-0.2,0-0.4,0.2-0.5c0.2-0.1,0.4,0,0.5,0.2c0.1,0.2,0,0.4-0.2,0.5
		C56.2,29.2,56,29.1,55.9,28.9z M56.9,30.4c-0.2,0.1-0.4,0-0.5-0.2c-0.1-0.2,0-0.4,0.2-0.5c0.2-0.1,0.4,0,0.5,0.2
		C57.2,30.1,57.1,30.3,56.9,30.4z M56.9,29.3c-0.1-0.2,0-0.4,0.2-0.5c0.2-0.1,0.4,0,0.5,0.2c0.1,0.2,0,0.4-0.2,0.5
		C57.2,29.5,57,29.4,56.9,29.3z M57.5,30.6c-0.1-0.2,0-0.4,0.2-0.5c0.2-0.1,0.4,0,0.5,0.2c0.1,0.2,0,0.4-0.2,0.5
		C57.8,30.8,57.6,30.7,57.5,30.6z M58.1,31.9c-0.1-0.2,0-0.4,0.2-0.5c0.2-0.1,0.4,0,0.5,0.2c0.1,0.2,0,0.4-0.2,0.5
		C58.3,32.1,58.1,32.1,58.1,31.9z M59.1,33.4c-0.2,0.1-0.4,0-0.5-0.2c-0.1-0.2,0-0.4,0.2-0.5c0.2-0.1,0.4,0,0.5,0.2
		C59.3,33.1,59.2,33.3,59.1,33.4z M59.4,32.4c-0.2,0.1-0.4,0-0.5-0.2c-0.1-0.2,0-0.4,0.2-0.5c0.2-0.1,0.4,0,0.5,0.2
		C59.7,32.1,59.6,32.3,59.4,32.4z M59.4,31.3c-0.1-0.2,0-0.4,0.2-0.5c0.2-0.1,0.4,0,0.5,0.2c0.1,0.2,0,0.4-0.2,0.5
		C59.7,31.5,59.5,31.5,59.4,31.3z M60.5,32.8c-0.2,0.1-0.4,0-0.5-0.2c-0.1-0.2,0-0.4,0.2-0.5c0.2-0.1,0.4,0,0.5,0.2
		C60.7,32.5,60.6,32.7,60.5,32.8z M60.8,31.8c-0.2,0.1-0.4,0-0.5-0.2c-0.1-0.2,0-0.4,0.2-0.5c0.2-0.1,0.4,0,0.5,0.2
		C61.1,31.5,61,31.7,60.8,31.8z M61.4,33.1c-0.2,0.1-0.4,0-0.5-0.2c-0.1-0.2,0-0.4,0.2-0.5c0.2-0.1,0.4,0,0.5,0.2
		C61.6,32.8,61.6,33,61.4,33.1z M61.4,32c-0.1-0.2,0-0.4,0.2-0.5c0.2-0.1,0.4,0,0.5,0.2c0.1,0.2,0,0.4-0.2,0.5
		C61.7,32.3,61.5,32.2,61.4,32z M62.4,33.5c-0.2,0.1-0.4,0-0.5-0.2c-0.1-0.2,0-0.4,0.2-0.5c0.2-0.1,0.4,0,0.5,0.2
		C62.7,33.2,62.6,33.4,62.4,33.5z M62.8,32.5c-0.2,0.1-0.4,0-0.5-0.2c-0.1-0.2,0-0.4,0.2-0.5c0.2-0.1,0.4,0,0.5,0.2
		C63,32.2,63,32.5,62.8,32.5z M62.8,31.4c-0.1-0.2,0-0.4,0.2-0.5c0.2-0.1,0.4,0,0.5,0.2c0.1,0.2,0,0.4-0.2,0.5
		C63.1,31.7,62.9,31.6,62.8,31.4z M63.8,32.9c-0.2,0.1-0.4,0-0.5-0.2c-0.1-0.2,0-0.4,0.2-0.5c0.2-0.1,0.4,0,0.5,0.2
		C64.1,32.6,64,32.8,63.8,32.9z M64.2,31.9c-0.2,0.1-0.4,0-0.5-0.2c-0.1-0.2,0-0.4,0.2-0.5c0.2-0.1,0.4,0,0.5,0.2
		C64.4,31.7,64.4,31.9,64.2,31.9z M64.6,31c-0.2,0.1-0.4,0-0.5-0.2c-0.1-0.2,0-0.4,0.2-0.5c0.2-0.1,0.4,0,0.5,0.2
		C64.9,30.7,64.8,30.9,64.6,31z"/>
	<g>
		<path class="st2" d="M52.1,20.9C52.2,20.9,52.2,20.9,52.1,20.9c-0.1-0.2-0.3-0.3-0.5-0.4c0,0.1,0,0.1,0,0.2
			C51.7,20.9,51.9,21,52.1,20.9z"/>
		<path class="st2" d="M51.7,21.3l0.1,0.5c0.1-0.1,0.1-0.2,0.1-0.4C51.8,21.3,51.8,21.3,51.7,21.3z"/>
		<path class="st2" d="M53.1,21.3C53.1,21.3,53.1,21.2,53.1,21.3c-0.1-0.1-0.3-0.2-0.5-0.2c0,0,0,0,0,0
			C52.7,21.3,52.9,21.3,53.1,21.3z"/>
		<path class="st2" d="M52.2,22c0.1,0.2,0.3,0.3,0.5,0.2c0.2-0.1,0.3-0.3,0.2-0.5c-0.1-0.2-0.3-0.3-0.5-0.2
			C52.2,21.7,52.1,21.9,52.2,22z"/>
		<path class="st2" d="M54.1,21.6C54.1,21.6,54.1,21.6,54.1,21.6c-0.1-0.1-0.3-0.1-0.5-0.2c0,0,0,0,0,0
			C53.7,21.6,53.9,21.7,54.1,21.6z"/>
		<path class="st2" d="M52.4,22.7c-0.1-0.2-0.3-0.3-0.5-0.2c0,0-0.1,0-0.1,0.1l0.1,0.6c0.1,0,0.2,0,0.3,0
			C52.4,23.1,52.5,22.9,52.4,22.7z"/>
		<path class="st2" d="M53.6,22.6c0.2-0.1,0.3-0.3,0.2-0.5c-0.1-0.2-0.3-0.3-0.5-0.2c-0.2,0.1-0.3,0.3-0.2,0.5
			C53.2,22.6,53.4,22.6,53.6,22.6z"/>
		<path class="st2" d="M55,22c0.1,0,0.1-0.1,0.1-0.1c-0.2,0-0.4-0.1-0.6-0.2c0,0,0,0.1,0,0.1C54.6,22,54.8,22.1,55,22z"/>
		<path class="st2" d="M53.4,23.1c-0.1-0.2-0.3-0.3-0.5-0.2c-0.2,0.1-0.3,0.3-0.2,0.5c0.1,0.2,0.3,0.3,0.5,0.2
			C53.4,23.5,53.5,23.3,53.4,23.1z"/>
		<path class="st2" d="M54.6,22.9c0.2-0.1,0.3-0.3,0.2-0.5c-0.1-0.2-0.3-0.3-0.5-0.2c-0.2,0.1-0.3,0.3-0.2,0.5
			C54.2,22.9,54.4,23,54.6,22.9z"/>
		<path class="st2" d="M56,22.3c0.1,0,0.2-0.1,0.2-0.3C56,22,55.8,22,55.5,22c0,0.1,0,0.1,0,0.2C55.6,22.3,55.8,22.4,56,22.3z"/>
		<path class="st2" d="M52.5,23.8c-0.1,0-0.1,0.1-0.1,0.1l0.4,0.5c0,0,0,0,0,0c0.2-0.1,0.3-0.3,0.2-0.5
			C52.9,23.8,52.7,23.8,52.5,23.8z"/>
		<path class="st2" d="M54.3,23.4c-0.1-0.2-0.3-0.3-0.5-0.2c-0.2,0.1-0.3,0.3-0.2,0.5c0.1,0.2,0.3,0.3,0.5,0.2
			C54.3,23.8,54.4,23.6,54.3,23.4z"/>
		<path class="st2" d="M55.1,23.1c0.1,0.2,0.3,0.3,0.5,0.2c0.2-0.1,0.3-0.3,0.2-0.5c-0.1-0.2-0.3-0.3-0.5-0.2
			C55.1,22.7,55,22.9,55.1,23.1z"/>
		<path class="st2" d="M57,22.7c0.2-0.1,0.3-0.3,0.2-0.4c-0.2,0-0.4-0.1-0.6-0.1c-0.1,0.1-0.1,0.2-0.1,0.4
			C56.6,22.7,56.8,22.8,57,22.7z"/>
		<path class="st2" d="M54,24.4c-0.1-0.2-0.3-0.3-0.5-0.2c-0.2,0.1-0.3,0.3-0.2,0.5c0.1,0.2,0.3,0.3,0.5,0.2
			C54,24.8,54,24.6,54,24.4z"/>
		<path class="st2" d="M55.2,24.2c0.2-0.1,0.3-0.3,0.2-0.5c-0.1-0.2-0.3-0.3-0.5-0.2c-0.2,0.1-0.3,0.3-0.2,0.5
			C54.8,24.2,55,24.3,55.2,24.2z"/>
		<path class="st2" d="M56.1,23.5c0.1,0.2,0.3,0.3,0.5,0.2c0.2-0.1,0.3-0.3,0.2-0.5c-0.1-0.2-0.3-0.3-0.5-0.2
			C56.1,23.1,56,23.3,56.1,23.5z"/>
		<path class="st2" d="M58,23.1c0.2-0.1,0.3-0.3,0.2-0.5c-0.1-0.2-0.3-0.3-0.5-0.2c-0.2,0.1-0.3,0.3-0.2,0.5
			C57.6,23,57.8,23.1,58,23.1z"/>
		<path class="st2" d="M53.1,25.1c0.1,0.2,0.2,0.3,0.3,0.5c0.1-0.1,0.1-0.2,0-0.3C53.4,25.2,53.3,25.1,53.1,25.1z"/>
		<path class="st2" d="M54.7,25.2c0.2-0.1,0.3-0.3,0.2-0.5c-0.1-0.2-0.3-0.3-0.5-0.2c-0.2,0.1-0.3,0.3-0.2,0.5
			C54.3,25.2,54.5,25.3,54.7,25.2z"/>
		<path class="st2" d="M55.8,24c-0.2,0.1-0.3,0.3-0.2,0.5c0.1,0.2,0.3,0.3,0.5,0.2c0.2-0.1,0.3-0.3,0.2-0.5C56.2,24,56,23.9,55.8,24
			z"/>
		<path class="st2" d="M57.1,23.8c0.1,0.2,0.3,0.3,0.5,0.2c0.2-0.1,0.3-0.3,0.2-0.5c-0.1-0.2-0.3-0.3-0.5-0.2
			C57.1,23.4,57,23.6,57.1,23.8z"/>
		<path class="st2" d="M58.9,23.4c0.2-0.1,0.3-0.3,0.2-0.5c-0.1-0.2-0.3-0.3-0.5-0.2c-0.2,0.1-0.3,0.3-0.2,0.5
			C58.5,23.4,58.7,23.5,58.9,23.4z"/>
		<path class="st2" d="M54.5,25.7c-0.1-0.2-0.3-0.3-0.5-0.2c-0.2,0.1-0.3,0.3-0.2,0.5c0.1,0.2,0.3,0.3,0.5,0.2
			C54.5,26.1,54.6,25.9,54.5,25.7z"/>
		<path class="st2" d="M55.7,25.5c0.2-0.1,0.3-0.3,0.2-0.5c-0.1-0.2-0.3-0.3-0.5-0.2c-0.2,0.1-0.3,0.3-0.2,0.5
			C55.4,25.5,55.6,25.6,55.7,25.5z"/>
		<path class="st2" d="M56.9,24.3c-0.2,0.1-0.3,0.3-0.2,0.5c0.1,0.2,0.3,0.3,0.5,0.2c0.2-0.1,0.3-0.3,0.2-0.5
			C57.2,24.3,57,24.2,56.9,24.3z"/>
		<path class="st2" d="M58.1,24.2c0.1,0.2,0.3,0.3,0.5,0.2c0.2-0.1,0.3-0.3,0.2-0.5c-0.1-0.2-0.3-0.3-0.5-0.2
			C58.1,23.8,58,24,58.1,24.2z"/>
		<path class="st2" d="M59.9,23.8C59.9,23.8,59.9,23.7,59.9,23.8c0-0.3-0.1-0.5-0.1-0.7c0,0-0.1,0-0.1,0c-0.2,0.1-0.3,0.3-0.2,0.5
			C59.5,23.8,59.7,23.8,59.9,23.8z"/>
		<path class="st2" d="M55.3,26.5c0.2-0.1,0.3-0.3,0.2-0.5c-0.1-0.2-0.3-0.3-0.5-0.2c-0.2,0.1-0.3,0.3-0.2,0.5
			C54.9,26.5,55.1,26.6,55.3,26.5z"/>
		<path class="st2" d="M56.4,25.3c-0.2,0.1-0.3,0.3-0.2,0.5c0.1,0.2,0.3,0.3,0.5,0.2c0.2-0.1,0.3-0.3,0.2-0.5
			C56.8,25.3,56.6,25.2,56.4,25.3z"/>
		<path class="st2" d="M57.8,24.7c-0.2,0.1-0.3,0.3-0.2,0.5c0.1,0.2,0.3,0.3,0.5,0.2c0.2-0.1,0.3-0.3,0.2-0.5
			C58.2,24.7,58,24.6,57.8,24.7z"/>
		<path class="st2" d="M59,24.5c0.1,0.2,0.3,0.3,0.5,0.2c0.2-0.1,0.3-0.3,0.2-0.5c-0.1-0.2-0.3-0.3-0.5-0.2
			C59,24.1,58.9,24.3,59,24.5z"/>
		<path class="st2" d="M55.1,27c-0.1-0.2-0.3-0.3-0.5-0.2c-0.2,0.1-0.3,0.3-0.2,0.5c0.1,0.2,0.3,0.3,0.5,0.2
			C55.1,27.4,55.1,27.2,55.1,27z"/>
		<path class="st2" d="M56.3,26.8c0.2-0.1,0.3-0.3,0.2-0.5c-0.1-0.2-0.3-0.3-0.5-0.2c-0.2,0.1-0.3,0.3-0.2,0.5
			C55.9,26.8,56.1,26.9,56.3,26.8z"/>
		<path class="st2" d="M57.4,25.6c-0.2,0.1-0.3,0.3-0.2,0.5c0.1,0.2,0.3,0.3,0.5,0.2c0.2-0.1,0.3-0.3,0.2-0.5
			C57.8,25.6,57.6,25.5,57.4,25.6z"/>
		<path class="st2" d="M58.8,25c-0.2,0.1-0.3,0.3-0.2,0.5c0.1,0.2,0.3,0.3,0.5,0.2c0.2-0.1,0.3-0.3,0.2-0.5C59.2,25,59,25,58.8,25z"
			/>
		<path class="st2" d="M60.2,25.1c0-0.1,0-0.2,0-0.2c0-0.1,0-0.2-0.1-0.3C60,24.6,60,24.7,60,24.9C60,25,60.1,25,60.2,25.1z"/>
		<path class="st2" d="M56,27.3c-0.1-0.2-0.3-0.3-0.5-0.2c-0.2,0.1-0.3,0.3-0.2,0.5c0.1,0.2,0.3,0.3,0.5,0.2
			C56,27.7,56.1,27.5,56,27.3z"/>
		<path class="st2" d="M57.4,26.7c-0.1-0.2-0.3-0.3-0.5-0.2c-0.2,0.1-0.3,0.3-0.2,0.5c0.1,0.2,0.3,0.3,0.5,0.2
			C57.4,27.1,57.5,26.9,57.4,26.7z"/>
		<path class="st2" d="M58.3,26c-0.2,0.1-0.3,0.3-0.2,0.5c0.1,0.2,0.3,0.3,0.5,0.2c0.2-0.1,0.3-0.3,0.2-0.5
			C58.7,26,58.5,25.9,58.3,26z"/>
		<path class="st2" d="M59.7,25.4c-0.2,0.1-0.3,0.3-0.2,0.5c0.1,0.2,0.3,0.3,0.5,0.2c0.2-0.1,0.3-0.3,0.2-0.5
			C60.1,25.4,59.9,25.3,59.7,25.4z"/>
		<path class="st2" d="M55.2,28.1c-0.1,0-0.1,0.1-0.1,0.1c0.1,0.2,0.2,0.4,0.3,0.5c0,0,0.1,0,0.1,0c0.2-0.1,0.3-0.3,0.2-0.5
			C55.6,28.1,55.4,28,55.2,28.1z"/>
		<path class="st2" d="M56.8,28.1c0.2-0.1,0.3-0.3,0.2-0.5c-0.1-0.2-0.3-0.3-0.5-0.2c-0.2,0.1-0.3,0.3-0.2,0.5
			C56.5,28.1,56.7,28.2,56.8,28.1z"/>
		<path class="st2" d="M58.2,27.6c0.2-0.1,0.3-0.3,0.2-0.5c-0.1-0.2-0.3-0.3-0.5-0.2c-0.2,0.1-0.3,0.3-0.2,0.5
			C57.9,27.5,58.1,27.6,58.2,27.6z"/>
		<path class="st2" d="M59.4,26.3c-0.2,0.1-0.3,0.3-0.2,0.5c0.1,0.2,0.3,0.3,0.5,0.2c0.2-0.1,0.3-0.3,0.2-0.5
			C59.7,26.3,59.5,26.3,59.4,26.3z"/>
		<path class="st2" d="M56.6,28.6c-0.1-0.2-0.3-0.3-0.5-0.2c-0.2,0.1-0.3,0.3-0.2,0.5c0.1,0.2,0.3,0.3,0.5,0.2
			C56.6,29,56.6,28.8,56.6,28.6z"/>
		<path class="st2" d="M57.8,28.5C58,28.4,58,28.2,58,28c-0.1-0.2-0.3-0.3-0.5-0.2c-0.2,0.1-0.3,0.3-0.2,0.5
			C57.4,28.5,57.6,28.6,57.8,28.5z"/>
		<path class="st2" d="M59.2,27.9c0.2-0.1,0.3-0.3,0.2-0.5c-0.1-0.2-0.3-0.3-0.5-0.2c-0.2,0.1-0.3,0.3-0.2,0.5
			C58.8,27.9,59,28,59.2,27.9z"/>
		<path class="st2" d="M60.1,27.1c0.1,0.2,0.3,0.3,0.5,0.2c0.1,0,0.2-0.1,0.2-0.2c-0.1-0.1-0.1-0.2-0.1-0.3c-0.1-0.1-0.2-0.1-0.3,0
			C60.1,26.8,60,27,60.1,27.1z"/>
		<path class="st2" d="M55.8,29.4c0.1,0.2,0.2,0.4,0.3,0.6c0.1-0.1,0.1-0.2,0.1-0.4C56.1,29.4,55.9,29.4,55.8,29.4z"/>
		<path class="st2" d="M57.4,29.5c0.2-0.1,0.3-0.3,0.2-0.5c-0.1-0.2-0.3-0.3-0.5-0.2c-0.2,0.1-0.3,0.3-0.2,0.5
			C57,29.4,57.2,29.5,57.4,29.5z"/>
		<path class="st2" d="M58.8,28.9c0.2-0.1,0.3-0.3,0.2-0.5c-0.1-0.2-0.3-0.3-0.5-0.2c-0.2,0.1-0.3,0.3-0.2,0.5
			C58.4,28.9,58.6,28.9,58.8,28.9z"/>
		<path class="st2" d="M59.9,27.6c-0.2,0.1-0.3,0.3-0.2,0.5c0.1,0.2,0.3,0.3,0.5,0.2c0.2-0.1,0.3-0.3,0.2-0.5
			C60.3,27.6,60.1,27.6,59.9,27.6z"/>
		<path class="st2" d="M57.1,29.9c-0.1-0.2-0.3-0.3-0.5-0.2c-0.2,0.1-0.3,0.3-0.2,0.5c0.1,0.2,0.3,0.3,0.5,0.2
			C57.1,30.3,57.2,30.1,57.1,29.9z"/>
		<path class="st2" d="M58.3,29.8c0.2-0.1,0.3-0.3,0.2-0.5c-0.1-0.2-0.3-0.3-0.5-0.2c-0.2,0.1-0.3,0.3-0.2,0.5
			C58,29.8,58.2,29.9,58.3,29.8z"/>
		<path class="st2" d="M59.7,29.2c0.2-0.1,0.3-0.3,0.2-0.5c-0.1-0.2-0.3-0.3-0.5-0.2c-0.2,0.1-0.3,0.3-0.2,0.5
			C59.4,29.2,59.6,29.3,59.7,29.2z"/>
		<path class="st2" d="M60.7,28.4c0.1,0.2,0.3,0.3,0.5,0.2c0.2-0.1,0.3-0.3,0.2-0.5C61.2,28,61,27.9,60.9,28
			C60.7,28.1,60.6,28.3,60.7,28.4z"/>
		<path class="st2" d="M58,30.8c0.2-0.1,0.3-0.3,0.2-0.5c-0.1-0.2-0.3-0.3-0.5-0.2c-0.2,0.1-0.3,0.3-0.2,0.5
			C57.6,30.7,57.8,30.8,58,30.8z"/>
		<path class="st2" d="M59.3,30.2c0.2-0.1,0.3-0.3,0.2-0.5c-0.1-0.2-0.3-0.3-0.5-0.2c-0.2,0.1-0.3,0.3-0.2,0.5
			C59,30.2,59.2,30.2,59.3,30.2z"/>
		<path class="st2" d="M60.3,29.4c0.1,0.2,0.3,0.3,0.5,0.2c0.2-0.1,0.3-0.3,0.2-0.5c-0.1-0.2-0.3-0.3-0.5-0.2
			C60.3,29,60.2,29.2,60.3,29.4z"/>
		<path class="st2" d="M62.1,29C62.2,29,62.2,28.9,62.1,29c-0.1-0.2-0.3-0.3-0.5-0.4c0,0.1,0,0.2,0,0.2C61.8,29,62,29.1,62.1,29z"/>
		<path class="st2" d="M57.2,31.1c-0.1,0.1-0.2,0.2-0.2,0.3c0.1,0.1,0.2,0.2,0.2,0.3c0.1,0,0.2,0,0.3,0c0.2-0.1,0.3-0.3,0.2-0.5
			C57.6,31.1,57.4,31,57.2,31.1z"/>
		<path class="st2" d="M58.9,31.1c0.2-0.1,0.3-0.3,0.2-0.5c-0.1-0.2-0.3-0.3-0.5-0.2c-0.2,0.1-0.3,0.3-0.2,0.5
			C58.5,31.1,58.7,31.2,58.9,31.1z"/>
		<path class="st2" d="M60.3,30.5c0.2-0.1,0.3-0.3,0.2-0.5c-0.1-0.2-0.3-0.3-0.5-0.2c-0.2,0.1-0.3,0.3-0.2,0.5
			C59.9,30.5,60.1,30.6,60.3,30.5z"/>
		<path class="st2" d="M61.2,29.7c0.1,0.2,0.3,0.3,0.5,0.2c0.2-0.1,0.3-0.3,0.2-0.5c-0.1-0.2-0.3-0.3-0.5-0.2
			C61.2,29.4,61.2,29.6,61.2,29.7z"/>
		<path class="st2" d="M63.1,29.3C63.1,29.3,63.1,29.3,63.1,29.3c-0.1-0.1-0.3-0.1-0.5-0.2C62.7,29.3,62.9,29.4,63.1,29.3z"/>
		<path class="st2" d="M58.7,31.6c-0.1-0.2-0.3-0.3-0.5-0.2c-0.2,0.1-0.3,0.3-0.2,0.5c0.1,0.2,0.3,0.3,0.5,0.2
			C58.7,32,58.8,31.8,58.7,31.6z"/>
		<path class="st2" d="M59.9,31.5c0.2-0.1,0.3-0.3,0.2-0.5c-0.1-0.2-0.3-0.3-0.5-0.2c-0.2,0.1-0.3,0.3-0.2,0.5
			C59.5,31.5,59.7,31.5,59.9,31.5z"/>
		<path class="st2" d="M61.3,30.9c0.2-0.1,0.3-0.3,0.2-0.5c-0.1-0.2-0.3-0.3-0.5-0.2c-0.2,0.1-0.3,0.3-0.2,0.5
			C60.9,30.9,61.1,30.9,61.3,30.9z"/>
		<path class="st2" d="M62.7,30.3c0.2-0.1,0.3-0.3,0.2-0.5c-0.1-0.2-0.3-0.3-0.5-0.2c-0.2,0.1-0.3,0.3-0.2,0.5
			C62.3,30.3,62.5,30.4,62.7,30.3z"/>
		<path class="st2" d="M64.1,29.7c0.1,0,0.1-0.1,0.1-0.1c-0.2,0-0.4-0.1-0.6-0.1c0,0,0,0,0,0.1C63.7,29.7,63.9,29.8,64.1,29.7z"/>
		<path class="st2" d="M57.8,32.4C57.8,32.4,57.7,32.4,57.8,32.4c0,0.1,0,0.2,0.1,0.2c0.1,0.1,0.2,0.3,0.3,0.4
			c0.1-0.1,0.2-0.3,0.1-0.4C58.2,32.4,58,32.3,57.8,32.4z"/>
		<path class="st2" d="M59.6,32c-0.1-0.2-0.3-0.3-0.5-0.2c-0.2,0.1-0.3,0.3-0.2,0.5c0.1,0.2,0.3,0.3,0.5,0.2
			C59.6,32.3,59.7,32.1,59.6,32z"/>
		<path class="st2" d="M60.8,31.8c0.2-0.1,0.3-0.3,0.2-0.5c-0.1-0.2-0.3-0.3-0.5-0.2c-0.2,0.1-0.3,0.3-0.2,0.5
			C60.5,31.8,60.7,31.9,60.8,31.8z"/>
		<path class="st2" d="M62,30.6c-0.2,0.1-0.3,0.3-0.2,0.5c0.1,0.2,0.3,0.3,0.5,0.2c0.2-0.1,0.3-0.3,0.2-0.5
			C62.3,30.6,62.1,30.5,62,30.6z"/>
		<path class="st2" d="M63.6,30.6c0.2-0.1,0.3-0.3,0.2-0.5c-0.1-0.2-0.3-0.3-0.5-0.2c-0.2,0.1-0.3,0.3-0.2,0.5
			C63.2,30.6,63.5,30.7,63.6,30.6z"/>
		<path class="st2" d="M64.9,30.1c-0.1-0.2-0.2-0.3-0.3-0.5c0,0,0,0,0,0c0,0.1,0,0.2,0,0.3C64.6,30,64.8,30.1,64.9,30.1z"/>
		<path class="st2" d="M58.8,32.7c-0.2,0.1-0.3,0.3-0.2,0.5c0.1,0.2,0.3,0.3,0.5,0.2c0.2-0.1,0.3-0.3,0.2-0.5
			C59.2,32.7,59,32.7,58.8,32.7z"/>
		<path class="st2" d="M60.6,32.3c-0.1-0.2-0.3-0.3-0.5-0.2c-0.2,0.1-0.3,0.3-0.2,0.5c0.1,0.2,0.3,0.3,0.5,0.2
			C60.6,32.7,60.7,32.5,60.6,32.3z"/>
		<path class="st2" d="M62,31.7c-0.1-0.2-0.3-0.3-0.5-0.2c-0.2,0.1-0.3,0.3-0.2,0.5c0.1,0.2,0.3,0.3,0.5,0.2
			C62,32.1,62.1,31.9,62,31.7z"/>
		<path class="st2" d="M62.8,31.4c0.1,0.2,0.3,0.3,0.5,0.2c0.2-0.1,0.3-0.3,0.2-0.5C63.3,31,63.1,30.9,63,31
			C62.8,31,62.7,31.2,62.8,31.4z"/>
		<path class="st2" d="M64.8,30.5c-0.1-0.2-0.3-0.3-0.5-0.2c-0.2,0.1-0.3,0.3-0.2,0.5c0.1,0.2,0.3,0.3,0.5,0.2
			C64.8,30.9,64.9,30.7,64.8,30.5z"/>
		<path class="st2" d="M59.7,33.1c-0.2,0.1-0.3,0.3-0.2,0.5c0,0,0,0,0,0c0.2,0,0.4,0,0.6,0c0-0.1,0-0.2,0-0.3
			C60.1,33.1,59.9,33,59.7,33.1z"/>
		<path class="st2" d="M61.1,32.5c-0.2,0.1-0.3,0.3-0.2,0.5c0.1,0.2,0.3,0.3,0.5,0.2c0.2-0.1,0.3-0.3,0.2-0.5
			C61.5,32.5,61.3,32.4,61.1,32.5z"/>
		<path class="st2" d="M63,32.1c-0.1-0.2-0.3-0.3-0.5-0.2c-0.2,0.1-0.3,0.3-0.2,0.5c0.1,0.2,0.3,0.3,0.5,0.2
			C63,32.5,63,32.2,63,32.1z"/>
		<path class="st2" d="M63.9,31.3c-0.2,0.1-0.3,0.3-0.2,0.5c0.1,0.2,0.3,0.3,0.5,0.2c0.2-0.1,0.3-0.3,0.2-0.5
			C64.3,31.3,64.1,31.2,63.9,31.3z"/>
		<path class="st2" d="M65.3,30.7C65.3,30.7,65.3,30.7,65.3,30.7c-0.2,0.1-0.3,0.3-0.2,0.5c0.1,0.2,0.3,0.3,0.5,0.2
			c0,0,0.1,0,0.1-0.1C65.6,31.1,65.4,30.9,65.3,30.7z"/>
		<path class="st2" d="M60.7,33.4c-0.1,0-0.1,0.1-0.1,0.1c0.2,0,0.4,0,0.5,0C61,33.4,60.9,33.4,60.7,33.4z"/>
		<path class="st2" d="M62.1,32.8c-0.2,0.1-0.3,0.3-0.2,0.5c0.1,0.2,0.3,0.3,0.5,0.2c0.2-0.1,0.3-0.3,0.2-0.5
			C62.5,32.9,62.3,32.8,62.1,32.8z"/>
		<path class="st2" d="M63.5,32.3c-0.2,0.1-0.3,0.3-0.2,0.5c0.1,0.2,0.3,0.3,0.5,0.2c0.2-0.1,0.3-0.3,0.2-0.5
			C63.9,32.3,63.7,32.2,63.5,32.3z"/>
		<path class="st2" d="M64.9,31.7c-0.1,0-0.1,0.1-0.1,0.1c0.1,0,0.3-0.1,0.5-0.1C65.1,31.6,65,31.6,64.9,31.7z"/>
		<path class="st2" d="M63.1,33.2c-0.1,0.1-0.2,0.2-0.2,0.4c0.2,0,0.4,0,0.7,0c0-0.1,0-0.1,0-0.2C63.4,33.2,63.2,33.1,63.1,33.2z"/>
	</g>
	<g>
		<path class="st2" d="M52.7,15.5l0.4,0.9c0.1-0.1,0.3-0.2,0.4-0.3L53,14.9C52.9,15.1,52.8,15.3,52.7,15.5z"/>
		<path class="st2" d="M57.2,2.6C57.2,2.6,57.2,2.6,57.2,2.6C57.1,2.7,57,2.9,56.9,3l4,8.8c0.1-0.2,0.2-0.3,0.3-0.5l-3.9-8.5
			C57.3,2.7,57.2,2.6,57.2,2.6z"/>
		<path class="st2" d="M53.2,8.7l2.6,5.6c0.1-0.1,0.3-0.2,0.4-0.2l-2.7-5.9C53.4,8.4,53.3,8.5,53.2,8.7z"/>
		<path class="st2" d="M55.9,4.6l3.8,8.4c0.1,0,0.2,0,0.3,0.1c0-0.1,0.1-0.1,0.1-0.2l-4-8.8C56.1,4.3,56,4.5,55.9,4.6z"/>
		<path class="st2" d="M53.4,14.1c-0.1,0.2-0.2,0.3-0.2,0.5l0.6,1.2c0.1-0.1,0.3-0.2,0.4-0.3L53.4,14.1C53.4,14,53.4,14,53.4,14.1z"
			/>
		<path class="st2" d="M63.1,5.5l-0.5-1.2c-0.2-0.1-0.5-0.3-0.7-0.4l0.6,1.4C62.7,5.4,62.9,5.5,63.1,5.5z"/>
		<path class="st2" d="M53.6,13.5l0.8,1.7c0.1-0.1,0.3-0.2,0.4-0.3l-1-2.2C53.7,13,53.7,13.3,53.6,13.5z"/>
		<path class="st2" d="M53.8,12l1.2,2.7c0.1-0.1,0.3-0.2,0.4-0.3l-2-4.4C53.7,10.6,53.8,11.3,53.8,12z"/>
		<path class="st2" d="M63.6,4.9c-0.2-0.1-0.4-0.2-0.5-0.3l0.5,1c0.2,0.1,0.4,0.1,0.6,0.2L63.7,5C63.7,4.9,63.6,4.9,63.6,4.9z"/>
		<path class="st2" d="M56.4,3.8l4,8.8c0.1-0.2,0.2-0.3,0.3-0.5l-4-8.8C56.6,3.5,56.5,3.6,56.4,3.8z"/>
		<path class="st2" d="M49.1,19.3l0.4,0.5c0,0,0.1-0.1,0.2-0.2l-0.3-0.6C49.2,19.1,49.1,19.2,49.1,19.3z"/>
		<path class="st2" d="M53,9C53,9,53,9,53,9c0,0,0,0.1,0.1,0.3L53,9z"/>
		<path class="st2" d="M53.7,7.9l2.7,6c0.1-0.1,0.3-0.2,0.4-0.2L54,7.4C53.9,7.6,53.8,7.7,53.7,7.9z"/>
		<path class="st2" d="M62.4,7.1L63,8.5c0.1-0.2,0.2-0.3,0.3-0.5L63,7.3C62.8,7.3,62.6,7.2,62.4,7.1z"/>
		<path class="st2" d="M54.3,7.1l2.9,6.5c0.1-0.1,0.3-0.1,0.4-0.2l-3.1-6.8C54.5,6.7,54.4,6.9,54.3,7.1z"/>
		<path class="st2" d="M54.8,6.2l3.2,7c0.2-0.1,0.3-0.1,0.5-0.1l-3.3-7.4C55,5.9,54.9,6.1,54.8,6.2z"/>
		<path class="st2" d="M64.2,5.1L64.6,6c0.1-0.2,0.2-0.3,0.3-0.5l-0.2-0.5C64.5,5.1,64.3,5.1,64.2,5.1z"/>
		<path class="st2" d="M62,5.1l-0.6-1.3c-0.2-0.1-0.4-0.1-0.6-0.2l0.4,0.9C61.5,4.7,61.8,4.9,62,5.1z"/>
		<path class="st2" d="M55.3,5.4l3.5,7.6c0.2,0,0.3,0,0.5,0L55.6,5C55.5,5.1,55.4,5.3,55.3,5.4z"/>
		<path class="st2" d="M59.8,4.2l-0.3-0.6c-0.2,0-0.4,0-0.6-0.1l0.3,0.6C59.4,4.2,59.6,4.2,59.8,4.2z"/>
		<path class="st2" d="M51,17.8l0.1,0.3c0.1-0.1,0.2-0.2,0.4-0.4l-0.2-0.3C51.3,17.5,51.1,17.6,51,17.8z"/>
		<path class="st2" d="M51.6,17.1l0.2,0.4c0.1-0.1,0.2-0.2,0.4-0.3l-0.2-0.5C51.8,16.8,51.7,16.9,51.6,17.1z"/>
		<path class="st2" d="M60.3,4.2c0.1,0,0.3,0,0.5,0.1l-0.3-0.7c-0.1,0-0.2,0-0.4,0c0,0-0.1,0-0.1,0L60.3,4.2
			C60.2,4.2,60.2,4.2,60.3,4.2z"/>
		<path class="st2" d="M61.7,6.8c-0.3-0.3-0.4-0.5-0.6-0.6l1.4,3.1c0.1-0.2,0.2-0.3,0.3-0.5l-0.8-1.9C61.8,6.9,61.7,6.8,61.7,6.8z"
			/>
		<path class="st2" d="M52.2,16.3l0.3,0.6c0.1-0.1,0.2-0.2,0.4-0.3l-0.3-0.7C52.4,16,52.3,16.1,52.2,16.3z"/>
		<path class="st2" d="M50,18.6c-0.1,0-0.2,0.1-0.3,0.2l0.3,0.6c0.1-0.1,0.2-0.2,0.4-0.4L50,18.6C50.1,18.6,50.1,18.6,50,18.6z"/>
		<path class="st2" d="M60,5.7l2,4.4c0.1-0.2,0.2-0.3,0.3-0.5L60.6,6C60.5,6,60.2,5.9,60,5.7z"/>
		<path class="st2" d="M50.4,18.4l0.1,0.3c0.1-0.1,0.2-0.2,0.4-0.4L50.8,18C50.6,18.2,50.5,18.3,50.4,18.4z"/>
		<path class="st2" d="M58.5,4.4c0-0.2,0.2-0.2,0.4-0.2l-0.3-0.7c-0.2-0.1-0.5-0.2-0.7-0.3l3.5,7.8c0.1-0.2,0.2-0.3,0.3-0.5
			l-2.3-5.1C58.9,5,58.5,4.6,58.5,4.4z"/>
		<path class="st2" d="M65.4,4.7c-0.1,0.1-0.2,0.2-0.4,0.3l0.1,0.2C65.2,5,65.3,4.8,65.4,4.7c0.1,0,0.1-0.1,0.1-0.1
			C65.5,4.5,65.5,4.6,65.4,4.7z"/>
	</g>
	<g>
		<path class="st0" d="M66.7,1.8h-0.2h-7.9c-0.1,0-0.1,0-0.1,0c-0.2,0-0.4,0-0.6,0.2c0,0,0,0,0,0c0,0,0,0,0,0
			c-0.2,0.1-0.5,0.6-0.5,0.6c0,0.1,0.1,0.1,0.1,0.2l3.9,8.5c0.1-0.1,0.1-0.2,0.2-0.3l-3.5-7.8c0.2,0.1,0.4,0.2,0.7,0.3l0.3,0.7
			c-0.2,0-0.4,0.1-0.4,0.2c0,0.2,0.4,0.6,0.9,1l2.3,5.1c0.1-0.1,0.1-0.2,0.2-0.3l-2-4.4C60.2,5.9,60.5,6,60.6,6l1.6,3.6
			c0.1-0.1,0.1-0.2,0.2-0.3L61,6.1c0.2,0.1,0.3,0.3,0.6,0.6c0.1,0.1,0.2,0.1,0.3,0.2l0.8,1.9c0.1-0.1,0.1-0.2,0.2-0.3l-0.6-1.3
			c0.2,0.1,0.4,0.1,0.6,0.2L63.3,8c0.1-0.1,0.1-0.2,0.2-0.3c0.1-0.2,0.2-0.3,0.3-0.5C63.9,7,64,6.9,64,6.8c0.1-0.2,0.2-0.3,0.3-0.5
			c0.1-0.1,0.1-0.2,0.2-0.3l-0.4-0.9c0.2,0,0.4,0,0.5,0l0.2,0.5C65,5.4,65,5.3,65.1,5.2L65,4.9c0.2-0.1,0.3-0.2,0.4-0.3
			c0.1-0.1,0.1-0.1,0.1-0.1h0l1.1-1.7c0,0,0-0.1,0.1-0.1l0,0c0.1-0.1,0.1-0.2,0.2-0.3C67,2.2,67.2,1.8,66.7,1.8z M59.2,4.2L59,3.6
			c0.2,0,0.4,0.1,0.6,0.1l0.3,0.6C59.6,4.2,59.4,4.2,59.2,4.2z M60.3,4.2C60.2,4.2,60.2,4.2,60.3,4.2l-0.4-0.6c0,0,0.1,0,0.1,0
			c0.1,0,0.3,0,0.4,0l0.3,0.7C60.6,4.2,60.4,4.2,60.3,4.2z M61.2,4.5l-0.4-0.9c0.2,0,0.4,0.1,0.6,0.2L62,5.1
			C61.8,4.9,61.5,4.7,61.2,4.5z M62.5,5.4L61.9,4c0.2,0.1,0.5,0.2,0.7,0.4l0.5,1.2C62.9,5.5,62.7,5.4,62.5,5.4z M63.5,5.6l-0.5-1
			c0.2,0.1,0.4,0.2,0.5,0.3c0,0,0.1,0,0.1,0.1l0.4,0.9C63.9,5.8,63.7,5.7,63.5,5.6z"/>
		<path class="st0" d="M56.7,3.3l4,8.8c0.1-0.1,0.1-0.2,0.2-0.3l-4-8.8C56.8,3.1,56.8,3.2,56.7,3.3z"/>
		<path class="st0" d="M56.2,4.1l4,8.8c0.1-0.1,0.1-0.2,0.2-0.3l-4-8.8C56.3,3.9,56.2,4,56.2,4.1z"/>
		<path class="st0" d="M55.6,5l3.7,8.1c0.1,0,0.3,0,0.4,0l-3.8-8.4C55.8,4.7,55.7,4.8,55.6,5z"/>
		<path class="st0" d="M55.1,5.8l3.3,7.4c0.1,0,0.2,0,0.3-0.1l-3.5-7.6C55.3,5.5,55.2,5.7,55.1,5.8z"/>
		<path class="st0" d="M54.6,6.6l3.1,6.8c0.1,0,0.2-0.1,0.3-0.1l-3.2-7C54.7,6.4,54.6,6.5,54.6,6.6z"/>
		<path class="st0" d="M54,7.4l2.9,6.3c0.1-0.1,0.2-0.1,0.3-0.1l-2.9-6.5C54.2,7.2,54.1,7.3,54,7.4z"/>
		<path class="st0" d="M53.5,8.2l2.7,5.9c0.1-0.1,0.2-0.1,0.3-0.2l-2.7-6C53.7,8,53.6,8.1,53.5,8.2z"/>
		<path class="st0" d="M53,9l0.1,0.3c0.1,0.2,0.2,0.4,0.3,0.8l2,4.4c0.1-0.1,0.2-0.1,0.3-0.2l-2.6-5.6C53.1,8.8,53.1,8.9,53,9z"/>
		<path class="st0" d="M53.8,12.7l1,2.2c0.1-0.1,0.2-0.1,0.3-0.2L53.8,12C53.8,12.3,53.8,12.5,53.8,12.7z"/>
		<path class="st0" d="M53.4,14l0.7,1.5c0.1-0.1,0.2-0.1,0.3-0.2l-0.8-1.7C53.6,13.7,53.5,13.8,53.4,14z"/>
		<path class="st0" d="M53,14.9l0.5,1.1c0.1-0.1,0.2-0.1,0.3-0.2l-0.6-1.2C53.1,14.7,53,14.8,53,14.9z"/>
		<path class="st0" d="M52.5,15.8l0.3,0.7c0.1-0.1,0.2-0.2,0.3-0.2l-0.4-0.9C52.6,15.6,52.5,15.7,52.5,15.8z"/>
		<path class="st0" d="M51.9,16.6l0.2,0.5c0.1-0.1,0.2-0.2,0.3-0.2l-0.3-0.6C52.1,16.4,52,16.5,51.9,16.6z"/>
		<path class="st0" d="M51.4,17.4l0.2,0.3c0.1-0.1,0.2-0.2,0.3-0.2l-0.2-0.4C51.5,17.2,51.5,17.3,51.4,17.4z"/>
		<path class="st0" d="M50.8,18l0.1,0.3c0.1-0.1,0.2-0.2,0.3-0.3L51,17.8C50.9,17.9,50.9,17.9,50.8,18z"/>
		<path class="st0" d="M50.1,18.6l0.2,0.4c0.1-0.1,0.2-0.2,0.3-0.3l-0.1-0.3C50.3,18.5,50.2,18.5,50.1,18.6z"/>
		<path class="st0" d="M49.4,18.9l0.3,0.6c0.1-0.1,0.2-0.2,0.3-0.3l-0.3-0.6C49.6,18.8,49.5,18.9,49.4,18.9z"/>
	</g>
	<path class="st1" d="M92.5,33.6c-0.2-0.1-0.2-0.4-0.1-0.6c0.1-0.2,0.4-0.2,0.6-0.1c0.2,0.1,0.2,0.4,0.1,0.5
		c0.2-0.1,0.3-0.1,0.5-0.2c-0.1-0.1-0.1-0.3,0-0.5c0.1-0.2,0.4-0.2,0.6-0.1c0.1,0.1,0.1,0.1,0.2,0.2c0.1,0,0.2-0.1,0.2-0.1
		c0.1-0.2,0.2-0.5,0.3-0.8c-0.1,0-0.1,0-0.2-0.1c-0.2-0.1-0.2-0.4-0.1-0.6c0.1-0.2,0.4-0.2,0.6-0.1c0,0,0.1,0.1,0.1,0.1
		c0.2-0.3,0.3-0.5,0.5-0.7c0,0-0.1,0-0.1,0c-0.2-0.1-0.2-0.4-0.1-0.6c0.1-0.2,0.4-0.2,0.6-0.1c0.1,0,0.1,0.1,0.1,0.2
		c0.2-0.2,0.5-0.4,0.7-0.6c0.2-0.2,0.5-0.3,0.7-0.6c-0.1-0.1-0.1-0.3,0-0.4c0.1-0.2,0.4-0.2,0.6-0.1l0,0c0.2-0.2,0.4-0.4,0.6-0.6
		c0,0-0.1,0-0.1,0c-0.2-0.1-0.2-0.4-0.1-0.6c0.1-0.2,0.4-0.2,0.6-0.1c0.1,0,0.1,0.1,0.1,0.1c0.2-0.2,0.4-0.5,0.6-0.8
		c-0.1,0-0.1,0-0.2-0.1c-0.2-0.1-0.2-0.4-0.1-0.6c0.1-0.2,0.4-0.2,0.6-0.1c0,0,0.1,0.1,0.1,0.1c0.2-0.3,0.3-0.5,0.5-0.8
		c0,0-0.1,0-0.1,0c-0.2-0.1-0.2-0.4-0.1-0.6c0.1-0.2,0.4-0.2,0.5-0.1c0.1-0.3,0.3-0.6,0.4-0.9c-0.1-0.1-0.1-0.3,0-0.4
		c0-0.1,0.1-0.1,0.2-0.1c0.1-0.2,0.2-0.5,0.3-0.7c0,0,0,0.1,0,0.1c-0.1,0.2-0.4,0.2-0.6,0.1c-0.2-0.1-0.2-0.4-0.1-0.6
		c0.1-0.2,0.4-0.2,0.6-0.1c0.1,0.1,0.2,0.3,0.2,0.4c0.1-0.3,0.2-0.6,0.3-0.9c0-0.1,0-0.1,0-0.2c-0.2-0.1-0.2-0.4-0.1-0.6
		c0.1-0.1,0.2-0.1,0.3-0.2c0-0.2,0.1-0.3,0.1-0.5c-0.1,0.1-0.4,0.2-0.5,0.1c-0.2-0.1-0.2-0.4-0.1-0.6c0.1-0.2,0.4-0.2,0.6-0.1
		c0.1,0.1,0.1,0.1,0.2,0.2c0.1-0.3,0.2-0.7,0.3-1c-0.1-0.1-0.1-0.3,0-0.5c0-0.1,0.1-0.1,0.2-0.1c0-0.2,0.1-0.4,0.1-0.5
		c-0.1,0.1-0.3,0.1-0.5,0c-0.2-0.1-0.2-0.4-0.1-0.6c0.1-0.2,0.4-0.2,0.6-0.1c0.1,0,0.1,0.1,0.1,0.2c0.1-0.4,0.2-0.7,0.2-1
		c-0.1-0.1-0.1-0.3,0-0.4c0,0,0,0,0.1-0.1c0-0.2,0.1-0.3,0.1-0.5c-0.1,0-0.2,0-0.3-0.1c-0.2-0.1-0.2-0.4-0.1-0.6
		c0.1-0.1,0.2-0.2,0.3-0.2c0-0.2-0.1-0.3-0.1-0.5c-0.1,0-0.3,0-0.4,0c-0.2-0.1-0.2-0.4-0.1-0.6c0.1-0.1,0.2-0.1,0.3-0.2
		c0-0.1-0.1-0.2-0.1-0.4c-0.1,0-0.2,0-0.3-0.1c-0.2-0.1-0.2-0.4-0.1-0.6c0-0.1,0.1-0.1,0.1-0.1c-0.1-0.2-0.1-0.3-0.2-0.5
		c0,0-0.1,0-0.1,0c-0.2-0.1-0.2-0.3-0.1-0.5c-0.3-0.6-0.6-1.2-1-1.8c0,0,0,0,0,0c-0.1,0.2-0.4,0.2-0.6,0.1c-0.2-0.1-0.2-0.4-0.1-0.6
		c0.1-0.1,0.2-0.2,0.3-0.2c-0.1-0.1-0.2-0.3-0.3-0.4c-0.1,0-0.1,0-0.2-0.1c0,0,0,0-0.1-0.1c-0.1,0.4-0.2,0.8-0.3,1.1
		c0,0,0,0.1,0,0.1c-0.1,0.2-0.2,0.5-0.3,0.7c0.1-0.1,0.3,0,0.4,0c0.2,0.1,0.2,0.4,0.1,0.6c-0.1,0.2-0.4,0.2-0.6,0.1
		c-0.1-0.1-0.1-0.1-0.1-0.2c-0.1,0.3-0.3,0.6-0.5,0.9c0,0,0.1,0,0.1,0c0.2,0.1,0.2,0.4,0.1,0.6c-0.1,0.2-0.4,0.2-0.6,0.1
		c0,0,0,0-0.1-0.1c-0.2,0.3-0.4,0.5-0.6,0.7c0,0,0.1,0,0.1,0.1c0.2,0.1,0.2,0.4,0.1,0.6c-0.1,0.2-0.4,0.2-0.6,0.1
		c-0.1-0.1-0.1-0.1-0.1-0.2c-0.5,0.5-1,0.9-1.4,1.2c0.1,0.1,0,0.3,0,0.4c-0.1,0.2-0.4,0.2-0.6,0.1c0,0,0,0,0,0
		c-0.5,0.3-0.9,0.5-1.2,0.7c0.2,0.8,0.3,1.6,0.3,2.5c0,0.5,0,0.9-0.1,1.3c0,0,0.1,0,0.1,0c0.2,0.1,0.2,0.4,0.1,0.6
		c-0.1,0.1-0.2,0.2-0.3,0.2c0,0.2-0.1,0.5-0.2,0.7c0,0,0-0.1,0.1-0.1c0.1-0.2,0.4-0.2,0.6-0.1c0.2,0.1,0.2,0.4,0.1,0.6
		c-0.1,0.2-0.4,0.2-0.6,0.1c-0.1-0.1-0.2-0.3-0.2-0.4c-0.1,0.4-0.2,0.7-0.4,1.1c0,0,0,0,0,0c0.2,0.1,0.2,0.4,0.1,0.6
		c-0.1,0.2-0.3,0.2-0.5,0.1c-0.1,0.3-0.3,0.5-0.5,0.8c0.1,0.1,0.1,0.3,0,0.5c-0.1,0.1-0.3,0.2-0.4,0.1c-0.2,0.2-0.4,0.4-0.6,0.6
		c0,0,0,0,0,0c0.2,0.1,0.2,0.4,0.1,0.6c-0.1,0.2-0.4,0.2-0.6,0.1c-0.1,0-0.1-0.1-0.1-0.2c-0.5,0.4-1.1,0.7-1.7,0.9
		c0,0,0.1,0,0.1,0.1c0.2,0.1,0.2,0.4,0.1,0.6c-0.1,0.2-0.4,0.2-0.6,0.1c-0.2-0.1-0.2-0.4-0.1-0.6c-0.2,0.1-0.4,0.1-0.6,0.2
		c0.1,0.1,0.2,0.3,0,0.5c-0.1,0.2-0.4,0.2-0.6,0.1c-0.2-0.1-0.2-0.3-0.1-0.5c0,0-0.1,0-0.1,0c-0.1,0-0.3,0-0.4,0
		c0.1,0.1,0.1,0.3,0,0.4c-0.1,0.2-0.4,0.2-0.6,0.1c0,0-0.1-0.1-0.1-0.1c-0.1,0.6-0.1,1.3-0.2,2c0,0,0.1,0,0.1,0
		c0.2,0.1,0.2,0.4,0.1,0.6c-0.1,0.1-0.2,0.2-0.3,0.2c0,0.2-0.1,0.4-0.1,0.5c0,0,0,0,0,0c0.1-0.2,0.4-0.2,0.6-0.1
		c0.2,0.1,0.2,0.4,0.1,0.6c-0.1,0.2-0.4,0.2-0.6,0.1c-0.1-0.1-0.2-0.2-0.2-0.3c-0.1,0.4-0.2,0.7-0.3,1c0.2,0.1,0.2,0.4,0.1,0.6
		c-0.1,0.1-0.3,0.2-0.4,0.2c-0.3,0.7-0.3,1.3-0.4,1.9c0.1,0.1,0.2,0.4,0.1,0.5c0.4,0,0.8,0,1.1,0c0.2,0,0.4,0,0.6,0
		C89.3,34.4,91,34.1,92.5,33.6C92.5,33.6,92.5,33.6,92.5,33.6z M92.9,29.3c0.1-0.2,0.4-0.2,0.6-0.1c0.2,0.1,0.2,0.4,0.1,0.6
		c-0.1,0.2-0.4,0.2-0.6,0.1C92.8,29.7,92.7,29.4,92.9,29.3z M92.7,28.6c-0.2-0.1-0.2-0.4-0.1-0.6c0.1-0.2,0.4-0.2,0.6-0.1
		c0.2,0.1,0.2,0.4,0.1,0.6C93.1,28.7,92.9,28.7,92.7,28.6z M95.5,23.9c0.1-0.2,0.4-0.2,0.6-0.1c0.2,0.1,0.2,0.4,0.1,0.6
		c-0.1,0.2-0.4,0.2-0.6,0.1C95.4,24.4,95.4,24.1,95.5,23.9z M95.4,27c-0.1,0.2-0.4,0.2-0.6,0.1c-0.2-0.1-0.2-0.4-0.1-0.6
		c0.1-0.2,0.4-0.2,0.6-0.1C95.5,26.6,95.6,26.8,95.4,27z M96.2,21.4c0.1-0.2,0.4-0.2,0.6-0.1c0.2,0.1,0.2,0.4,0.1,0.6
		c-0.1,0.2-0.4,0.2-0.6,0.1C96.1,21.9,96.1,21.6,96.2,21.4z M95.7,25.2c0.1-0.2,0.4-0.2,0.6-0.1c0.2,0.1,0.2,0.4,0.1,0.6
		c-0.1,0.2-0.4,0.2-0.6,0.1C95.7,25.6,95.6,25.4,95.7,25.2z M96.5,22.6c0.1-0.2,0.4-0.2,0.6-0.1c0.2,0.1,0.2,0.4,0.1,0.6
		c-0.1,0.2-0.4,0.2-0.6,0.1C96.4,23,96.3,22.8,96.5,22.6z M96.7,23.8c0.1-0.2,0.4-0.2,0.6-0.1c0.2,0.1,0.2,0.4,0.1,0.6
		c-0.1,0.2-0.4,0.2-0.6,0.1C96.6,24.3,96.6,24,96.7,23.8z M97.4,21.2c0.1-0.2,0.4-0.2,0.6-0.1c0.2,0.1,0.2,0.4,0.1,0.6
		c-0.1,0.2-0.4,0.2-0.6,0.1C97.3,21.7,97.3,21.4,97.4,21.2z M96.9,25c0.1-0.2,0.4-0.2,0.6-0.1c0.2,0.1,0.2,0.4,0.1,0.6
		c-0.1,0.2-0.4,0.2-0.6,0.1C96.9,25.4,96.8,25.2,96.9,25z M97.7,22.5c0.1-0.2,0.4-0.2,0.6-0.1c0.2,0.1,0.2,0.4,0.1,0.6
		c-0.1,0.2-0.4,0.2-0.6,0.1C97.6,22.9,97.5,22.6,97.7,22.5z M98.4,19.9c0.1-0.2,0.4-0.2,0.6-0.1c0.2,0.1,0.2,0.4,0.1,0.6
		c-0.1,0.2-0.4,0.2-0.6,0.1C98.3,20.3,98.3,20.1,98.4,19.9z M97.9,23.6c0.1-0.2,0.4-0.2,0.6-0.1c0.2,0.1,0.2,0.4,0.1,0.6
		c-0.1,0.2-0.4,0.2-0.6,0.1C97.8,24.1,97.8,23.8,97.9,23.6z M98.6,21.1c0.1-0.2,0.4-0.2,0.6-0.1c0.2,0.1,0.2,0.4,0.1,0.6
		c-0.1,0.2-0.4,0.2-0.6,0.1C98.6,21.5,98.5,21.3,98.6,21.1z M99.4,18.5c0.1-0.2,0.4-0.2,0.6-0.1c0.2,0.1,0.2,0.4,0.1,0.6
		c-0.1,0.2-0.4,0.2-0.6,0.1C99.3,18.9,99.2,18.7,99.4,18.5z M98.9,22.3c0.1-0.2,0.4-0.2,0.6-0.1c0.2,0.1,0.2,0.4,0.1,0.6
		c-0.1,0.2-0.4,0.2-0.6,0.1C98.8,22.7,98.7,22.4,98.9,22.3z M99.6,19.7c0.1-0.2,0.4-0.2,0.6-0.1c0.2,0.1,0.2,0.4,0.1,0.6
		c-0.1,0.2-0.4,0.2-0.6,0.1C99.5,20.2,99.5,19.9,99.6,19.7z M100.3,17.2c0.1-0.2,0.4-0.2,0.6-0.1c0.2,0.1,0.2,0.4,0.1,0.6
		c-0.1,0.2-0.4,0.2-0.6,0.1C100.2,17.6,100.2,17.3,100.3,17.2z M99.8,20.9c0.1-0.2,0.4-0.2,0.6-0.1c0.2,0.1,0.2,0.4,0.1,0.6
		c-0.1,0.2-0.4,0.2-0.6,0.1C99.8,21.3,99.7,21.1,99.8,20.9z M100.6,18.4c0.1-0.2,0.4-0.2,0.6-0.1c0.2,0.1,0.2,0.4,0.1,0.6
		c-0.1,0.2-0.4,0.2-0.6,0.1C100.5,18.8,100.4,18.6,100.6,18.4z M100.8,19.5c0.1-0.2,0.4-0.2,0.6-0.1c0.2,0.1,0.2,0.4,0.1,0.6
		c-0.1,0.2-0.4,0.2-0.6,0.1C100.7,20,100.7,19.7,100.8,19.5z M101.5,17c0.1-0.2,0.4-0.2,0.6-0.1c0.2,0.1,0.2,0.4,0.1,0.6
		c-0.1,0.2-0.4,0.2-0.6,0.1C101.5,17.5,101.4,17.2,101.5,17z M101.9,16.3c-0.1,0.2-0.4,0.2-0.6,0.1c-0.2-0.1-0.2-0.4-0.1-0.6
		c0.1-0.2,0.4-0.2,0.6-0.1C102,15.8,102.1,16.1,101.9,16.3z M101.7,15.1c-0.1,0.2-0.4,0.2-0.6,0.1c-0.2-0.1-0.2-0.4-0.1-0.6
		c0.1-0.2,0.4-0.2,0.6-0.1C101.8,14.7,101.8,14.9,101.7,15.1z M101.5,13.9c-0.1,0.2-0.4,0.2-0.6,0.1c-0.2-0.1-0.2-0.4-0.1-0.6
		c0.1-0.2,0.4-0.2,0.6-0.1C101.5,13.4,101.6,13.7,101.5,13.9z M100.7,16.5c-0.1,0.2-0.4,0.2-0.6,0.1c-0.2-0.1-0.2-0.4-0.1-0.6
		c0.1-0.2,0.4-0.2,0.6-0.1C100.8,16,100.9,16.3,100.7,16.5z M100.5,15.2c-0.1,0.2-0.4,0.2-0.6,0.1c-0.2-0.1-0.2-0.4-0.1-0.6
		c0.1-0.2,0.4-0.2,0.6-0.1C100.6,14.8,100.6,15,100.5,15.2z M99.8,17.8c-0.1,0.2-0.4,0.2-0.6,0.1c-0.2-0.1-0.2-0.4-0.1-0.6
		c0.1-0.2,0.4-0.2,0.6-0.1C99.9,17.4,99.9,17.6,99.8,17.8z M99.5,16.6c-0.1,0.2-0.4,0.2-0.6,0.1c-0.2-0.1-0.2-0.4-0.1-0.6
		c0.1-0.2,0.4-0.2,0.6-0.1C99.6,16.2,99.7,16.4,99.5,16.6z M98.8,19.2c-0.1,0.2-0.4,0.2-0.6,0.1c-0.2-0.1-0.2-0.4-0.1-0.6
		c0.1-0.2,0.4-0.2,0.6-0.1C98.9,18.7,98.9,19,98.8,19.2z M98.6,17.9c-0.1,0.2-0.4,0.2-0.6,0.1c-0.2-0.1-0.2-0.4-0.1-0.6
		c0.1-0.2,0.4-0.2,0.6-0.1C98.6,17.5,98.7,17.8,98.6,17.9z M97.9,20.5c-0.1,0.2-0.4,0.2-0.6,0.1c-0.2-0.1-0.2-0.4-0.1-0.6
		c0.1-0.2,0.4-0.2,0.6-0.1C97.9,20.1,98,20.4,97.9,20.5z M97.6,19.3c-0.1,0.2-0.4,0.2-0.6,0.1c-0.2-0.1-0.2-0.4-0.1-0.6
		c0.1-0.2,0.4-0.2,0.6-0.1C97.7,18.9,97.7,19.1,97.6,19.3z M97.4,18.2c-0.1,0.2-0.4,0.2-0.6,0.1c-0.2-0.1-0.2-0.4-0.1-0.6
		c0.1-0.2,0.4-0.2,0.6-0.1C97.4,17.7,97.5,18,97.4,18.2z M96.6,20.7c-0.1,0.2-0.4,0.2-0.6,0.1c-0.2-0.1-0.2-0.4-0.1-0.6
		c0.1-0.2,0.4-0.2,0.6-0.1C96.7,20.2,96.8,20.5,96.6,20.7z M96.4,19.5c-0.1,0.2-0.4,0.2-0.6,0.1c-0.2-0.1-0.2-0.4-0.1-0.6
		c0.1-0.2,0.4-0.2,0.6-0.1C96.5,19.1,96.5,19.3,96.4,19.5z M95.9,23.3c-0.1,0.2-0.4,0.2-0.6,0.1c-0.2-0.1-0.2-0.4-0.1-0.6
		c0.1-0.2,0.4-0.2,0.6-0.1C96,22.8,96,23.1,95.9,23.3z M95.2,25.8c-0.1,0.2-0.4,0.2-0.6,0.1c-0.2-0.1-0.2-0.4-0.1-0.6
		c0.1-0.2,0.4-0.2,0.6-0.1C95.3,25.3,95.3,25.6,95.2,25.8z M94.5,28.4c-0.1,0.2-0.4,0.2-0.6,0.1c-0.2-0.1-0.2-0.4-0.1-0.6
		c0.1-0.2,0.4-0.2,0.6-0.1C94.6,27.9,94.6,28.2,94.5,28.4z M94.2,27.1c-0.1,0.2-0.4,0.2-0.6,0.1c-0.2-0.1-0.2-0.4-0.1-0.6
		c0.1-0.2,0.4-0.2,0.6-0.1C94.3,26.7,94.3,27,94.2,27.1z M93.1,30.4c0.1-0.2,0.4-0.2,0.6-0.1c0.2,0.1,0.2,0.4,0.1,0.6
		c-0.1,0.2-0.4,0.2-0.6,0.1C93,30.9,93,30.6,93.1,30.4z M94,32.1c-0.1,0.2-0.4,0.2-0.6,0.1c-0.2-0.1-0.2-0.4-0.1-0.6
		c0.1-0.2,0.4-0.2,0.6-0.1C94.1,31.7,94.1,31.9,94,32.1z M94,29.1c0.1-0.2,0.4-0.2,0.6-0.1c0.2,0.1,0.2,0.4,0.1,0.6
		c-0.1,0.2-0.4,0.2-0.6,0.1C94,29.5,93.9,29.2,94,29.1z M95,30.8c-0.1,0.2-0.4,0.2-0.6,0.1c-0.2-0.1-0.2-0.4-0.1-0.6
		c0.1-0.2,0.4-0.2,0.6-0.1C95.1,30.3,95.1,30.6,95,30.8z M95,27.7c0.1-0.2,0.4-0.2,0.6-0.1c0.2,0.1,0.2,0.4,0.1,0.6
		c-0.1,0.2-0.4,0.2-0.6,0.1C94.9,28.1,94.9,27.9,95,27.7z M95.9,29.4c-0.1,0.2-0.4,0.2-0.6,0.1c-0.2-0.1-0.2-0.4-0.1-0.6
		c0.1-0.2,0.4-0.2,0.6-0.1C96,29,96.1,29.2,95.9,29.4z M96,26.3c0.1-0.2,0.4-0.2,0.6-0.1c0.2,0.1,0.2,0.4,0.1,0.6
		c-0.1,0.2-0.4,0.2-0.6,0.1C95.9,26.8,95.8,26.5,96,26.3z M96.2,27.6c0.1-0.2,0.4-0.2,0.6-0.1c0.2,0.1,0.2,0.4,0.1,0.6
		c-0.1,0.2-0.4,0.2-0.6,0.1C96.1,28,96.1,27.8,96.2,27.6z M97.1,29.2c-0.1,0.2-0.4,0.2-0.6,0.1c-0.2-0.1-0.2-0.4-0.1-0.6
		c0.1-0.2,0.4-0.2,0.6-0.1C97.2,28.8,97.3,29,97.1,29.2z M97.2,26.2c0.1-0.2,0.4-0.2,0.6-0.1c0.2,0.1,0.2,0.4,0.1,0.6
		c-0.1,0.2-0.4,0.2-0.6,0.1C97.1,26.6,97.1,26.4,97.2,26.2z M98.1,27.8c-0.1,0.2-0.4,0.2-0.6,0.1c-0.2-0.1-0.2-0.4-0.1-0.6
		c0.1-0.2,0.4-0.2,0.6-0.1C98.2,27.4,98.2,27.7,98.1,27.8z M98.2,24.9c0.1-0.2,0.4-0.2,0.6-0.1c0.2,0.1,0.2,0.4,0.1,0.6
		c-0.1,0.2-0.4,0.2-0.6,0.1C98.1,25.3,98,25,98.2,24.9z M99.1,26.5c-0.1,0.2-0.4,0.2-0.6,0.1c-0.2-0.1-0.2-0.4-0.1-0.6
		c0.1-0.2,0.4-0.2,0.6-0.1C99.1,26,99.2,26.3,99.1,26.5z M99.1,23.5c0.1-0.2,0.4-0.2,0.6-0.1c0.2,0.1,0.2,0.4,0.1,0.6
		c-0.1,0.2-0.4,0.2-0.6,0.1C99,23.9,99,23.7,99.1,23.5z M100,25.1c-0.1,0.2-0.4,0.2-0.6,0.1c-0.2-0.1-0.2-0.4-0.1-0.6
		c0.1-0.2,0.4-0.2,0.6-0.1C100.1,24.7,100.1,24.9,100,25.1z M100.1,22.1c0.1-0.2,0.4-0.2,0.6-0.1c0.2,0.1,0.2,0.4,0.1,0.6
		c-0.1,0.2-0.4,0.2-0.6,0.1C100,22.6,100,22.3,100.1,22.1z M101,23.8c-0.1,0.2-0.4,0.2-0.6,0.1c-0.2-0.1-0.2-0.4-0.1-0.6
		c0.1-0.2,0.4-0.2,0.6-0.1C101.1,23.3,101.1,23.6,101,23.8z M101.7,21.2c-0.1,0.2-0.4,0.2-0.6,0.1c-0.2-0.1-0.2-0.4-0.1-0.6
		c0.1-0.2,0.4-0.2,0.6-0.1C101.8,20.8,101.8,21.1,101.7,21.2z M102.4,18.7c-0.1,0.2-0.4,0.2-0.6,0.1c-0.2-0.1-0.2-0.4-0.1-0.6
		c0.1-0.2,0.4-0.2,0.6-0.1C102.5,18.2,102.6,18.5,102.4,18.7z M103.2,16.1c-0.1,0.2-0.4,0.2-0.6,0.1c-0.2-0.1-0.2-0.4-0.1-0.6
		c0.1-0.2,0.4-0.2,0.6-0.1C103.3,15.7,103.3,16,103.2,16.1z M102.9,14.9c-0.1,0.2-0.4,0.2-0.6,0.1c-0.2-0.1-0.2-0.4-0.1-0.6
		c0.1-0.2,0.4-0.2,0.6-0.1C103,14.5,103,14.7,102.9,14.9z M102.7,13.7c-0.1,0.2-0.4,0.2-0.6,0.1c-0.2-0.1-0.2-0.4-0.1-0.6
		c0.1-0.2,0.4-0.2,0.6-0.1C102.8,13.3,102.8,13.6,102.7,13.7z M102.4,12.5c-0.1,0.2-0.4,0.2-0.6,0.1c-0.2-0.1-0.2-0.4-0.1-0.6
		c0.1-0.2,0.4-0.2,0.6-0.1C102.5,12.1,102.5,12.3,102.4,12.5z M102.2,11.4c-0.1,0.2-0.4,0.2-0.6,0.1c-0.2-0.1-0.2-0.4-0.1-0.6
		c0.1-0.2,0.4-0.2,0.6-0.1C102.3,10.9,102.3,11.2,102.2,11.4z M101.3,9.7c0.1-0.2,0.4-0.2,0.6-0.1c0.2,0.1,0.2,0.4,0.1,0.6
		c-0.1,0.2-0.4,0.2-0.6,0.1C101.2,10.1,101.1,9.8,101.3,9.7z M101.2,12.7c-0.1,0.2-0.4,0.2-0.6,0.1c-0.2-0.1-0.2-0.4-0.1-0.6
		c0.1-0.2,0.4-0.2,0.6-0.1C101.3,12.3,101.4,12.5,101.2,12.7z M100.3,11c0.1-0.2,0.4-0.2,0.6-0.1c0.2,0.1,0.2,0.4,0.1,0.6
		c-0.1,0.2-0.4,0.2-0.6,0.1C100.2,11.4,100.2,11.2,100.3,11z M100.3,14.1c-0.1,0.2-0.4,0.2-0.6,0.1c-0.2-0.1-0.2-0.4-0.1-0.6
		c0.1-0.2,0.4-0.2,0.6-0.1C100.3,13.6,100.4,13.9,100.3,14.1z M99.3,12.4c0.1-0.2,0.4-0.2,0.6-0.1c0.2,0.1,0.2,0.4,0.1,0.6
		c-0.1,0.2-0.4,0.2-0.6,0.1C99.3,12.8,99.2,12.6,99.3,12.4z M99.3,15.4c-0.1,0.2-0.4,0.2-0.6,0.1c-0.2-0.1-0.2-0.4-0.1-0.6
		c0.1-0.2,0.4-0.2,0.6-0.1C99.4,15,99.4,15.3,99.3,15.4z M98.4,13.7c0.1-0.2,0.4-0.2,0.6-0.1c0.2,0.1,0.2,0.4,0.1,0.6
		c-0.1,0.2-0.4,0.2-0.6,0.1C98.3,14.2,98.2,13.9,98.4,13.7z M98.3,16.8c-0.1,0.2-0.4,0.2-0.6,0.1c-0.2-0.1-0.2-0.4-0.1-0.6
		c0.1-0.2,0.4-0.2,0.6-0.1C98.4,16.4,98.5,16.6,98.3,16.8z M98.1,15.6c-0.1,0.2-0.4,0.2-0.6,0.1c-0.2-0.1-0.2-0.4-0.1-0.6
		c0.1-0.2,0.4-0.2,0.6-0.1C98.2,15.1,98.2,15.4,98.1,15.6z M97.2,13.9c0.1-0.2,0.4-0.2,0.6-0.1c0.2,0.1,0.2,0.4,0.1,0.6
		c-0.1,0.2-0.4,0.2-0.6,0.1C97.1,14.4,97.1,14.1,97.2,13.9z M97.1,16.9c-0.1,0.2-0.4,0.2-0.6,0.1c-0.2-0.1-0.2-0.4-0.1-0.6
		c0.1-0.2,0.4-0.2,0.6-0.1C97.2,16.5,97.2,16.7,97.1,16.9z M96.2,15.3c0.1-0.2,0.4-0.2,0.6-0.1c0.2,0.1,0.2,0.4,0.1,0.6
		c-0.1,0.2-0.4,0.2-0.6,0.1C96.1,15.7,96.1,15.5,96.2,15.3z M95.1,16c-0.2-0.1-0.2-0.4-0.1-0.6c0.1-0.2,0.4-0.2,0.6-0.1
		c0.2,0.1,0.2,0.4,0.1,0.6C95.5,16.1,95.3,16.1,95.1,16z M95.3,16.7c0.1-0.2,0.4-0.2,0.6-0.1c0.2,0.1,0.2,0.4,0.1,0.6
		c-0.1,0.2-0.4,0.2-0.6,0.1C95.2,17.1,95.1,16.8,95.3,16.7z M95.5,17.8c0.1-0.2,0.4-0.2,0.6-0.1c0.2,0.1,0.2,0.4,0.1,0.6
		c-0.1,0.2-0.4,0.2-0.6,0.1C95.4,18.2,95.4,18,95.5,17.8z M95,21.6c0.1-0.2,0.4-0.2,0.6-0.1c0.2,0.1,0.2,0.4,0.1,0.6
		c-0.1,0.2-0.4,0.2-0.6,0.1C94.9,22,94.9,21.7,95,21.6z M95,24.6c-0.1,0.2-0.4,0.2-0.6,0.1c-0.2-0.1-0.2-0.4-0.1-0.6
		c0.1-0.2,0.4-0.2,0.6-0.1C95,24.2,95.1,24.4,95,24.6z M94,22.9c0.1-0.2,0.4-0.2,0.6-0.1c0.2,0.1,0.2,0.4,0.1,0.6
		c-0.1,0.2-0.4,0.2-0.6,0.1C94,23.4,93.9,23.1,94,22.9z M94,26c-0.1,0.2-0.4,0.2-0.6,0.1c-0.2-0.1-0.2-0.4-0.1-0.6
		c0.1-0.2,0.4-0.2,0.6-0.1C94.1,25.5,94.1,25.8,94,26z M93.1,24.3c0.1-0.2,0.4-0.2,0.6-0.1c0.2,0.1,0.2,0.4,0.1,0.6
		c-0.1,0.2-0.4,0.2-0.6,0.1C93,24.7,92.9,24.5,93.1,24.3z M93,27.3c-0.1,0.2-0.4,0.2-0.6,0.1c-0.2-0.1-0.2-0.4-0.1-0.6
		c0.1-0.2,0.4-0.2,0.6-0.1C93.1,26.9,93.2,27.2,93,27.3z M92.3,29.9c-0.1,0.2-0.4,0.2-0.6,0.1c-0.2-0.1-0.2-0.4-0.1-0.6
		c0.1-0.2,0.4-0.2,0.6-0.1C92.4,29.4,92.4,29.7,92.3,29.9z M92.1,25.6c0.1-0.2,0.4-0.2,0.6-0.1c0.2,0.1,0.2,0.4,0.1,0.6
		c-0.1,0.2-0.4,0.2-0.6,0.1C92,26.1,92,25.8,92.1,25.6z M92.1,28.7c-0.1,0.2-0.4,0.2-0.6,0.1c-0.2-0.1-0.2-0.4-0.1-0.6
		c0.1-0.2,0.4-0.2,0.6-0.1C92.1,28.3,92.2,28.5,92.1,28.7z M91.8,27.5c-0.1,0.2-0.4,0.2-0.6,0.1c-0.2-0.1-0.2-0.4-0.1-0.6
		c0.1-0.2,0.4-0.2,0.6-0.1C91.9,27,91.9,27.3,91.8,27.5z M90.4,29.6c0.1-0.2,0.4-0.2,0.6-0.1c0.2,0.1,0.2,0.4,0.1,0.6
		c-0.1,0.2-0.4,0.2-0.6,0.1C90.3,30,90.3,29.8,90.4,29.6z M90.3,28.9c-0.2-0.1-0.2-0.4-0.1-0.6c0.1-0.2,0.4-0.2,0.6-0.1
		c0.2,0.1,0.2,0.4,0.1,0.6C90.7,29,90.5,29,90.3,28.9z M91.5,25.7c0.2,0.1,0.2,0.4,0.1,0.6c-0.1,0.2-0.4,0.2-0.6,0.1
		c-0.2-0.1-0.2-0.4-0.1-0.6C91,25.7,91.3,25.6,91.5,25.7z M90.5,27.1c0.2,0.1,0.2,0.4,0.1,0.6c-0.1,0.2-0.4,0.2-0.6,0.1
		c-0.2-0.1-0.2-0.4-0.1-0.6C90.1,27,90.3,27,90.5,27.1z M88.1,30.5c-0.2-0.1-0.2-0.4-0.1-0.6c0.1-0.2,0.4-0.2,0.6-0.1
		c0.2,0.1,0.2,0.4,0.1,0.6C88.5,30.6,88.3,30.6,88.1,30.5z M89.2,29.7c0.1-0.2,0.4-0.2,0.6-0.1c0.2,0.1,0.2,0.4,0.1,0.6
		c-0.1,0.2-0.4,0.2-0.6,0.1C89.1,30.1,89.1,29.9,89.2,29.7z M89.5,28.5c0.2,0.1,0.2,0.4,0.1,0.6c-0.1,0.2-0.4,0.2-0.6,0.1
		c-0.2-0.1-0.2-0.4-0.1-0.6C89.1,28.4,89.4,28.3,89.5,28.5z M89.3,27.2c0.2,0.1,0.2,0.4,0.1,0.6C89.3,28,89,28,88.8,27.9
		c-0.2-0.1-0.2-0.4-0.1-0.6C88.9,27.1,89.1,27.1,89.3,27.2z M87.6,28.1c-0.2-0.1-0.2-0.4-0.1-0.6c0.1-0.2,0.4-0.2,0.6-0.1
		c0.2,0.1,0.2,0.4,0.1,0.6C88.1,28.2,87.8,28.2,87.6,28.1z M87.8,28.7c0.1-0.2,0.4-0.2,0.6-0.1c0.2,0.1,0.2,0.4,0.1,0.6
		c-0.1,0.2-0.4,0.2-0.6,0.1C87.7,29.1,87.6,28.9,87.8,28.7z M87.1,31.3c0.1-0.2,0.4-0.2,0.6-0.1c0.2,0.1,0.2,0.4,0.1,0.6
		c-0.1,0.2-0.4,0.2-0.6,0.1C87,31.7,86.9,31.5,87.1,31.3z M86.2,33.2c-0.2-0.1-0.2-0.4-0.1-0.6c0.1-0.2,0.4-0.2,0.6-0.1
		c0.2,0.1,0.2,0.4,0.1,0.6C86.6,33.3,86.4,33.3,86.2,33.2z M86.4,34.4c-0.2-0.1-0.2-0.4-0.1-0.6c0.1-0.2,0.4-0.2,0.6-0.1
		c0.2,0.1,0.2,0.4,0.1,0.6C86.8,34.4,86.6,34.5,86.4,34.4z M87.4,33c-0.2-0.1-0.2-0.4-0.1-0.6c0.1-0.2,0.4-0.2,0.6-0.1
		c0.2,0.1,0.2,0.4,0.1,0.6C87.8,33.1,87.6,33.1,87.4,33z M88.2,34.1c-0.1,0.2-0.4,0.2-0.6,0.1c-0.2-0.1-0.2-0.4-0.1-0.6
		c0.1-0.2,0.4-0.2,0.6-0.1C88.3,33.7,88.3,34,88.2,34.1z M88.2,31.1c0.1-0.2,0.4-0.2,0.6-0.1c0.2,0.1,0.2,0.4,0.1,0.6
		c-0.1,0.2-0.4,0.2-0.6,0.1C88.2,31.5,88.1,31.3,88.2,31.1z M88.5,32.3c0.1-0.2,0.4-0.2,0.6-0.1c0.2,0.1,0.2,0.4,0.1,0.6
		C89,33,88.8,33,88.6,32.9C88.4,32.7,88.4,32.5,88.5,32.3z M89.4,33.9c-0.1,0.2-0.4,0.2-0.6,0.1c-0.2-0.1-0.2-0.4-0.1-0.6
		c0.1-0.2,0.4-0.2,0.6-0.1C89.5,33.5,89.5,33.7,89.4,33.9z M89.5,30.9c0.1-0.2,0.4-0.2,0.6-0.1c0.2,0.1,0.2,0.4,0.1,0.6
		c-0.1,0.2-0.4,0.2-0.6,0.1C89.4,31.4,89.3,31.1,89.5,30.9z M89.7,32.1c0.1-0.2,0.4-0.2,0.6-0.1c0.2,0.1,0.2,0.4,0.1,0.6
		c-0.1,0.2-0.4,0.2-0.6,0.1C89.6,32.5,89.6,32.3,89.7,32.1z M90.6,33.8c-0.1,0.2-0.4,0.2-0.6,0.1c-0.2-0.1-0.2-0.4-0.1-0.6
		c0.1-0.2,0.4-0.2,0.6-0.1C90.7,33.4,90.7,33.6,90.6,33.8z M90.7,30.7c0.1-0.2,0.4-0.2,0.6-0.1c0.2,0.1,0.2,0.4,0.1,0.6
		c-0.1,0.2-0.4,0.2-0.6,0.1C90.6,31.2,90.5,30.9,90.7,30.7z M90.9,32c0.1-0.2,0.4-0.2,0.6-0.1c0.2,0.1,0.2,0.4,0.1,0.6
		c-0.1,0.2-0.4,0.2-0.6,0.1C90.8,32.4,90.8,32.2,90.9,32z M91.8,33.6c-0.1,0.2-0.4,0.2-0.6,0.1c-0.2-0.1-0.2-0.4-0.1-0.6
		c0.1-0.2,0.4-0.2,0.6-0.1C91.9,33.2,91.9,33.4,91.8,33.6z M91.9,30.6c0.1-0.2,0.4-0.2,0.6-0.1c0.2,0.1,0.2,0.4,0.1,0.6
		c-0.1,0.2-0.4,0.2-0.6,0.1C91.8,31.1,91.8,30.8,91.9,30.6z M92.1,31.8c0.1-0.2,0.4-0.2,0.6-0.1c0.2,0.1,0.2,0.4,0.1,0.6
		c-0.1,0.2-0.4,0.2-0.6,0.1C92,32.2,92,32,92.1,31.8z"/>
	<g>
		<path class="st1" d="M76.7,4.1l-0.8,1.9c0.1,0.2,0.1,0.3,0.2,0.5l1.2-2.7C77,3.8,76.9,3.9,76.7,4.1z"/>
		<path class="st1" d="M77.9,3.3l-1.7,3.8c0.1,0.2,0.1,0.3,0.2,0.5l2-4.5C78.2,3.1,78.1,3.2,77.9,3.3z"/>
		<path class="st1" d="M79,2.6l-2.5,5.5c0.1,0.2,0.1,0.3,0.2,0.5l2.8-6.2C79.3,2.5,79.2,2.6,79,2.6z"/>
		<path class="st1" d="M80.1,2.2L77,9.3c0.1,0.2,0.1,0.3,0.2,0.5L80.6,2C80.4,2,80.3,2.1,80.1,2.2z"/>
		<path class="st1" d="M81.2,1.8l-3.8,8.7c0.1,0.2,0.1,0.3,0.2,0.5l4.1-9.3C81.5,1.7,81.3,1.7,81.2,1.8z"/>
		<path class="st1" d="M82.2,1.5l-4.5,10.1c0.1,0.2,0.1,0.3,0.2,0.5l4.7-10.7C82.4,1.4,82.3,1.4,82.2,1.5z"/>
		<path class="st1" d="M83.2,1.2l-5.1,11.4c0.1,0.2,0.1,0.3,0.2,0.5l5.3-12C83.4,1.2,83.3,1.2,83.2,1.2z"/>
		<path class="st1" d="M84.1,1.1l-5.7,12.7c0.1,0.2,0.1,0.3,0.2,0.5L84.5,1C84.4,1,84.2,1,84.1,1.1z"/>
		<path class="st1" d="M85,0.9l-6.2,14c0.1,0.2,0.1,0.3,0.2,0.5l0.1-0.2c0.3-1.2,0.7-2.2,1.4-3.1l5-11.2C85.3,0.9,85.1,0.9,85,0.9z"
			/>
		<path class="st1" d="M85.9,0.9l-4.5,10.1c0.2-0.2,0.4-0.3,0.6-0.5l4.3-9.6C86.2,0.9,86,0.9,85.9,0.9z"/>
		<path class="st1" d="M86.9,0.8c0,0-0.1,0-0.1,0L82.7,10c0.2-0.1,0.3-0.2,0.5-0.2l4-8.9C87.1,0.8,87,0.8,86.9,0.8z"/>
		<path class="st1" d="M87.7,0.8l-3.8,8.6c0.1-0.1,0.3-0.1,0.4-0.1L88,0.9C87.9,0.9,87.8,0.9,87.7,0.8z"/>
		<path class="st1" d="M88.5,0.9l-3.7,8.3c0.1,0,0.3-0.1,0.4-0.1l3.6-8.2C88.7,0.9,88.6,0.9,88.5,0.9z"/>
		<path class="st1" d="M89.3,1l-3.6,8c0.1,0,0.2,0,0.4,0l3.5-7.8c0,0,0-0.1,0-0.1C89.6,1,89.4,1,89.3,1z"/>
		<path class="st1" d="M86.9,9C87,9,87,9,87,9l1.7-3.8c0-0.4,0.1-0.8,0.2-1.2l-2.2,5C86.8,9,86.8,9,86.9,9z"/>
		<path class="st1" d="M88.6,6.5L87.5,9c0.1,0,0.2,0,0.3,0l0.7-1.6C88.6,7.1,88.6,6.9,88.6,6.5z"/>
		<path class="st1" d="M88.4,9.1c0.1,0,0.2,0,0.3,0.1c0,0,0-0.2-0.1-0.6L88.4,9.1z"/>
	</g>
	<g>
		<path class="st1" d="M81.5,24.5l-0.3,0.6c0,0.2,0.1,0.4,0.1,0.6l0.4-1C81.7,24.6,81.6,24.6,81.5,24.5z"/>
		<path class="st1" d="M82.2,25l-0.7,1.6c0,0.2,0.1,0.4,0.1,0.6l0.9-2C82.3,25.1,82.2,25.1,82.2,25z"/>
		<path class="st1" d="M82.8,25.4l-1.2,2.7c0,0.2,0.1,0.4,0.1,0.6l1.4-3.1C83,25.5,82.9,25.5,82.8,25.4z"/>
		<path class="st1" d="M83.6,25.8l-1.7,3.8c0,0.2,0.1,0.4,0.1,0.6l1.9-4.3C83.8,25.8,83.7,25.8,83.6,25.8z"/>
		<path class="st1" d="M84.5,26.1c0,0-0.1,0-0.1,0l-2.2,5c0,0.2,0.1,0.4,0.1,0.6l1.6-3.7c-0.3,1-0.7,2.2-0.9,3.3l-0.6,1.3
			c0,0.2,0.1,0.4,0.1,0.6c0,0.3,0.1,0.6,0.1,0.9c0.7,0.2,1.4,0.3,2.1,0.4c0.1-1,0.3-2.6,0.8-3.5c0.5-1.2,1.2-3.3,1.5-4.4
			C86,26.4,85.2,26.3,84.5,26.1z"/>
	</g>
	<g>
		<path class="st3" d="M83.8,9.5l3.8-8.6c-0.2,0-0.3,0-0.5,0l-4,8.9C83.4,9.6,83.6,9.6,83.8,9.5z"/>
		<path class="st3" d="M88,0.9l-3.8,8.5c0.2-0.1,0.4-0.1,0.6-0.2l3.7-8.3C88.3,0.9,88.2,0.9,88,0.9z"/>
		<path class="st3" d="M88.9,0.9l-3.6,8.2c0.2,0,0.4-0.1,0.5-0.1l3.6-8C89.2,1,89,1,88.9,0.9z"/>
		<path class="st3" d="M86.2,9c0.2,0,0.3,0,0.5,0l2.2-5c0.2-0.9,0.4-1.8,0.7-2.8L86.2,9z"/>
		<path class="st3" d="M82.7,10l4.1-9.1c-0.2,0-0.3,0-0.5,0L82,10.4C82.3,10.3,82.5,10.1,82.7,10z"/>
		<path class="st3" d="M81.5,10.9l4.5-10.1c-0.2,0-0.4,0-0.5,0l-5,11.2C80.7,11.6,81.1,11.3,81.5,10.9z"/>
		<path class="st3" d="M87.9,9c0.2,0,0.3,0,0.5,0.1l0.3-0.6c0-0.3,0-0.6,0-1.1L87.9,9z"/>
		<path class="st3" d="M87.5,9l1.1-2.4c0-0.4,0.1-0.9,0.1-1.4L87,9C87.2,9,87.4,9,87.5,9z"/>
		<path class="st3" d="M83.9,25.9L82,30.2c0-0.2-0.1-0.4-0.1-0.6l1.7-3.8c-0.1-0.1-0.3-0.1-0.4-0.2l-1.4,3.1c0-0.2-0.1-0.4-0.1-0.6
			l1.2-2.7c-0.1-0.1-0.3-0.2-0.4-0.2l-0.9,2c0-0.2-0.1-0.4-0.1-0.6l0.7-1.6c-0.1-0.1-0.3-0.2-0.4-0.3l-0.4,1c0-0.2-0.1-0.4-0.1-0.6
			l0.3-0.6c-0.1-0.1-0.2-0.2-0.4-0.3c0,0,0,0,0,0c-1.5-1.6-2.3-3.8-2.3-6.4c0-0.8,0.1-1.5,0.2-2.2c0-0.1,0-0.2,0.1-0.3L79,15.4
			c0-0.2-0.1-0.3-0.2-0.5l6.2-14c-0.2,0-0.4,0-0.5,0.1l-5.9,13.3c-0.1-0.2-0.1-0.3-0.2-0.5l5.7-12.7c-0.2,0-0.4,0.1-0.5,0.1l-5.3,12
			c-0.1-0.2-0.1-0.3-0.2-0.5l5.1-11.4c-0.2,0-0.4,0.1-0.6,0.1L77.9,12c-0.1-0.2-0.1-0.3-0.2-0.5l4.5-10.1c-0.2,0.1-0.4,0.1-0.6,0.2
			l-4.1,9.3c-0.1-0.2-0.1-0.3-0.2-0.5l3.8-8.7C81,1.8,80.8,1.9,80.6,2l-3.5,7.8C77.1,9.6,77,9.5,77,9.3l3.2-7.1
			c-0.2,0.1-0.4,0.2-0.6,0.3l-2.8,6.2c-0.1-0.2-0.1-0.3-0.2-0.5L79,2.6c-0.2,0.1-0.4,0.2-0.7,0.3l-2,4.5c-0.1-0.2-0.1-0.3-0.2-0.5
			l1.7-3.8c-0.2,0.1-0.5,0.3-0.7,0.4L76,6.4c-0.1-0.2-0.1-0.3-0.2-0.5l0.8-1.9c-0.3,0.2-0.5,0.4-0.8,0.6c-0.1,0.1-0.3,0.2-0.4,0.3
			c-3.6,3.1-5.8,7.6-5.8,12.7c0,7.7,5.1,14.2,12.5,16.2c0.1,0,0.2,0.1,0.3,0.1c0-0.3-0.1-0.6-0.1-0.9c0-0.2-0.1-0.4-0.1-0.6l0.6-1.3
			c0.3-1.1,0.6-2.2,0.9-3.3l-1.6,3.7c0-0.2-0.1-0.4-0.1-0.6l2.2-5C84.2,26,84,25.9,83.9,25.9z"/>
	</g>
	<path class="st0" d="M103.8,15.4c0,0.1-0.1,0.3-0.1,0.5c-0.1,0.3-0.2,0.7-0.2,1c0,0.2-0.1,0.3-0.1,0.5c0,0.2-0.1,0.4-0.1,0.5
		c-0.1,0.2-0.1,0.4-0.2,0.6c-0.1,0.3-0.2,0.7-0.3,1c0,0.1-0.1,0.2-0.1,0.4c0,0.2-0.1,0.3-0.1,0.5c-0.1,0.2-0.1,0.5-0.2,0.7
		c0,0.1,0,0.1,0,0.2c-0.1,0.3-0.2,0.6-0.3,0.9c0,0,0,0,0,0.1c-0.1,0.2-0.2,0.5-0.3,0.7c-0.1,0.2-0.1,0.4-0.2,0.5
		c-0.1,0.3-0.3,0.6-0.4,0.9c-0.1,0.2-0.2,0.5-0.4,0.7c-0.1,0.3-0.3,0.5-0.5,0.8c-0.1,0.2-0.3,0.4-0.4,0.6c-0.2,0.3-0.4,0.5-0.6,0.8
		c-0.2,0.2-0.3,0.4-0.5,0.6c-0.2,0.2-0.4,0.4-0.6,0.6c-0.2,0.2-0.4,0.4-0.6,0.5c-0.3,0.2-0.5,0.4-0.7,0.6c-0.3,0.2-0.5,0.4-0.7,0.6
		c-0.2,0.2-0.3,0.3-0.5,0.5c-0.2,0.2-0.4,0.5-0.5,0.7c-0.1,0.2-0.2,0.4-0.3,0.6c-0.1,0.3-0.2,0.5-0.3,0.8c5.8-2.7,9.6-8.5,9.6-15.2
		c0-1-0.1-2-0.3-2.9c0,0.1,0,0.1,0,0.2C103.8,15.1,103.8,15.2,103.8,15.4z"/>
	<path class="st0" d="M85.7,33.9c0-0.6,0.1-1.2,0.4-1.9c0.1-0.1,0.1-0.3,0.2-0.4c0.1-0.1,0.1-0.2,0.1-0.3c0.1-0.3,0.2-0.6,0.3-1
		c0-0.1,0-0.2,0.1-0.3c0-0.2,0.1-0.3,0.1-0.5c0-0.2,0.1-0.5,0.1-0.8c0.1-0.7,0.2-1.4,0.2-2c0-0.1,0-0.3,0-0.4c-0.1,0-0.3,0-0.4,0
		c0,0,0,0-0.1,0c-0.2,1.1-0.9,3.3-1.5,4.4c-0.4,0.9-0.7,2.6-0.8,3.5c0.4,0,0.7,0.1,1.1,0.1C85.7,34.3,85.7,34.1,85.7,33.9z"/>
	<g>
		<path class="st2" d="M88.7,9.1c3.3,0.6,5.4,3,6.1,6.1c0.3-0.1,0.7-0.4,1.2-0.7c0,0,0,0,0,0c0.2,0.1,0.4,0.1,0.6-0.1
			c0.1-0.1,0.1-0.3,0-0.4c0.5-0.3,1-0.7,1.4-1.2c0,0.1,0.1,0.2,0.1,0.2c0.2,0.1,0.4,0.1,0.6-0.1c0.1-0.2,0.1-0.4-0.1-0.6
			c0,0-0.1-0.1-0.1-0.1c0.2-0.2,0.4-0.5,0.6-0.7c0,0,0,0.1,0.1,0.1c0.2,0.1,0.4,0.1,0.6-0.1c0.1-0.2,0.1-0.4-0.1-0.6
			c0,0-0.1,0-0.1,0c0.2-0.3,0.3-0.6,0.5-0.9c0,0.1,0.1,0.2,0.1,0.2c0.2,0.1,0.4,0.1,0.6-0.1c0.1-0.2,0.1-0.4-0.1-0.6
			c-0.1-0.1-0.3-0.1-0.4,0c0.1-0.2,0.2-0.5,0.3-0.7c0,0,0-0.1,0-0.1c0.1-0.4,0.2-0.7,0.3-1.1c0,0,0,0,0.1,0.1c0,0,0.1,0.1,0.2,0.1
			c-0.1-0.1-0.1-0.2-0.2-0.3C98.3,4.2,94.3,1.7,89.7,1c0,0,0,0.1,0,0.1c-0.3,1-0.6,1.9-0.7,2.8c-0.1,0.4-0.1,0.8-0.2,1.2
			c-0.1,0.5-0.1,1-0.1,1.4c0,0.3,0,0.6,0,0.9c0,0.4,0,0.8,0,1.1C88.6,8.9,88.7,9.1,88.7,9.1z"/>
		<path class="st2" d="M101.1,9.1c0.2,0.1,0.4,0.1,0.6-0.1c0,0,0,0,0,0c-0.1-0.2-0.2-0.4-0.4-0.6c-0.1,0-0.2,0.1-0.3,0.2
			C100.9,8.7,101,8.9,101.1,9.1z"/>
		<path class="st2" d="M101.3,9.7c-0.1,0.2-0.1,0.4,0.1,0.6c0.2,0.1,0.4,0.1,0.6-0.1c0.1-0.2,0.1-0.4-0.1-0.6
			C101.7,9.4,101.4,9.5,101.3,9.7z"/>
		<path class="st2" d="M102.9,11.3c-0.1-0.2-0.1-0.3-0.2-0.5C102.6,10.9,102.7,11.1,102.9,11.3C102.8,11.3,102.9,11.3,102.9,11.3z"
			/>
		<path class="st2" d="M101.5,10.9c-0.1,0.2-0.1,0.4,0.1,0.6c0.2,0.1,0.4,0.1,0.6-0.1c0.1-0.2,0.1-0.4-0.1-0.6
			C101.9,10.7,101.7,10.7,101.5,10.9z"/>
		<path class="st2" d="M103.4,12.6c-0.1-0.3-0.2-0.5-0.3-0.7c0,0-0.1,0.1-0.1,0.1c-0.1,0.2-0.1,0.4,0.1,0.6
			C103.2,12.5,103.3,12.6,103.4,12.6z"/>
		<path class="st2" d="M100.3,11c-0.1,0.2-0.1,0.4,0.1,0.6c0.2,0.1,0.4,0.1,0.6-0.1c0.1-0.2,0.1-0.4-0.1-0.6
			C100.7,10.8,100.4,10.8,100.3,11z"/>
		<path class="st2" d="M101.8,12c-0.1,0.2-0.1,0.4,0.1,0.6c0.2,0.1,0.4,0.1,0.6-0.1c0.1-0.2,0.1-0.4-0.1-0.6
			C102.1,11.8,101.9,11.9,101.8,12z"/>
		<path class="st2" d="M103.3,13.6c0.1,0.1,0.3,0.1,0.4,0c-0.1-0.3-0.1-0.5-0.2-0.8c-0.1,0-0.2,0.1-0.3,0.2
			C103.1,13.3,103.1,13.5,103.3,13.6z"/>
		<path class="st2" d="M100.6,12.2c-0.1,0.2-0.1,0.4,0.1,0.6c0.2,0.1,0.4,0.1,0.6-0.1c0.1-0.2,0.1-0.4-0.1-0.6
			C100.9,12,100.7,12.1,100.6,12.2z"/>
		<path class="st2" d="M102,13.3c-0.1,0.2-0.1,0.4,0.1,0.6c0.2,0.1,0.4,0.1,0.6-0.1c0.1-0.2,0.1-0.4-0.1-0.6
			C102.4,13.1,102.1,13.1,102,13.3z"/>
		<path class="st2" d="M103.8,14.1c-0.1,0-0.2,0.1-0.3,0.2c-0.1,0.2-0.1,0.4,0.1,0.6c0.1,0.1,0.2,0.1,0.3,0.1c0-0.1,0-0.1,0-0.2
			C103.9,14.5,103.8,14.3,103.8,14.1z"/>
		<path class="st2" d="M99.3,12.4c-0.1,0.2-0.1,0.4,0.1,0.6c0.2,0.1,0.4,0.1,0.6-0.1c0.1-0.2,0.1-0.4-0.1-0.6
			C99.7,12.1,99.5,12.2,99.3,12.4z"/>
		<path class="st2" d="M100.8,13.4c-0.1,0.2-0.1,0.4,0.1,0.6c0.2,0.1,0.4,0.1,0.6-0.1c0.1-0.2,0.1-0.4-0.1-0.6
			C101.2,13.2,100.9,13.2,100.8,13.4z"/>
		<path class="st2" d="M102.9,14.9c0.1-0.2,0.1-0.4-0.1-0.6c-0.2-0.1-0.4-0.1-0.6,0.1c-0.1,0.2-0.1,0.4,0.1,0.6
			C102.5,15.1,102.8,15.1,102.9,14.9z"/>
		<path class="st2" d="M103.7,15.9c0-0.2,0.1-0.3,0.1-0.5c0,0-0.1,0-0.1,0.1C103.6,15.6,103.6,15.7,103.7,15.9z"/>
		<path class="st2" d="M99.6,13.6c-0.1,0.2-0.1,0.4,0.1,0.6c0.2,0.1,0.4,0.1,0.6-0.1c0.1-0.2,0.1-0.4-0.1-0.6
			C100,13.4,99.7,13.4,99.6,13.6z"/>
		<path class="st2" d="M101.1,14.6c-0.1,0.2-0.1,0.4,0.1,0.6c0.2,0.1,0.4,0.1,0.6-0.1c0.1-0.2,0.1-0.4-0.1-0.6
			C101.4,14.4,101.2,14.5,101.1,14.6z"/>
		<path class="st2" d="M103.2,16.1c0.1-0.2,0.1-0.4-0.1-0.6c-0.2-0.1-0.4-0.1-0.6,0.1c-0.1,0.2-0.1,0.4,0.1,0.6
			C102.8,16.4,103,16.3,103.2,16.1z"/>
		<path class="st2" d="M98.4,13.7c-0.1,0.2-0.1,0.4,0.1,0.6c0.2,0.1,0.4,0.1,0.6-0.1c0.1-0.2,0.1-0.4-0.1-0.6
			C98.8,13.5,98.5,13.5,98.4,13.7z"/>
		<path class="st2" d="M99.8,14.8c-0.1,0.2-0.1,0.4,0.1,0.6c0.2,0.1,0.4,0.1,0.6-0.1c0.1-0.2,0.1-0.4-0.1-0.6
			C100.2,14.5,100,14.6,99.8,14.8z"/>
		<path class="st2" d="M101.9,16.3c0.1-0.2,0.1-0.4-0.1-0.6c-0.2-0.1-0.4-0.1-0.6,0.1c-0.1,0.2-0.1,0.4,0.1,0.6
			C101.6,16.5,101.8,16.4,101.9,16.3z"/>
		<path class="st2" d="M103.3,16.7c-0.2-0.1-0.4-0.1-0.6,0.1c-0.1,0.2-0.1,0.4,0.1,0.6c0.1,0.1,0.3,0.1,0.5,0c0-0.2,0.1-0.3,0.1-0.5
			C103.4,16.8,103.4,16.8,103.3,16.7z"/>
		<path class="st2" d="M97.2,13.9c-0.1,0.2-0.1,0.4,0.1,0.6c0.2,0.1,0.4,0.1,0.6-0.1c0.1-0.2,0.1-0.4-0.1-0.6
			C97.6,13.7,97.3,13.8,97.2,13.9z"/>
		<path class="st2" d="M98.6,15c-0.1,0.2-0.1,0.4,0.1,0.6c0.2,0.1,0.4,0.1,0.6-0.1c0.1-0.2,0.1-0.4-0.1-0.6
			C99,14.7,98.8,14.8,98.6,15z"/>
		<path class="st2" d="M100.1,16c-0.1,0.2-0.1,0.4,0.1,0.6c0.2,0.1,0.4,0.1,0.6-0.1c0.1-0.2,0.1-0.4-0.1-0.6
			C100.5,15.8,100.2,15.8,100.1,16z"/>
		<path class="st2" d="M102.2,17.5c0.1-0.2,0.1-0.4-0.1-0.6c-0.2-0.1-0.4-0.1-0.6,0.1c-0.1,0.2-0.1,0.4,0.1,0.6
			C101.8,17.7,102.1,17.7,102.2,17.5z"/>
		<path class="st2" d="M103,18.5c0.1-0.2,0.1-0.4,0.2-0.6c-0.1,0-0.1,0.1-0.2,0.1C102.9,18.2,102.9,18.4,103,18.5z"/>
		<path class="st2" d="M97.4,15.1c-0.1,0.2-0.1,0.4,0.1,0.6c0.2,0.1,0.4,0.1,0.6-0.1c0.1-0.2,0.1-0.4-0.1-0.6
			C97.8,14.9,97.5,14.9,97.4,15.1z"/>
		<path class="st2" d="M99.5,16.6c0.1-0.2,0.1-0.4-0.1-0.6c-0.2-0.1-0.4-0.1-0.6,0.1c-0.1,0.2-0.1,0.4,0.1,0.6
			C99.1,16.8,99.4,16.8,99.5,16.6z"/>
		<path class="st2" d="M101,17.6c0.1-0.2,0.1-0.4-0.1-0.6c-0.2-0.1-0.4-0.1-0.6,0.1c-0.1,0.2-0.1,0.4,0.1,0.6
			C100.6,17.8,100.8,17.8,101,17.6z"/>
		<path class="st2" d="M102.4,18.7c0.1-0.2,0.1-0.4-0.1-0.6c-0.2-0.1-0.4-0.1-0.6,0.1c-0.1,0.2-0.1,0.4,0.1,0.6
			C102,18.9,102.3,18.8,102.4,18.7z"/>
		<path class="st2" d="M96.2,15.3c-0.1,0.2-0.1,0.4,0.1,0.6c0.2,0.1,0.4,0.1,0.6-0.1c0.1-0.2,0.1-0.4-0.1-0.6
			C96.6,15.1,96.3,15.1,96.2,15.3z"/>
		<path class="st2" d="M97.7,16.3c-0.1,0.2-0.1,0.4,0.1,0.6c0.2,0.1,0.4,0.1,0.6-0.1c0.1-0.2,0.1-0.4-0.1-0.6
			C98.1,16.1,97.8,16.1,97.7,16.3z"/>
		<path class="st2" d="M99.8,17.8c0.1-0.2,0.1-0.4-0.1-0.6c-0.2-0.1-0.4-0.1-0.6,0.1c-0.1,0.2-0.1,0.4,0.1,0.6
			C99.4,18,99.7,18,99.8,17.8z"/>
		<path class="st2" d="M101.2,18.9c0.1-0.2,0.1-0.4-0.1-0.6c-0.2-0.1-0.4-0.1-0.6,0.1c-0.1,0.2-0.1,0.4,0.1,0.6
			C100.9,19.1,101.1,19,101.2,18.9z"/>
		<path class="st2" d="M102,19.4c-0.1,0.2-0.1,0.4,0.1,0.6c0.2,0.1,0.4,0.1,0.5-0.1c0-0.1,0.1-0.2,0.1-0.4c0-0.1-0.1-0.2-0.2-0.2
			C102.4,19.2,102.2,19.2,102,19.4z"/>
		<path class="st2" d="M95,15.4c-0.1,0.2-0.1,0.4,0.1,0.6c0.2,0.1,0.4,0.1,0.6-0.1c0.1-0.2,0.1-0.4-0.1-0.6
			C95.4,15.2,95.1,15.2,95,15.4z"/>
		<path class="st2" d="M96.4,16.4c-0.1,0.2-0.1,0.4,0.1,0.6c0.2,0.1,0.4,0.1,0.6-0.1c0.1-0.2,0.1-0.4-0.1-0.6
			C96.8,16.2,96.6,16.3,96.4,16.4z"/>
		<path class="st2" d="M98.6,17.9c0.1-0.2,0.1-0.4-0.1-0.6c-0.2-0.1-0.4-0.1-0.6,0.1c-0.1,0.2-0.1,0.4,0.1,0.6
			C98.2,18.2,98.4,18.1,98.6,17.9z"/>
		<path class="st2" d="M100,19c0.1-0.2,0.1-0.4-0.1-0.6c-0.2-0.1-0.4-0.1-0.6,0.1c-0.1,0.2-0.1,0.4,0.1,0.6
			C99.6,19.2,99.9,19.2,100,19z"/>
		<path class="st2" d="M101.5,20c0.1-0.2,0.1-0.4-0.1-0.6c-0.2-0.1-0.4-0.1-0.6,0.1c-0.1,0.2-0.1,0.4,0.1,0.6
			C101.1,20.2,101.3,20.2,101.5,20z"/>
		<path class="st2" d="M102.3,21.1c0.1-0.2,0.1-0.5,0.2-0.7c-0.1,0-0.2,0.1-0.3,0.2C102.1,20.8,102.2,21,102.3,21.1z"/>
		<path class="st2" d="M95.3,16.7c-0.1,0.2-0.1,0.4,0.1,0.6c0.2,0.1,0.4,0.1,0.6-0.1c0.1-0.2,0.1-0.4-0.1-0.6
			C95.6,16.4,95.4,16.5,95.3,16.7z"/>
		<path class="st2" d="M96.7,17.7c-0.1,0.2-0.1,0.4,0.1,0.6c0.2,0.1,0.4,0.1,0.6-0.1c0.1-0.2,0.1-0.4-0.1-0.6
			C97.1,17.5,96.8,17.5,96.7,17.7z"/>
		<path class="st2" d="M98.8,19.2c0.1-0.2,0.1-0.4-0.1-0.6c-0.2-0.1-0.4-0.1-0.6,0.1c-0.1,0.2-0.1,0.4,0.1,0.6
			C98.4,19.4,98.7,19.4,98.8,19.2z"/>
		<path class="st2" d="M100.3,20.2c0.1-0.2,0.1-0.4-0.1-0.6c-0.2-0.1-0.4-0.1-0.6,0.1c-0.1,0.2-0.1,0.4,0.1,0.6
			C99.9,20.4,100.1,20.4,100.3,20.2z"/>
		<path class="st2" d="M101.7,21.2c0.1-0.2,0.1-0.4-0.1-0.6c-0.2-0.1-0.4-0.1-0.6,0.1c-0.1,0.2-0.1,0.4,0.1,0.6
			C101.3,21.5,101.6,21.4,101.7,21.2z"/>
		<path class="st2" d="M95.5,17.8c-0.1,0.2-0.1,0.4,0.1,0.6c0.2,0.1,0.4,0.1,0.6-0.1c0.1-0.2,0.1-0.4-0.1-0.6
			C95.9,17.6,95.6,17.6,95.5,17.8z"/>
		<path class="st2" d="M96.9,18.8c-0.1,0.2-0.1,0.4,0.1,0.6c0.2,0.1,0.4,0.1,0.6-0.1c0.1-0.2,0.1-0.4-0.1-0.6
			C97.3,18.6,97.1,18.7,96.9,18.8z"/>
		<path class="st2" d="M99,20.3c0.1-0.2,0.1-0.4-0.1-0.6c-0.2-0.1-0.4-0.1-0.6,0.1c-0.1,0.2-0.1,0.4,0.1,0.6
			C98.7,20.6,98.9,20.5,99,20.3z"/>
		<path class="st2" d="M100.5,21.4c0.1-0.2,0.1-0.4-0.1-0.6c-0.2-0.1-0.4-0.1-0.6,0.1c-0.1,0.2-0.1,0.4,0.1,0.6
			C100.1,21.6,100.4,21.6,100.5,21.4z"/>
		<path class="st2" d="M101.9,21.8c-0.2-0.1-0.4-0.1-0.6,0.1c-0.1,0.2-0.1,0.4,0.1,0.6c0.2,0.1,0.4,0.1,0.6-0.1c0,0,0-0.1,0-0.1
			c0,0,0,0,0-0.1C102,22.1,102,21.9,101.9,21.8z"/>
		<path class="st2" d="M95.7,19c-0.1,0.2-0.1,0.4,0.1,0.6c0.2,0.1,0.4,0.1,0.6-0.1c0.1-0.2,0.1-0.4-0.1-0.6
			C96.1,18.8,95.9,18.9,95.7,19z"/>
		<path class="st2" d="M97.9,20.5c0.1-0.2,0.1-0.4-0.1-0.6c-0.2-0.1-0.4-0.1-0.6,0.1c-0.1,0.2-0.1,0.4,0.1,0.6
			C97.5,20.8,97.7,20.7,97.9,20.5z"/>
		<path class="st2" d="M99.3,21.6c0.1-0.2,0.1-0.4-0.1-0.6c-0.2-0.1-0.4-0.1-0.6,0.1c-0.1,0.2-0.1,0.4,0.1,0.6
			C98.9,21.8,99.2,21.8,99.3,21.6z"/>
		<path class="st2" d="M100.8,22.6c0.1-0.2,0.1-0.4-0.1-0.6c-0.2-0.1-0.4-0.1-0.6,0.1c-0.1,0.2-0.1,0.4,0.1,0.6
			C100.4,22.8,100.6,22.8,100.8,22.6z"/>
		<path class="st2" d="M101.5,23.6c0.1-0.2,0.1-0.4,0.2-0.5c-0.1,0-0.1,0.1-0.2,0.1C101.5,23.3,101.5,23.4,101.5,23.6z"/>
		<path class="st2" d="M95.2,19.6c0.1-0.2,0.1-0.4-0.1-0.6c0,0,0,0-0.1,0c0,0.3-0.1,0.5-0.1,0.8C95,19.8,95.1,19.7,95.2,19.6z"/>
		<path class="st2" d="M96,20.2c-0.1,0.2-0.1,0.4,0.1,0.6c0.2,0.1,0.4,0.1,0.6-0.1c0.1-0.2,0.1-0.4-0.1-0.6C96.4,20,96.1,20,96,20.2
			z"/>
		<path class="st2" d="M98.1,21.7c0.1-0.2,0.1-0.4-0.1-0.6c-0.2-0.1-0.4-0.1-0.6,0.1c-0.1,0.2-0.1,0.4,0.1,0.6
			C97.7,21.9,98,21.9,98.1,21.7z"/>
		<path class="st2" d="M99.5,22.7c0.1-0.2,0.1-0.4-0.1-0.6c-0.2-0.1-0.4-0.1-0.6,0.1c-0.1,0.2-0.1,0.4,0.1,0.6
			C99.2,23,99.4,22.9,99.5,22.7z"/>
		<path class="st2" d="M101,23.8c0.1-0.2,0.1-0.4-0.1-0.6c-0.2-0.1-0.4-0.1-0.6,0.1c-0.1,0.2-0.1,0.4,0.1,0.6
			C100.6,24,100.9,23.9,101,23.8z"/>
		<path class="st2" d="M94.7,20.5C94.7,20.5,94.7,20.5,94.7,20.5c0,0.2,0,0.3,0.2,0.4c0.2,0.1,0.4,0.1,0.6-0.1
			c0.1-0.2,0.1-0.4-0.1-0.6c-0.2-0.1-0.4-0.1-0.6,0.1C94.7,20.4,94.7,20.5,94.7,20.5z"/>
		<path class="st2" d="M96.9,21.9c0.1-0.2,0.1-0.4-0.1-0.6c-0.2-0.1-0.4-0.1-0.6,0.1c-0.1,0.2-0.1,0.4,0.1,0.6
			C96.5,22.1,96.8,22.1,96.9,21.9z"/>
		<path class="st2" d="M98.3,22.9c0.1-0.2,0.1-0.4-0.1-0.6c-0.2-0.1-0.4-0.1-0.6,0.1c-0.1,0.2-0.1,0.4,0.1,0.6
			C98,23.2,98.2,23.1,98.3,22.9z"/>
		<path class="st2" d="M99.8,24c0.1-0.2,0.1-0.4-0.1-0.6c-0.2-0.1-0.4-0.1-0.6,0.1c-0.1,0.2-0.1,0.4,0.1,0.6
			C99.4,24.2,99.7,24.1,99.8,24z"/>
		<path class="st2" d="M100.6,24.5c-0.1,0.2-0.1,0.4,0.1,0.6c0,0,0,0,0.1,0c0.1-0.2,0.2-0.5,0.4-0.7
			C100.9,24.3,100.7,24.4,100.6,24.5z"/>
		<path class="st2" d="M95,21.6c-0.1,0.2-0.1,0.4,0.1,0.6c0.2,0.1,0.4,0.1,0.6-0.1c0.1-0.2,0.1-0.4-0.1-0.6
			C95.4,21.3,95.1,21.4,95,21.6z"/>
		<path class="st2" d="M97.1,23.1c0.1-0.2,0.1-0.4-0.1-0.6c-0.2-0.1-0.4-0.1-0.6,0.1c-0.1,0.2-0.1,0.4,0.1,0.6
			C96.7,23.3,97,23.2,97.1,23.1z"/>
		<path class="st2" d="M98.6,24.1c0.1-0.2,0.1-0.4-0.1-0.6c-0.2-0.1-0.4-0.1-0.6,0.1c-0.1,0.2-0.1,0.4,0.1,0.6
			C98.2,24.3,98.4,24.3,98.6,24.1z"/>
		<path class="st2" d="M100,25.1c0.1-0.2,0.1-0.4-0.1-0.6c-0.2-0.1-0.4-0.1-0.6,0.1c-0.1,0.2-0.1,0.4,0.1,0.6
			C99.6,25.3,99.9,25.3,100,25.1z"/>
		<path class="st2" d="M94.5,22.2c0.1-0.2,0.1-0.4-0.1-0.6c0,0,0,0,0,0c-0.1,0.2-0.2,0.5-0.3,0.7C94.2,22.4,94.4,22.4,94.5,22.2z"/>
		<path class="st2" d="M95.9,23.3c0.1-0.2,0.1-0.4-0.1-0.6c-0.2-0.1-0.4-0.1-0.6,0.1c-0.1,0.2-0.1,0.4,0.1,0.6
			C95.5,23.5,95.8,23.4,95.9,23.3z"/>
		<path class="st2" d="M97.4,24.3c0.1-0.2,0.1-0.4-0.1-0.6c-0.2-0.1-0.4-0.1-0.6,0.1c-0.1,0.2-0.1,0.4,0.1,0.6
			C97,24.5,97.2,24.5,97.4,24.3z"/>
		<path class="st2" d="M98.8,25.3c0.1-0.2,0.1-0.4-0.1-0.6c-0.2-0.1-0.4-0.1-0.6,0.1c-0.1,0.2-0.1,0.4,0.1,0.6
			C98.4,25.5,98.7,25.5,98.8,25.3z"/>
		<path class="st2" d="M99.6,25.9c-0.1,0.2-0.1,0.4,0.1,0.6c0.1,0,0.1,0.1,0.2,0.1c0.1-0.2,0.3-0.4,0.4-0.6c0,0-0.1-0.1-0.1-0.1
			C100,25.7,99.7,25.7,99.6,25.9z"/>
		<path class="st2" d="M94.1,23.5c0.2,0.1,0.4,0.1,0.6-0.1c0.1-0.2,0.1-0.4-0.1-0.6c-0.2-0.1-0.4-0.1-0.6,0.1
			C93.9,23.1,94,23.4,94.1,23.5z"/>
		<path class="st2" d="M96.1,24.4c0.1-0.2,0.1-0.4-0.1-0.6c-0.2-0.1-0.4-0.1-0.6,0.1c-0.1,0.2-0.1,0.4,0.1,0.6
			C95.8,24.6,96,24.6,96.1,24.4z"/>
		<path class="st2" d="M97.6,25.4c0.1-0.2,0.1-0.4-0.1-0.6c-0.2-0.1-0.4-0.1-0.6,0.1c-0.1,0.2-0.1,0.4,0.1,0.6
			C97.2,25.7,97.5,25.6,97.6,25.4z"/>
		<path class="st2" d="M99.1,26.5c0.1-0.2,0.1-0.4-0.1-0.6c-0.2-0.1-0.4-0.1-0.6,0.1c-0.1,0.2-0.1,0.4,0.1,0.6
			C98.7,26.7,98.9,26.7,99.1,26.5z"/>
		<path class="st2" d="M93.5,23.6c0.1-0.1,0.1-0.3,0-0.5c-0.1,0.2-0.3,0.4-0.5,0.6C93.2,23.8,93.4,23.7,93.5,23.6z"/>
		<path class="st2" d="M94.3,24.2c-0.1,0.2-0.1,0.4,0.1,0.6c0.2,0.1,0.4,0.1,0.6-0.1c0.1-0.2,0.1-0.4-0.1-0.6
			C94.7,23.9,94.4,24,94.3,24.2z"/>
		<path class="st2" d="M96.4,25.7c0.1-0.2,0.1-0.4-0.1-0.6c-0.2-0.1-0.4-0.1-0.6,0.1c-0.1,0.2-0.1,0.4,0.1,0.6
			C96,25.9,96.3,25.8,96.4,25.7z"/>
		<path class="st2" d="M97.9,26.7c0.1-0.2,0.1-0.4-0.1-0.6c-0.2-0.1-0.4-0.1-0.6,0.1c-0.1,0.2-0.1,0.4,0.1,0.6
			C97.5,26.9,97.7,26.9,97.9,26.7z"/>
		<path class="st2" d="M99.2,27.2c-0.2-0.1-0.4-0.1-0.6,0.1c-0.1,0.2-0.1,0.4,0.1,0.6c0,0,0.1,0,0.1,0c0.2-0.2,0.3-0.4,0.5-0.6
			C99.3,27.2,99.3,27.2,99.2,27.2z"/>
		<path class="st2" d="M93.2,24.8c0.2,0.1,0.4,0.1,0.6-0.1c0.1-0.2,0.1-0.4-0.1-0.6c-0.2-0.1-0.4-0.1-0.6,0.1
			C92.9,24.5,93,24.7,93.2,24.8z"/>
		<path class="st2" d="M95.2,25.8c0.1-0.2,0.1-0.4-0.1-0.6c-0.2-0.1-0.4-0.1-0.6,0.1c-0.1,0.2-0.1,0.4,0.1,0.6
			C94.8,26,95.1,26,95.2,25.8z"/>
		<path class="st2" d="M96.6,26.8c0.1-0.2,0.1-0.4-0.1-0.6c-0.2-0.1-0.4-0.1-0.6,0.1c-0.1,0.2-0.1,0.4,0.1,0.6
			C96.3,27,96.5,27,96.6,26.8z"/>
		<path class="st2" d="M98.1,27.8c0.1-0.2,0.1-0.4-0.1-0.6c-0.2-0.1-0.4-0.1-0.6,0.1c-0.1,0.2-0.1,0.4,0.1,0.6
			C97.7,28.1,98,28,98.1,27.8z"/>
		<path class="st2" d="M92.4,24.4c-0.2,0.2-0.4,0.3-0.6,0.5c0,0.1,0.1,0.1,0.1,0.2c0.2,0.1,0.4,0.1,0.6-0.1
			C92.7,24.8,92.6,24.5,92.4,24.4C92.4,24.4,92.4,24.4,92.4,24.4z"/>
		<path class="st2" d="M93.3,25.5c-0.1,0.2-0.1,0.4,0.1,0.6c0.2,0.1,0.4,0.1,0.6-0.1c0.1-0.2,0.1-0.4-0.1-0.6
			C93.7,25.3,93.5,25.3,93.3,25.5z"/>
		<path class="st2" d="M95.4,27c0.1-0.2,0.1-0.4-0.1-0.6c-0.2-0.1-0.4-0.1-0.6,0.1c-0.1,0.2-0.1,0.4,0.1,0.6
			C95.1,27.2,95.3,27.2,95.4,27z"/>
		<path class="st2" d="M96.9,28c0.1-0.2,0.1-0.4-0.1-0.6c-0.2-0.1-0.4-0.1-0.6,0.1c-0.1,0.2-0.1,0.4,0.1,0.6
			C96.5,28.3,96.8,28.2,96.9,28z"/>
		<path class="st2" d="M97.7,28.6c-0.1,0.1-0.1,0.3,0,0.4c0.2-0.2,0.4-0.3,0.6-0.5l0,0C98.1,28.4,97.8,28.4,97.7,28.6z"/>
		<path class="st2" d="M92.1,25.6c-0.1,0.2-0.1,0.4,0.1,0.6c0.2,0.1,0.4,0.1,0.6-0.1c0.1-0.2,0.1-0.4-0.1-0.6
			C92.5,25.4,92.2,25.5,92.1,25.6z"/>
		<path class="st2" d="M94.2,27.1c0.1-0.2,0.1-0.4-0.1-0.6c-0.2-0.1-0.4-0.1-0.6,0.1c-0.1,0.2-0.1,0.4,0.1,0.6
			C93.8,27.4,94.1,27.3,94.2,27.1z"/>
		<path class="st2" d="M95.7,28.2c0.1-0.2,0.1-0.4-0.1-0.6c-0.2-0.1-0.4-0.1-0.6,0.1c-0.1,0.2-0.1,0.4,0.1,0.6
			C95.3,28.4,95.5,28.3,95.7,28.2z"/>
		<path class="st2" d="M96.5,28.7c-0.1,0.2-0.1,0.4,0.1,0.6c0.2,0.1,0.4,0.1,0.6-0.1c0.1-0.2,0.1-0.4-0.1-0.6
			C96.8,28.5,96.6,28.5,96.5,28.7z"/>
		<path class="st2" d="M91.6,26.3c0.1-0.2,0.1-0.4-0.1-0.6c-0.2-0.1-0.4-0.1-0.6,0.1c-0.1,0.2-0.1,0.4,0.1,0.6
			C91.2,26.5,91.4,26.5,91.6,26.3z"/>
		<path class="st2" d="M93,27.3c0.1-0.2,0.1-0.4-0.1-0.6c-0.2-0.1-0.4-0.1-0.6,0.1c-0.1,0.2-0.1,0.4,0.1,0.6
			C92.6,27.6,92.9,27.5,93,27.3z"/>
		<path class="st2" d="M94.5,28.4c0.1-0.2,0.1-0.4-0.1-0.6c-0.2-0.1-0.4-0.1-0.6,0.1c-0.1,0.2-0.1,0.4,0.1,0.6
			C94.1,28.6,94.3,28.6,94.5,28.4z"/>
		<path class="st2" d="M95.9,29.4c0.1-0.2,0.1-0.4-0.1-0.6c-0.2-0.1-0.4-0.1-0.6,0.1c-0.1,0.2-0.1,0.4,0.1,0.6
			C95.5,29.6,95.8,29.6,95.9,29.4z"/>
		<path class="st2" d="M90.3,26.4c0.1-0.2,0.1-0.4-0.1-0.6c0,0-0.1,0-0.1-0.1c-0.1,0.1-0.3,0.1-0.4,0.2c-0.1,0.2-0.1,0.4,0.1,0.6
			C90,26.7,90.2,26.6,90.3,26.4z"/>
		<path class="st2" d="M91.8,27.5c0.1-0.2,0.1-0.4-0.1-0.6c-0.2-0.1-0.4-0.1-0.6,0.1c-0.1,0.2-0.1,0.4,0.1,0.6
			C91.4,27.7,91.7,27.6,91.8,27.5z"/>
		<path class="st2" d="M93.3,28.5c0.1-0.2,0.1-0.4-0.1-0.6c-0.2-0.1-0.4-0.1-0.6,0.1c-0.1,0.2-0.1,0.4,0.1,0.6
			C92.9,28.7,93.1,28.7,93.3,28.5z"/>
		<path class="st2" d="M94.7,29.5c0.1-0.2,0.1-0.4-0.1-0.6c-0.2-0.1-0.4-0.1-0.6,0.1c-0.1,0.2-0.1,0.4,0.1,0.6
			C94.3,29.8,94.6,29.7,94.7,29.5z"/>
		<path class="st2" d="M95.5,30.1c-0.1,0.2-0.1,0.4,0.1,0.6c0,0,0.1,0,0.1,0c0.1-0.2,0.3-0.4,0.5-0.5c0-0.1-0.1-0.1-0.1-0.2
			C95.9,29.9,95.6,29.9,95.5,30.1z"/>
		<path class="st2" d="M89.2,26.6c0.1-0.2,0.1-0.4,0-0.5c-0.2,0.1-0.4,0.1-0.7,0.1c-0.1,0.2,0,0.4,0.1,0.5
			C88.8,26.9,89,26.8,89.2,26.6z"/>
		<path class="st2" d="M90.6,27.7c0.1-0.2,0.1-0.4-0.1-0.6c-0.2-0.1-0.4-0.1-0.6,0.1c-0.1,0.2-0.1,0.4,0.1,0.6
			C90.2,27.9,90.5,27.8,90.6,27.7z"/>
		<path class="st2" d="M92.1,28.7c0.1-0.2,0.1-0.4-0.1-0.6c-0.2-0.1-0.4-0.1-0.6,0.1c-0.1,0.2-0.1,0.4,0.1,0.6
			C91.7,28.9,91.9,28.9,92.1,28.7z"/>
		<path class="st2" d="M93.5,29.7c0.1-0.2,0.1-0.4-0.1-0.6c-0.2-0.1-0.4-0.1-0.6,0.1c-0.1,0.2-0.1,0.4,0.1,0.6
			C93.1,30,93.4,29.9,93.5,29.7z"/>
		<path class="st2" d="M95,30.8c0.1-0.2,0.1-0.4-0.1-0.6c-0.2-0.1-0.4-0.1-0.6,0.1c-0.1,0.2-0.1,0.4,0.1,0.6
			C94.6,31,94.8,30.9,95,30.8z"/>
		<path class="st2" d="M87.9,26.8c0.1-0.1,0.1-0.3,0-0.4c-0.2,0-0.4,0-0.6,0c0,0.1,0,0.3,0,0.4c0,0,0,0.1,0.1,0.1
			C87.5,27,87.8,26.9,87.9,26.8z"/>
		<path class="st2" d="M89.4,27.8c0.1-0.2,0.1-0.4-0.1-0.6c-0.2-0.1-0.4-0.1-0.6,0.1c-0.1,0.2-0.1,0.4,0.1,0.6
			C89,28,89.3,28,89.4,27.8z"/>
		<path class="st2" d="M90.8,28.8c0.1-0.2,0.1-0.4-0.1-0.6c-0.2-0.1-0.4-0.1-0.6,0.1c-0.1,0.2-0.1,0.4,0.1,0.6
			C90.5,29,90.7,29,90.8,28.8z"/>
		<path class="st2" d="M92.3,29.9c0.1-0.2,0.1-0.4-0.1-0.6c-0.2-0.1-0.4-0.1-0.6,0.1c-0.1,0.2-0.1,0.4,0.1,0.6
			C91.9,30.1,92.2,30,92.3,29.9z"/>
		<path class="st2" d="M93.7,30.9c0.1-0.2,0.1-0.4-0.1-0.6c-0.2-0.1-0.4-0.1-0.6,0.1C93,30.6,93,30.9,93.2,31
			C93.4,31.1,93.6,31.1,93.7,30.9z"/>
		<path class="st2" d="M94.5,31.4c-0.1,0.2-0.1,0.4,0.1,0.6c0.1,0,0.1,0.1,0.2,0.1c0.1-0.2,0.2-0.4,0.3-0.6c0,0-0.1-0.1-0.1-0.1
			C94.9,31.2,94.7,31.3,94.5,31.4z"/>
		<path class="st2" d="M87.5,27.5c-0.1,0.2-0.1,0.4,0.1,0.6c0.2,0.1,0.4,0.1,0.6-0.1c0.1-0.2,0.1-0.4-0.1-0.6
			C87.9,27.3,87.7,27.3,87.5,27.5z"/>
		<path class="st2" d="M89.6,29c0.1-0.2,0.1-0.4-0.1-0.6c-0.2-0.1-0.4-0.1-0.6,0.1c-0.1,0.2-0.1,0.4,0.1,0.6
			C89.3,29.2,89.5,29.2,89.6,29z"/>
		<path class="st2" d="M91.1,30.1c0.1-0.2,0.1-0.4-0.1-0.6c-0.2-0.1-0.4-0.1-0.6,0.1c-0.1,0.2-0.1,0.4,0.1,0.6
			C90.7,30.3,91,30.2,91.1,30.1z"/>
		<path class="st2" d="M92.5,31.1c0.1-0.2,0.1-0.4-0.1-0.6c-0.2-0.1-0.4-0.1-0.6,0.1c-0.1,0.2-0.1,0.4,0.1,0.6
			C92.2,31.3,92.4,31.3,92.5,31.1z"/>
		<path class="st2" d="M94,32.1c0.1-0.2,0.1-0.4-0.1-0.6c-0.2-0.1-0.4-0.1-0.6,0.1c-0.1,0.2-0.1,0.4,0.1,0.6
			C93.6,32.3,93.9,32.3,94,32.1z"/>
		<path class="st2" d="M87.8,28.7c-0.1,0.2-0.1,0.4,0.1,0.6c0.2,0.1,0.4,0.1,0.6-0.1c0.1-0.2,0.1-0.4-0.1-0.6
			C88.1,28.5,87.9,28.5,87.8,28.7z"/>
		<path class="st2" d="M89.9,30.2c0.1-0.2,0.1-0.4-0.1-0.6c-0.2-0.1-0.4-0.1-0.6,0.1c-0.1,0.2-0.1,0.4,0.1,0.6
			C89.5,30.4,89.7,30.4,89.9,30.2z"/>
		<path class="st2" d="M91.3,31.2c0.1-0.2,0.1-0.4-0.1-0.6c-0.2-0.1-0.4-0.1-0.6,0.1c-0.1,0.2-0.1,0.4,0.1,0.6
			C90.9,31.4,91.2,31.4,91.3,31.2z"/>
		<path class="st2" d="M92.8,32.2c0.1-0.2,0.1-0.4-0.1-0.6c-0.2-0.1-0.4-0.1-0.6,0.1C92,32,92,32.2,92.2,32.3
			C92.4,32.5,92.6,32.4,92.8,32.2z"/>
		<path class="st2" d="M93.6,32.8c-0.1,0.1-0.1,0.3,0,0.5c0.2-0.1,0.5-0.2,0.7-0.3c0-0.1-0.1-0.2-0.2-0.2
			C94,32.6,93.7,32.6,93.6,32.8z"/>
		<path class="st2" d="M87.2,29.4c0.1-0.2,0.1-0.4-0.1-0.6c0,0-0.1,0-0.1,0c0,0.3-0.1,0.5-0.1,0.8C87,29.5,87.1,29.5,87.2,29.4z"/>
		<path class="st2" d="M88,29.9c-0.1,0.2-0.1,0.4,0.1,0.6c0.2,0.1,0.4,0.1,0.6-0.1c0.1-0.2,0.1-0.4-0.1-0.6
			C88.4,29.7,88.1,29.7,88,29.9z"/>
		<path class="st2" d="M90.1,31.4c0.1-0.2,0.1-0.4-0.1-0.6c-0.2-0.1-0.4-0.1-0.6,0.1c-0.1,0.2-0.1,0.4,0.1,0.6
			C89.7,31.6,90,31.6,90.1,31.4z"/>
		<path class="st2" d="M91.6,32.4c0.1-0.2,0.1-0.4-0.1-0.6c-0.2-0.1-0.4-0.1-0.6,0.1c-0.1,0.2-0.1,0.4,0.1,0.6
			C91.2,32.7,91.5,32.6,91.6,32.4z"/>
		<path class="st2" d="M92.4,33c-0.1,0.2-0.1,0.4,0.1,0.6c0,0,0.1,0,0.1,0c0.2-0.1,0.3-0.1,0.5-0.2c0.1-0.2,0.1-0.4-0.1-0.5
			C92.8,32.8,92.5,32.8,92.4,33z"/>
		<path class="st2" d="M87.5,30.5c0.1-0.2,0.1-0.4-0.1-0.6c-0.2-0.1-0.4-0.1-0.6,0.1c0,0,0,0,0,0c0,0.1,0,0.2-0.1,0.3
			c0,0.1,0.1,0.2,0.2,0.3C87.1,30.7,87.3,30.7,87.5,30.5z"/>
		<path class="st2" d="M88.9,31.5c0.1-0.2,0.1-0.4-0.1-0.6c-0.2-0.1-0.4-0.1-0.6,0.1c-0.1,0.2-0.1,0.4,0.1,0.6
			C88.5,31.8,88.8,31.7,88.9,31.5z"/>
		<path class="st2" d="M90.4,32.6c0.1-0.2,0.1-0.4-0.1-0.6c-0.2-0.1-0.4-0.1-0.6,0.1c-0.1,0.2-0.1,0.4,0.1,0.6
			C90,32.8,90.2,32.8,90.4,32.6z"/>
		<path class="st2" d="M91.2,33.1c-0.1,0.2-0.1,0.4,0.1,0.6c0.2,0.1,0.4,0.1,0.6-0.1c0.1-0.2,0.1-0.4-0.1-0.6
			C91.5,32.9,91.3,33,91.2,33.1z"/>
		<path class="st2" d="M87.7,31.7c0.1-0.2,0.1-0.4-0.1-0.6c-0.2-0.1-0.4-0.1-0.6,0.1c-0.1,0.2-0.1,0.4,0.1,0.6
			C87.3,32,87.6,31.9,87.7,31.7z"/>
		<path class="st2" d="M89.2,32.8c0.1-0.2,0.1-0.4-0.1-0.6c-0.2-0.1-0.4-0.1-0.6,0.1c-0.1,0.2-0.1,0.4,0.1,0.6
			C88.8,33,89,33,89.2,32.8z"/>
		<path class="st2" d="M90,33.3c-0.1,0.2-0.1,0.4,0.1,0.6c0.2,0.1,0.4,0.1,0.6-0.1c0.1-0.2,0.1-0.4-0.1-0.6
			C90.3,33.1,90.1,33.2,90,33.3z"/>
		<path class="st2" d="M86.5,31.9c0.1-0.2,0.1-0.4-0.1-0.6c0,0.1-0.1,0.2-0.1,0.3c-0.1,0.1-0.1,0.3-0.2,0.4
			C86.2,32.1,86.4,32,86.5,31.9z"/>
		<path class="st2" d="M87.9,32.9c0.1-0.2,0.1-0.4-0.1-0.6c-0.2-0.1-0.4-0.1-0.6,0.1c-0.1,0.2-0.1,0.4,0.1,0.6
			C87.6,33.1,87.8,33.1,87.9,32.9z"/>
		<path class="st2" d="M88.7,33.5c-0.1,0.2-0.1,0.4,0.1,0.6c0.2,0.1,0.4,0.1,0.6-0.1c0.1-0.2,0.1-0.4-0.1-0.6
			C89.1,33.2,88.9,33.3,88.7,33.5z"/>
		<path class="st2" d="M86.7,33.1c0.1-0.2,0.1-0.4-0.1-0.6c-0.2-0.1-0.4-0.1-0.6,0.1c-0.1,0.2-0.1,0.4,0.1,0.6
			C86.4,33.3,86.6,33.3,86.7,33.1z"/>
		<path class="st2" d="M87.5,33.7c-0.1,0.2-0.1,0.4,0.1,0.6c0.2,0.1,0.4,0.1,0.6-0.1c0.1-0.2,0.1-0.4-0.1-0.6
			C87.9,33.4,87.7,33.5,87.5,33.7z"/>
		<path class="st2" d="M86.3,33.8c-0.1,0.2-0.1,0.4,0.1,0.6c0.2,0.1,0.4,0.1,0.6-0.1c0.1-0.2,0.1-0.4-0.1-0.6
			C86.7,33.6,86.4,33.6,86.3,33.8z"/>
		<path class="st2" d="M85.7,34.5C85.7,34.5,85.8,34.5,85.7,34.5c0.2-0.2,0.1-0.4,0-0.5C85.7,34.1,85.7,34.3,85.7,34.5z"/>
	</g>
	<path class="st1" d="M48.8,18.8l0.3,0.5c0-0.1,0.1-0.2,0.3-0.3c0.1-0.1,0.2-0.1,0.3-0.2c0.1-0.1,0.2-0.1,0.3-0.2c0,0,0.1,0,0.1,0
		c0.1,0,0.2-0.1,0.3-0.2c0.1-0.1,0.2-0.2,0.4-0.3c0.1-0.1,0.2-0.2,0.3-0.3c0.1-0.1,0.2-0.3,0.3-0.4c0.1-0.1,0.2-0.2,0.2-0.3
		c0.1-0.1,0.2-0.3,0.3-0.4c0.1-0.1,0.1-0.2,0.2-0.3c0.1-0.2,0.2-0.3,0.3-0.5c0.1-0.1,0.1-0.2,0.2-0.4c0.1-0.2,0.2-0.3,0.3-0.5
		c0.1-0.1,0.1-0.3,0.2-0.4c0.1-0.2,0.2-0.3,0.2-0.5c0,0,0-0.1,0-0.1c0.1-0.2,0.1-0.3,0.2-0.5c0.1-0.3,0.1-0.5,0.2-0.8
		c0-0.2,0.1-0.5,0.1-0.7c0-0.8-0.2-1.4-0.4-2c-0.1-0.3-0.2-0.6-0.3-0.8C53,9.1,53,9,53,9c0,0,0,0,0,0l-0.3,0.4l-0.2,0.3l-0.3,0.5
		l-0.2,0.3l-0.3,0.5l-0.2,0.3l-0.3,0.5l-0.2,0.3l-0.3,0.5l-0.2,0.3L50,13.6l-0.2,0.3l-0.3,0.5l-0.2,0.3L49,15.2l-0.2,0.3L48.4,16
		l-0.2,0.3l-0.3,0.5l-0.2,0.3l0,0l0,0.1L48.8,18.8z"/>
	<path class="st1" d="M57,17.9l3-4.8c-0.1,0-0.2-0.1-0.3-0.1c-0.1,0-0.3,0-0.4,0c-0.2,0-0.3,0-0.5,0c-0.1,0-0.2,0-0.3,0.1
		c-0.2,0-0.3,0.1-0.5,0.1c-0.1,0-0.2,0.1-0.3,0.1c-0.1,0.1-0.3,0.1-0.4,0.2c-0.1,0-0.2,0.1-0.3,0.1c-0.1,0.1-0.3,0.1-0.4,0.2
		c-0.1,0.1-0.2,0.1-0.3,0.2c-0.1,0.1-0.3,0.2-0.4,0.2c-0.1,0.1-0.2,0.1-0.3,0.2c-0.1,0.1-0.3,0.2-0.4,0.3c-0.1,0.1-0.2,0.1-0.3,0.2
		c-0.1,0.1-0.3,0.2-0.4,0.3c-0.1,0.1-0.2,0.1-0.3,0.2c-0.1,0.1-0.3,0.2-0.4,0.3c-0.1,0.1-0.2,0.1-0.3,0.2c-0.1,0.1-0.3,0.2-0.4,0.3
		c-0.1,0.1-0.2,0.2-0.3,0.2c-0.1,0.1-0.3,0.2-0.4,0.3c-0.1,0.1-0.2,0.2-0.3,0.2c-0.1,0.1-0.3,0.2-0.4,0.3c-0.1,0.1-0.2,0.2-0.3,0.2
		c-0.1,0.1-0.2,0.2-0.4,0.4c-0.1,0.1-0.2,0.2-0.3,0.3c-0.1,0.1-0.2,0.2-0.4,0.4c-0.1,0.1-0.2,0.2-0.3,0.3c-0.1,0.1-0.3,0.3-0.4,0.4
		c-0.1,0.1-0.2,0.2-0.3,0.3c-0.1,0.1-0.2,0.2-0.2,0.2l2.5,3.6l0-0.2l-0.1-0.6l-0.1-0.8l-0.1-0.5l-0.1-0.7c0,0,0,0,0,0
		c0.2,0.1,0.4,0.2,0.6,0.3c0.1,0.1,0.3,0.1,0.4,0.2c0.2,0.1,0.3,0.1,0.5,0.2c0.2,0.1,0.3,0.1,0.5,0.2c0.2,0.1,0.3,0.1,0.5,0.2
		c0.1,0,0.3,0.1,0.4,0.1c0.2,0.1,0.4,0.1,0.6,0.2c0.1,0,0.3,0.1,0.4,0.1c0.2,0,0.4,0.1,0.7,0.1c0.1,0,0.2,0,0.4,0.1
		c0.2,0,0.4,0.1,0.6,0.1c1.1,0.2,1.9,0.2,2.2,0.3c0.2,0,0.4,0.3,0.5,0.6c0.1,0.2,0.1,0.4,0.2,0.6c0.1,0.2,0.1,0.5,0.1,0.8
		c0,0.1,0,0.2,0.1,0.3c0,0.1,0,0.2,0,0.2c0.1,0.5,0.2,1.1,0.4,1.7c0,0.1,0.1,0.2,0.1,0.3c0.2,0.4,0.4,0.8,0.6,1.2
		c0.1,0.1,0.2,0.2,0.3,0.3c0.2,0.1,0.3,0.3,0.5,0.4c0.1,0.1,0.3,0.1,0.4,0.2c0.2,0.1,0.3,0.1,0.5,0.2c0.2,0.1,0.4,0.1,0.5,0.1
		c0.2,0.1,0.4,0.1,0.6,0.1c0.2,0,0.3,0,0.3,0c0,0,0,0,0,0C61,24.1,57,17.9,57,17.9z"/>
</g>
</svg>
